<svg id="Component_33_1" data-name="Component 33 – 1" xmlns="http://www.w3.org/2000/svg" width="2179" height="1207.897" viewBox="0 0 2179 1207.897">
  <path id="Path_11236" data-name="Path 11236" d="M2179,248.086a32.637,32.637,0,0,0-32.638-32.638,28.575,28.575,0,0,0-4.551.359,70.387,70.387,0,0,0-70.126-65.156,69.607,69.607,0,0,0-31.68,7.546,99.061,99.061,0,0,0-177.561-37.968,69.314,69.314,0,0,0-27.547-8.264v-.3a99.051,99.051,0,1,0-198.1,0c0,3.174.18,6.348.479,9.4a72.482,72.482,0,0,0-7.246-.359,71.03,71.03,0,0,0-17.966,2.336,98.976,98.976,0,0,0-106.716-3.833,99.162,99.162,0,0,0-56.472-34.195,70.369,70.369,0,0,0-133.246,44.256A99.061,99.061,0,0,0,1186.215,177.9a79.423,79.423,0,0,0-90.727-13.594,111.955,111.955,0,0,0-200.677-42.878,79.578,79.578,0,0,0-31.141-9.342v-.3a111.986,111.986,0,1,0-223.972,0,105,105,0,0,0,.539,10.66,74.523,74.523,0,0,0-8.2-.419,78.3,78.3,0,0,0-20.3,2.635,112.067,112.067,0,0,0-120.61-4.372,112.018,112.018,0,0,0-63.838-38.626,79.469,79.469,0,0,0-153.008,30.242,77.519,77.519,0,0,0,2.515,19.822A111.936,111.936,0,0,0,119.951,234.312c0,2.575.12,5.15.3,7.725-2.755-.18-5.509-.359-8.324-.359a112.251,112.251,0,0,0-12.756.719,36.869,36.869,0,0,0-70.9,14.193,36.406,36.406,0,0,0,4.611,17.786A112.011,112.011,0,0,0,28.326,428.1v779.6H2178.94V248.086Z" transform="translate(0 0.2)" fill="#d2f8fd"/>
  <g id="Group_5023" data-name="Group 5023" transform="translate(-519 -1021.999)">
    <g id="Group_4984" data-name="Group 4984" transform="translate(990 1346)">
      <g id="Group_4715" data-name="Group 4715">
        <text id="_5" data-name="5" transform="translate(102 56)" fill="none" font-size="100" font-family="Ubuntu-Medium, Ubuntu" font-weight="500"><tspan x="-28.4" y="0">5</tspan></text>
        <text id="Jahren_in_der_EU_vertreten" data-name="Jahren in der EU vertreten" transform="translate(18 66)" fill="none" font-size="14" font-family="Ubuntu-Medium, Ubuntu" font-weight="500"><tspan x="22.718" y="13">JAHREN IN DER EU </tspan><tspan x="45.167" y="29">VERTRETEN</tspan></text>
        <text id="Seit_" data-name="Seit " transform="translate(120 -19)" fill="none" font-size="14" font-family="Ubuntu-Medium, Ubuntu" font-weight="500"><tspan x="-31.22" y="0">SEIT </tspan></text>
      </g>
    </g>
  </g>
  <g id="Group_5024" data-name="Group 5024" transform="translate(-158.99 -1019.999)">
    <g id="Group_4984-2" data-name="Group 4984" transform="translate(978 1359)">
      <g id="Group_4715-2" data-name="Group 4715">
        <text id="_50_000" data-name="50 000" transform="translate(-1 41)" fill="none" font-size="100" font-family="Ubuntu-Medium, Ubuntu" font-weight="500" letter-spacing="-0.05em"><tspan x="-103.918" y="0">50</tspan><tspan y="0" xml:space="preserve" font-size="58.33" baseline-shift="33.32999886653853"> 000</tspan></text>
        <text id="Rufnummern_in_der_gesamten_EU" data-name="Rufnummern in der gesamten EU" transform="translate(-85 60)" fill="none" font-size="14" font-family="Ubuntu-Medium, Ubuntu" font-weight="500"><tspan x="20.353" y="13">RUFNUMMERN IN DER </tspan><tspan x="46.505" y="29">GESAMTEN EU</tspan></text>
      </g>
    </g>
  </g>
  <g id="Group_5032" data-name="Group 5032" transform="translate(564 -1029.999)">
    <g id="Group_4984-3" data-name="Group 4984" transform="translate(990 1346)">
      <g id="Group_4715-3" data-name="Group 4715" transform="translate(-23 1)">
        <text id="_200" data-name="200" transform="translate(141 63)" fill="none" font-size="100" font-family="Ubuntu-Medium, Ubuntu" font-weight="500" letter-spacing="-0.05em"><tspan x="-160.4" y="0">200</tspan></text>
        <text id="services_online" data-name="services online" transform="translate(-13 82)" fill="none" font-size="14" font-family="Ubuntu-Medium, Ubuntu" font-weight="500"><tspan x="18.179" y="13">SERVICES ONLINE</tspan></text>
      </g>
    </g>
  </g>
  <g id="Group_5033" data-name="Group 5033" transform="translate(-24 -638.999)">
    <g id="Group_4984-4" data-name="Group 4984" transform="translate(1084 948)">
      <g id="Group_4715-4" data-name="Group 4715" transform="translate(-23 1)">
        <text id="_1" data-name="1" transform="translate(52 70)" fill="none" font-size="100" font-family="Ubuntu-Medium, Ubuntu" font-weight="500" letter-spacing="-0.05em"><tspan x="-28.4" y="0">1</tspan></text>
        <text id="Monat_Mindestvertragsdauer" data-name="Monat
Mindestvertragsdauer" transform="translate(52 102)" fill="none" font-size="14" font-family="Ubuntu-Medium, Ubuntu" font-weight="500"><tspan x="-25.284" y="0">MONAT</tspan><tspan x="-89.089" y="16">MINDESTVERTRAGSDAUER</tspan></text>
      </g>
    </g>
  </g>
  <g id="Group_5453" data-name="Group 5453" transform="translate(368.01 -1019.999)">
    <g id="Group_4984-5" data-name="Group 4984" transform="translate(978 1359)">
      <g id="Group_4715-5" data-name="Group 4715">
        <text id="_7_000" data-name="7 000" transform="translate(-1 41)" fill="none" font-size="100" font-family="Ubuntu-Medium, Ubuntu" font-weight="500" letter-spacing="-0.05em"><tspan x="-78.018" y="0">7</tspan><tspan y="0" xml:space="preserve" font-size="58.33" baseline-shift="33.32999886653853"> 000</tspan></text>
        <text id="customers_worldwide_" data-name="customers worldwide " transform="translate(-59 60)" fill="none" font-size="14" font-family="Ubuntu-Medium, Ubuntu" font-weight="500"><tspan x="26.924" y="13">CUSTOMERS </tspan><tspan x="25.069" y="29">WORLDWIDE </tspan></text>
      </g>
    </g>
  </g>
</svg>
