<svg xmlns="http://www.w3.org/2000/svg" xmlns:xlink="http://www.w3.org/1999/xlink" width="480.619" height="403.687" viewBox="0 0 480.619 403.687">
  <defs>
    <linearGradient id="linear-gradient" x1="0.945" y1="0.945" x2="0.055" y2="0.055" gradientUnits="objectBoundingBox">
      <stop offset="0" stop-color="#00a9ff"/>
      <stop offset="1" stop-color="#b371ff"/>
    </linearGradient>
    <linearGradient id="linear-gradient-2" x1="0.584" y1="0.959" x2="0.211" y2="-0.172" gradientUnits="objectBoundingBox">
      <stop offset="0" stop-color="#141414"/>
      <stop offset="1" stop-color="#3c3c3c"/>
    </linearGradient>
    <clipPath id="clip-path">
      <path id="Path_10948" data-name="Path 10948" d="M995.542,349.882c-2.35-4.4-10.111-8.447-13.142-9.621-7.132-2.765-39.555-19.435-45.339-19.933-1.469-2.017-4.216-11.088-7.167-22.643a37.517,37.517,0,0,0,5.63-15.575c2.913-21.692-9.94-22.722-12.591-44.263S921.57,203.382,903.073,202c-2.144-.162-5.219-.059-6.489-.037-5.807-.925-13.848-1.53-22.484,5.667-5.127,4.273-4.863,8.679-1.125,11.311a25.515,25.515,0,0,0-3.674,13.19,25.823,25.823,0,0,0,.413,4.456,7.645,7.645,0,0,0,5.523,12.952c.138,0,.264-.033.4-.042a33.413,33.413,0,0,0,3.06,8.329,44.925,44.925,0,0,1,3.012,6.845h-5.287a5.717,5.717,0,0,0-2.07.4,6.617,6.617,0,0,0-5.51,3.849c-6.067,17.041-13.074,34.474-16.687,40.845-16.471-6.375-31.228-19.544-35.06-24.632a1.209,1.209,0,0,0,.09-.437,1.19,1.19,0,0,0-.247-.7c.922-3.689,4.6-6.24,4.642-6.341a4.944,4.944,0,0,0,.2-3.521c.009-3.963,1.906-8.959.4-8.268-1.41.649-1.735,3.147-2.072,5.838a4.9,4.9,0,0,0-.979-.612,4.968,4.968,0,0,0-6.6,2.433,37.566,37.566,0,0,0-2.636,11.317c0,.052,0,.1,0,.155a4.6,4.6,0,0,0,0,.52,4.049,4.049,0,0,0,.024.466c.022.155.061.306.1.459.039.168.074.334.129.5.046.133.109.262.166.391a4.133,4.133,0,0,0,.247.5c.024.042.037.085.063.129.055.09.232.369.509.787a1.216,1.216,0,0,0-.6,1.036,1.235,1.235,0,0,0,1.235,1.237,1.2,1.2,0,0,0,.741-.273c4.942,6.939,19.22,24.737,39.656,31.106a7.013,7.013,0,0,0,2.068.363c3.2,0,5.908-3.254,11-14.895v.009a4.226,4.226,0,0,1-.046.525c-.3,2.819-.566,5.617-.809,8.349,0,.087-.02.2-.02.284-.109,1.2-.219,2.382-.306,3.519v.022c-.022.175-.022.328-.046.5-.284,2.929-.479,5.7-.7,8.327,0,.109-.024.2-.024.306-.087,1.224-.2,2.4-.262,3.541-.022.175-.022.35-.042.5-.262,3.235-.459,6.054-.614,8.284,0,.109-.02.219-.02.328-.238,3.243-.348,5.176-.352,5.215h0v.009h0c0,.166-1.191,35.278,2.625,66.349l1.729-.2q.138,2.265.282,4.55c0,.153.02.284.02.437.964,14.993,2.186,30.074,3.521,39.013,2.9,19.2,15.175,69.35,18.051,81.2a2.507,2.507,0,0,0-1,.468c-2.546,2.114-10.29,5.895-14.263,6.469-4.262.614-4.478,2.723,1.515,2.723s10.39-.536,13.061-.466,3.694.466,10.266.466c5.044,0,1.751-6.432-.055-9.424a2.727,2.727,0,0,0-2.686-1.244c-.759-10.375-3.672-49.526-8.3-82.7-1.2-8.633.962-20.479.546-38.86v-.2c-.042-1.663-.09-3.248-.135-4.8l6.115-.7q.049,2.177.118,4.38c0,.2.02.415.02.612.527,15.889,1.377,32.369,2.819,41.9,2.935,19.371,18.495,67.2,23.128,81.288h-.007a2.375,2.375,0,0,0-1.23.549c-2.411,2.114-6.373,5.895-10.132,6.469-4.028.614-4.234,2.723,1.436,2.723s6.465-.536,8.992-.466,3.493.466,9.709.466c4.771,0,1.654-6.432-.05-9.424a2.505,2.505,0,0,0-1.751-1.222c-2.059-13.527-10.828-72.543-14.552-85.018-2.623-8.786,1.4-23.823,1.923-39.581,0-.2.02-.393.02-.588q.062-2.252.1-4.426l.785-.09s11.413-38.432-4.122-60.66h0c-.109-1.7-.2-3.453-.221-5.224v-.24c-.042-2.71.024-5.508.221-8.371a1.247,1.247,0,0,1,.022-.284c.042-1.246.107-2.47.262-3.759,0-.109.022-.24.022-.35.219-2.732.524-5.486.9-8.284.02-.109.02-.2.042-.306.133-1.224.33-2.492.5-3.737.02-.131.042-.284.066-.415.223-1.543.49-3.095.741-4.642a38.053,38.053,0,0,0,7.825-4.29c2.631,9.577,5.342,17.636,7.514,20.057,10.139,11.3,44.914,17.728,50.521,19.216,3.23,1.414,6.581,6.653,7.291,7.665a4.974,4.974,0,0,0,4.369,2.59,16.376,16.376,0,0,0,4.367-.693C997.363,354.688,996.836,352.306,995.542,349.882Zm-126.7-108.007a6.334,6.334,0,0,1,1.2-3.7A25.541,25.541,0,0,0,875,248.246,6.389,6.389,0,0,1,868.844,241.875Z" transform="translate(-809.891 -201.419)" fill="none"/>
    </clipPath>
  </defs>
  <g id="Group_4888" data-name="Group 4888" transform="translate(-591.583 -195.215)">
    <path id="Path_11192" data-name="Path 11192" d="M449,150.595H425.209a27.891,27.891,0,0,0,.506-4.556,22.036,22.036,0,0,0-22.02-22.02,23.043,23.043,0,0,0-11.643,3.29,57.576,57.576,0,0,0,.506-6.581,47.12,47.12,0,0,0-92.635-12.149,37.07,37.07,0,0,0-27.335-15.945,77.664,77.664,0,0,0,2.531-18.729,74.032,74.032,0,0,0-148.064,0c0,3.037.253,5.821.506,8.605a46.949,46.949,0,0,0-63.781,67.831h-48.6a15.186,15.186,0,0,0,0,30.372H449a15.231,15.231,0,0,0,15.186-15.186A15.016,15.016,0,0,0,449,150.595Z" transform="translate(591.583 195.215)" fill="#e0fafd"/>
    <g id="Group_4881" data-name="Group 4881" transform="matrix(0.996, 0.087, -0.087, 0.996, 784.659, 229.392)">
      <g id="Group_4880" data-name="Group 4880">
        <g id="Group_4879" data-name="Group 4879">
          <path id="Path_10906" data-name="Path 10906" d="M917.518,201.308,939.05,454.632a7.761,7.761,0,0,1-7.075,8.386l-132.942,11.3a7.76,7.76,0,0,1-8.388-7.073L769.114,213.921a7.778,7.778,0,0,1,7.07-8.41l132.945-11.3A7.779,7.779,0,0,1,917.518,201.308Z" transform="translate(-762.711 -194.183)" fill="#89c7e8"/>
          <path id="Path_10907" data-name="Path 10907" d="M895.839,205,914.45,423.946a4.2,4.2,0,0,1-3.845,4.529L799.239,437.94a4.2,4.2,0,0,1-4.55-3.816l-18.611-218.94a4.2,4.2,0,0,1,3.842-4.531l111.366-9.466A4.2,4.2,0,0,1,895.839,205Z" transform="translate(-754.439 -185.897)" fill="#f9ead2"/>
          <g id="Group_4865" data-name="Group 4865" transform="translate(94.311 253.264)">
            <g id="Group_4864" data-name="Group 4864">
              <path id="Path_10908" data-name="Path 10908" d="M817.237,324.633h0a7.3,7.3,0,0,1-7.89-6.655h0a7.3,7.3,0,0,1,6.655-7.89h0a7.3,7.3,0,0,1,7.89,6.655h0A7.3,7.3,0,0,1,817.237,324.633Z" transform="translate(-809.32 -310.061)" fill="#006ca2"/>
            </g>
          </g>
          <g id="Group_4867" data-name="Group 4867" transform="translate(30.039 13.939)">
            <g id="Group_4866" data-name="Group 4866">
              <path id="Path_10909" data-name="Path 10909" d="M783.13,206.482h0a2.966,2.966,0,0,1-3.206-2.7h0a2.965,2.965,0,0,1,2.7-3.206h0a2.965,2.965,0,0,1,3.206,2.7h0A2.965,2.965,0,0,1,783.13,206.482Z" transform="translate(-779.913 -200.561)" fill="#006ca2"/>
            </g>
          </g>
          <g id="Group_4869" data-name="Group 4869" transform="translate(40.139 14.414)">
            <g id="Group_4868" data-name="Group 4868">
              <path id="Path_10910" data-name="Path 10910" d="M786.418,204.246h0a1.738,1.738,0,0,1-1.877-1.585h0a1.74,1.74,0,0,1,1.585-1.877h0A1.737,1.737,0,0,1,788,202.369h0A1.737,1.737,0,0,1,786.418,204.246Z" transform="translate(-784.534 -200.778)" fill="#006ca2"/>
            </g>
          </g>
          <path id="Rectangle_2709" data-name="Rectangle 2709" d="M0,0H.944a.422.422,0,0,1,.422.422V23.766a.423.423,0,0,1-.423.423H0a0,0,0,0,1,0,0V0A0,0,0,0,1,0,0Z" transform="matrix(0.996, -0.087, 0.087, 0.996, 157.067, 33.992)" fill="#006ca2"/>
          <path id="Rectangle_2710" data-name="Rectangle 2710" d="M0,0H.944a.422.422,0,0,1,.422.422V23.767a.422.422,0,0,1-.422.422H0a0,0,0,0,1,0,0V0A0,0,0,0,1,0,0Z" transform="matrix(0.996, -0.087, 0.087, 0.996, 159.427, 61.758)" fill="#006ca2"/>
          <g id="Group_4875" data-name="Group 4875" transform="translate(119.155 19.021)">
            <g id="Group_4871" data-name="Group 4871">
              <g id="Group_4870" data-name="Group 4870">
                <rect id="Rectangle_2711" data-name="Rectangle 2711" width="1.913" height="5.898" transform="translate(3.984 0.162) rotate(-4.863)" fill="#e8afaf"/>
                <rect id="Rectangle_2712" data-name="Rectangle 2712" width="1.913" height="3.712" transform="translate(1.992 2.525) rotate(-4.863)" fill="#e8afaf"/>
                <rect id="Rectangle_2713" data-name="Rectangle 2713" width="1.913" height="1.526" transform="translate(0 4.887) rotate(-4.838)" fill="#e8afaf"/>
              </g>
            </g>
            <g id="Group_4874" data-name="Group 4874" transform="translate(9.313 1.277)">
              <g id="Group_4873" data-name="Group 4873">
                <rect id="Rectangle_2714" data-name="Rectangle 2714" width="4.522" height="3.78" transform="translate(0.001 0.558) rotate(-4.86)" fill="#e8afaf"/>
                <g id="Group_4872" data-name="Group 4872">
                  <path id="Path_10911" data-name="Path 10911" d="M831.028,204.06l.23,2.677-5.492.466-.225-2.675,5.488-.468m.5-.59-6.579.56.321,3.766,6.579-.562-.321-3.764Z" transform="translate(-824.948 -203.47)" fill="#e8afaf"/>
                  <rect id="Rectangle_2715" data-name="Rectangle 2715" width="1.18" height="2.648" transform="translate(6.39 0.583) rotate(-4.824)" fill="#e8afaf"/>
                </g>
              </g>
            </g>
          </g>
          <path id="Path_10912" data-name="Path 10912" d="M896.089,205,914.7,423.946a4.2,4.2,0,0,1-3.842,4.529L799.489,437.94a4.193,4.193,0,0,1-4.55-3.816l-18.611-218.94a4.2,4.2,0,0,1,3.842-4.531l111.366-9.466A4.2,4.2,0,0,1,896.089,205Z" transform="translate(-754.142 -185.897)" fill="#fff"/>
          <g id="Group_5038" data-name="Group 5038" transform="translate(-1092.626 -171.682) rotate(-5)">
            <path id="Path_11170" data-name="Path 11170" d="M819.705,317.634a329.252,329.252,0,0,1,0-66.809,11.577,11.577,0,0,1,10.353-10.353,329.252,329.252,0,0,1,66.809,0,11.577,11.577,0,0,1,10.353,10.353,329.252,329.252,0,0,1,0,66.809,11.577,11.577,0,0,1-10.353,10.353,329.252,329.252,0,0,1-66.809,0A11.577,11.577,0,0,1,819.705,317.634Z" transform="translate(289.805 77.506)" opacity="0" fill="url(#linear-gradient)"/>
            <path id="Path_11171" data-name="Path 11171" d="M819.251,305.82a329.245,329.245,0,0,1,0-66.809A11.576,11.576,0,0,1,829.6,228.658a329.245,329.245,0,0,1,66.809,0,11.575,11.575,0,0,1,10.353,10.353,329.139,329.139,0,0,1,0,66.809,11.574,11.574,0,0,1-10.353,10.353,329.13,329.13,0,0,1-66.809,0A11.576,11.576,0,0,1,819.251,305.82Z" transform="translate(289.909 80.232)" fill="#0fa7e9"/>
            <g id="Group_5012" data-name="Group 5012" transform="translate(1122.576 322.65)">
              <g id="Group_5011" data-name="Group 5011" transform="translate(0 0)">
                <path id="Path_11172" data-name="Path 11172" d="M837.484,292.13a2.66,2.66,0,0,1-.252-1.717q-.016-18.25-.008-36.5c0-4.552,2.29-6.854,6.817-6.856q15.907-.006,31.815,0c4.348,0,6.682,2.312,6.691,6.652q.023,11.547,0,23.094c-.008,4.106-2.405,6.491-6.526,6.5q-14.131.02-28.262-.018a3.2,3.2,0,0,0-2.538,1.052C842.693,286.953,840.1,289.5,837.484,292.13Z" transform="translate(-837.202 -247.056)" fill="#fff"/>
                <path id="Path_11173" data-name="Path 11173" d="M901.974,311.779c-2.506-2.52-5-4.939-7.379-7.46a3.973,3.973,0,0,0-3.218-1.358c-9.259.062-18.518.036-27.777.031-4.307,0-6.658-2.359-6.677-6.674-.006-1.292.089-2.592-.026-3.874s.411-1.5,1.559-1.488c7.106.048,14.212.025,21.318.024,6.9,0,10.459-3.55,10.46-10.411,0-4.144.041-8.29-.026-12.434-.019-1.149.335-1.508,1.453-1.422a21.288,21.288,0,0,0,3.55,0c4.444-.4,7.253,2.844,7.092,7.138-.215,5.752-.053,11.518-.053,17.278q0,9.447-.009,18.895A2.768,2.768,0,0,1,901.974,311.779Z" transform="translate(-841.744 -251.585)" fill="#fff"/>
              </g>
            </g>
            <g id="Group_5014" data-name="Group 5014" transform="translate(1134.722 327.738)">
              <g id="Group_5013" data-name="Group 5013" transform="translate(0 0)">
                <path id="Path_11174" data-name="Path 11174" d="M852.993,258.568a5.246,5.246,0,0,1,3.4-4.8,3,3,0,0,1,3.234,1.431,18.042,18.042,0,0,1,1.189,4.967,1.391,1.391,0,0,1-.447,1.125c-.456.489-.929.967-1.425,1.415a1.009,1.009,0,0,0-.3,1.294,18.937,18.937,0,0,0,7.375,8.252.877.877,0,0,0,1.142-.1c.531-.444,1.067-.886,1.622-1.3a1.542,1.542,0,0,1,1.371-.3,21.545,21.545,0,0,1,4.292,1.542,2.782,2.782,0,0,1,.807,4.377c-1.743,2.13-3.879,2.47-6.407,1.8-7.877-2.081-12.735-7.211-15.117-14.856A16.311,16.311,0,0,1,852.993,258.568Z" transform="translate(-852.992 -253.671)"/>
              </g>
            </g>
          </g>
        </g>
      </g>
      <g id="Group_5041" data-name="Group 5041" transform="translate(-281.995 -108.427) rotate(-5)">
        <g id="Group_5039" data-name="Group 5039" transform="translate(313.033 308.666)">
          <rect id="Rectangle_2762" data-name="Rectangle 2762" width="85.075" height="23.364" transform="translate(4.405)" fill="#fafafa"/>
          <rect id="Rectangle_2763" data-name="Rectangle 2763" width="16.601" height="16.601" transform="translate(69.142 3.381)" fill="#d3f4e8"/>
          <rect id="Rectangle_2764" data-name="Rectangle 2764" width="35.934" height="3.203" transform="translate(0 4.387)" fill="#a5efd3"/>
          <rect id="Rectangle_2765" data-name="Rectangle 2765" width="35.934" height="3.201" transform="translate(0 10.081)" fill="#a5efd3"/>
          <rect id="Rectangle_2766" data-name="Rectangle 2766" width="24.194" height="3.203" transform="translate(0 15.773)" fill="#a5efd3"/>
        </g>
        <g id="Group_5040" data-name="Group 5040" transform="translate(304.967 337.841)">
          <rect id="Rectangle_2767" data-name="Rectangle 2767" width="62.178" height="29.175" fill="#fafafa"/>
          <rect id="Rectangle_2768" data-name="Rectangle 2768" width="31.724" height="3.203" transform="translate(8.066 4.389)" fill="#ffe1ab"/>
          <rect id="Rectangle_2769" data-name="Rectangle 2769" width="24.194" height="3.203" transform="translate(8.066 10.081)" fill="#ffe1ab"/>
          <rect id="Rectangle_2770" data-name="Rectangle 2770" width="16.317" height="3.201" transform="translate(8.066 15.774)" fill="#ffe1ab"/>
          <rect id="Rectangle_2771" data-name="Rectangle 2771" width="9.725" height="3.201" transform="translate(26.399 15.774)" fill="#a5efd3"/>
          <rect id="Rectangle_2772" data-name="Rectangle 2772" width="22.059" height="3.203" transform="translate(8.066 21.466)" fill="#ffe1ab"/>
        </g>
      </g>
    </g>
    <g id="Group_4885" data-name="Group 4885" transform="translate(885.458 252.262)">
      <path id="Path_10919" data-name="Path 10919" d="M849.855,264.259a4.973,4.973,0,0,1-4.271-7.514s.658-1.1,5.221-8.345c2.662-4.22,2.135-14.827,1.467-19.3a4.973,4.973,0,1,1,9.835-1.475c.267,1.779,2.452,17.614-2.889,26.083-4.271,6.778-5.036,8.045-5.093,8.137A4.969,4.969,0,0,1,849.855,264.259Z" transform="translate(-768.401 -175.372)" fill="#ffaf84"/>
      <path id="Path_10920" data-name="Path 10920" d="M881.612,452.108l-6.122,2.011c-.809-2.535-21.026-62.837-24.413-85.193-1.443-9.531-2.293-26.011-2.819-41.9,0-.2-.02-.415-.02-.612-.678-21.069.24-40.827.24-42.268a8.361,8.361,0,0,1,8.347-8.417h.046c4.612,0,11.671,3.213,11.691,7.824,0,.328.592,18.01,0,40.567,0,.195-.02.391-.02.588-.527,15.758-4.546,30.8-1.923,39.581C870.815,378.344,881.413,451.5,881.612,452.108Z" transform="translate(-764.722 -113.315)" fill="#ffaf84"/>
      <path id="Path_10921" data-name="Path 10921" d="M865.767,451.936l-6.423.918c-.088-.634-15.387-62.028-18.665-83.753-1.335-8.939-2.557-24.02-3.521-39.013,0-.153-.02-.284-.02-.437-1.4-22.007-2.295-43.688-2.363-45.2a8.385,8.385,0,0,1,8.043-8.721c4.633-.151,11.979,2.929,12.395,7.54.94,10.207,2.054,22.228,2.6,44.259v.2c.415,18.381-1.748,30.227-.546,38.86C862.622,404.946,865.682,451.324,865.767,451.936Z" transform="translate(-780.397 -113.318)" fill="#ffaf84"/>
      <path id="Path_10922" data-name="Path 10922" d="M881.547,285.834c-2.555-3.506-8.963-28.31-13.61-50.457-.566-2.686-4.557-5.355-7.272-4.786a4.973,4.973,0,0,0-3.844,5.888c3.158,15.046,11.042,50.641,16.056,56.232,10.139,11.3,44.914,17.728,50.521,19.216,3.23,1.414,6.581,6.653,7.291,7.665a4.974,4.974,0,0,0,4.369,2.59,16.376,16.376,0,0,0,4.367-.693c2.424-1.294,1.9-3.676.6-6.1-2.35-4.4-10.111-8.447-13.142-9.621C919.754,303,887.33,286.332,881.547,285.834Z" transform="translate(-754.376 -166.924)" fill="#ffaf84"/>
      <path id="Path_10923" data-name="Path 10923" d="M837.073,229.411a25.7,25.7,0,1,0,25.7-25.7A25.7,25.7,0,0,0,837.073,229.411Z" transform="translate(-777.663 -198.699)" fill="#ffaf84"/>
      <path id="Path_10924" data-name="Path 10924" d="M892.417,235.562a5.4,5.4,0,0,1-.065,1.442c-.393,2.164-.789,4.393-1.226,6.666-.042.175-.063.35-.109.525-.216,1.2-.459,2.426-.7,3.672a2.275,2.275,0,0,0-.088.372c-.5,2.645-1.049,5.355-1.6,8.109-.044.175-.068.35-.109.525-.243,1.224-.481,2.426-.721,3.672-.022.109-.046.24-.068.35-.546,2.71-1.047,5.4-1.552,8.152-.02.153-.066.328-.088.481-.238,1.224-.459,2.47-.675,3.694-.022.109-.046.219-.066.328-.459,2.754-.918,5.486-1.311,8.218-.024.131-.046.284-.066.415-.175,1.246-.371,2.513-.5,3.737-.022.109-.022.2-.042.306-.372,2.8-.677,5.551-.9,8.284,0,.109-.022.24-.022.35-.155,1.29-.221,2.513-.262,3.759a1.247,1.247,0,0,0-.022.284c-.2,2.863-.262,5.661-.221,8.371v.24c.024,1.77.112,3.519.221,5.224h-48.5s.109-1.945.352-5.224c0-.109.02-.219.02-.328.155-2.229.352-5.049.614-8.284.02-.153.02-.328.042-.5.066-1.136.175-2.317.262-3.541,0-.109.024-.2.024-.306.219-2.623.413-5.4.7-8.327.024-.175.024-.328.046-.5V285.7c.087-1.137.2-2.317.306-3.519,0-.087.02-.2.02-.284.243-2.732.5-5.53.809-8.349a4.226,4.226,0,0,0,.046-.525c.129-1.158.238-2.339.372-3.5,0-.087.022-.2.022-.284.3-2.819.612-5.6.938-8.349.024-.175.046-.35.068-.525.153-1.18.282-2.339.437-3.5a1.215,1.215,0,0,1,.042-.262c.35-2.907.767-5.726,1.161-8.371.02-.2.066-.372.088-.546.194-1.2.371-2.382.566-3.5.024-.087.024-.175.046-.262.546-3.125,1.115-5.967,1.681-8.371.046-.2.109-.393.155-.59.042-.131.065-.262.109-.393a5.683,5.683,0,0,1,5.508-4.218h38.574a5.721,5.721,0,0,1,5.641,4.786A2.977,2.977,0,0,1,892.417,235.562Z" transform="translate(-781.626 -167.105)" fill="#89c7e8"/>
      <path id="Path_10931" data-name="Path 10931" d="M876.1,230.755c-2.6-.92-6.338,1.071-7.258,3.657-6.067,17.041-13.074,34.474-16.687,40.845-16.936-6.557-32.1-20.322-35.392-25.069.577-4.07,4.771-6.931,4.817-7.038a4.944,4.944,0,0,0,.2-3.521c.009-3.962,1.906-8.959.4-8.268-1.41.649-1.735,3.147-2.072,5.838a4.9,4.9,0,0,0-.979-.612,4.968,4.968,0,0,0-6.6,2.433,37.566,37.566,0,0,0-2.636,11.317c0,.052,0,.1,0,.155a4.6,4.6,0,0,0,0,.52,4.049,4.049,0,0,0,.024.466c.022.155.061.306.1.459.039.168.074.334.129.5.046.133.109.262.166.391a4.133,4.133,0,0,0,.247.5c.024.042.037.085.063.129.658,1.06,16.471,26.079,41.54,33.892a7.013,7.013,0,0,0,2.068.363c4.078,0,7.337-5.219,15.776-26.433,4.728-11.877,9.066-24.048,9.108-24.171A4.973,4.973,0,0,0,876.1,230.755Z" transform="translate(-809.891 -166.908)" fill="#ffaf84"/>
      <g id="Group_4882" data-name="Group 4882" transform="translate(54.371 162.409)">
        <path id="Path_10932" data-name="Path 10932" d="M855.213,283.272c.94,10.207,2.054,22.228,2.6,44.259v.2l-20.656,2.36c0-.153-.02-.284-.02-.437-1.4-22.007-2.295-43.688-2.363-45.2a8.385,8.385,0,0,1,8.043-8.721C847.452,275.581,854.8,278.661,855.213,283.272Z" transform="translate(-834.768 -275.727)" fill="#e09163"/>
        <path id="Path_10933" data-name="Path 10933" d="M868.561,324.121c0,.195-.02.391-.02.588l-20.285,2.317c0-.2-.02-.415-.02-.612-.678-21.069.24-40.827.24-42.268a8.361,8.361,0,0,1,8.347-8.417h.046c4.612,0,11.671,3.213,11.691,7.824C868.561,283.881,869.154,301.563,868.561,324.121Z" transform="translate(-819.093 -275.724)" fill="#e09163"/>
      </g>
      <path id="Path_10934" data-name="Path 10934" d="M886.449,328.714s11.416-38.443-4.126-60.668H833.828s-1.2,35.213,2.625,66.358Z" transform="translate(-781.722 -122.424)" fill="#006ca2"/>
      <path id="Path_10935" data-name="Path 10935" d="M890.221,237.847c-2.653-21.541-1.364-34.465-19.861-35.846-2.144-.162-5.219-.059-6.489-.037-5.807-.925-13.848-1.53-22.484,5.667-7.1,5.916-3.9,12.113,4.618,13.457-4.682,11.228-6.1,25.336-.02,36.74,14.961,28.085-15.216,22.21-5.283,43.658s57.2,17.129,62.109-19.376C905.726,260.418,892.872,259.388,890.221,237.847Z" transform="translate(-777.179 -201.419)" fill="url(#linear-gradient-2)"/>
      <g id="Group_4884" data-name="Group 4884" transform="translate(0.643 82.042)">
        <g id="Group_4883" data-name="Group 4883">
          <path id="Path_10936" data-name="Path 10936" d="M814.571,240.193a1.237,1.237,0,1,1-1.239-1.237A1.239,1.239,0,0,1,814.571,240.193Z" transform="translate(-807.918 -238.956)" fill="#e0654c"/>
          <path id="Path_10937" data-name="Path 10937" d="M813.641,240.721a1.237,1.237,0,1,1-1.237-1.237A1.235,1.235,0,0,1,813.641,240.721Z" transform="translate(-809.021 -238.33)" fill="#e0654c"/>
          <path id="Path_10938" data-name="Path 10938" d="M812.862,241.488a1.235,1.235,0,1,1-1.235-1.237A1.235,1.235,0,0,1,812.862,241.488Z" transform="translate(-809.94 -237.421)" fill="#e0654c"/>
          <path id="Path_10939" data-name="Path 10939" d="M812.655,242.522a1.235,1.235,0,1,1-1.235-1.235A1.234,1.234,0,0,1,812.655,242.522Z" transform="translate(-810.185 -236.192)" fill="#e0654c"/>
        </g>
      </g>
      <path id="Path_10940" data-name="Path 10940" d="M838.446,336.281c-.671-3.63-4.472-51.087-2.942-68.875l1.088.094c-1.523,17.717,2.26,64.968,2.929,68.583Z" transform="translate(-779.95 -123.183)" fill="#fff0e9"/>
      <rect id="Rectangle_2716" data-name="Rectangle 2716" width="35.806" height="2.185" transform="translate(67.802 199.655) rotate(-15.175)" fill="#013040"/>
      <path id="Path_10942" data-name="Path 10942" d="M844.907,298.234l-.781-2.04,28.227-10.77.781,2.04Z" transform="translate(-769.301 -101.821)" fill="#013040"/>
      <path id="Path_10943" data-name="Path 10943" d="M838.236,213.85v8.286a2.122,2.122,0,0,0,3.027,1.936,6.792,6.792,0,0,0,0-12.159A2.122,2.122,0,0,0,838.236,213.85Z" transform="translate(-776.284 -189.231)" fill="#ffaf84"/>
      <path id="Path_10944" data-name="Path 10944" d="M843.947,231.751a7.664,7.664,0,1,1,7.665-7.665A7.673,7.673,0,0,1,843.947,231.751Zm0-14.058a6.394,6.394,0,1,0,6.393,6.393A6.4,6.4,0,0,0,843.947,217.693Z" transform="translate(-778.601 -183.629)" fill="#fff0e9"/>
      <path id="Path_10945" data-name="Path 10945" d="M856,356.08a2.586,2.586,0,0,0-1.3.549c-2.546,2.114-10.29,5.895-14.266,6.469-4.26.614-4.476,2.723,1.517,2.723s10.39-.536,13.061-.466,3.694.466,10.266.466c5.044,0,1.751-6.432-.055-9.424a2.727,2.727,0,0,0-2.728-1.244Z" transform="translate(-777.36 -19.182)" fill="#2c4663"/>
      <path id="Path_10946" data-name="Path 10946" d="M867.735,356.08a2.375,2.375,0,0,0-1.23.549c-2.411,2.114-6.373,5.895-10.132,6.469-4.028.614-4.234,2.723,1.436,2.723s6.465-.536,8.992-.466,3.493.466,9.709.466c4.771,0,1.654-6.432-.05-9.424a2.535,2.535,0,0,0-2.583-1.244Z" transform="translate(-758.26 -19.182)" fill="#2c4663"/>
    </g>
  </g>
</svg>
