<svg xmlns="http://www.w3.org/2000/svg" width="2195.916" height="852.462" viewBox="0 0 2195.916 852.462">
  <path id="Path_7010" data-name="Path 7010" d="M2195.916,250.014a32.891,32.891,0,0,0-32.891-32.891,28.8,28.8,0,0,0-4.587.362,70.933,70.933,0,0,0-70.67-65.661,70.147,70.147,0,0,0-31.926,7.6A99.83,99.83,0,0,0,1876.9,121.165a69.854,69.854,0,0,0-27.761-8.328v-.3a99.82,99.82,0,1,0-199.639,0c0,3.2.181,6.4.483,9.475a73.035,73.035,0,0,0-7.3-.362A71.582,71.582,0,0,0,1624.577,124a99.745,99.745,0,0,0-107.545-3.862,99.93,99.93,0,0,0-56.91-34.46,70.916,70.916,0,0,0-134.28,44.6,99.83,99.83,0,0,0-130.418,49,80.039,80.039,0,0,0-91.431-13.7,112.824,112.824,0,0,0-202.235-43.211,80.2,80.2,0,0,0-31.382-9.415v-.3a112.856,112.856,0,1,0-225.711,0,105.845,105.845,0,0,0,.543,10.742,75.093,75.093,0,0,0-8.268-.422,78.907,78.907,0,0,0-20.459,2.655,112.936,112.936,0,0,0-121.546-4.406A112.888,112.888,0,0,0,430.6,82.3a80.086,80.086,0,0,0-154.2,30.477,78.12,78.12,0,0,0,2.535,19.976A112.8,112.8,0,0,0,120.882,236.133c0,2.6.121,5.19.3,7.785-2.776-.181-5.552-.362-8.389-.362a113.125,113.125,0,0,0-12.855.724,37.155,37.155,0,0,0-71.455,14.3,36.689,36.689,0,0,0,4.647,17.924,112.88,112.88,0,0,0-4.587,154.92V852.262h2167.31V250.014Z" transform="translate(0 0.2)" fill="#fff"/>
</svg>
