<svg xmlns="http://www.w3.org/2000/svg" width="107.624" height="39.4" viewBox="0 0 107.624 39.4">
  <path id="Path_7011" data-name="Path 7011" d="M104.21,31.861H98.8A3.925,3.925,0,0,0,95.322,29.8a4.559,4.559,0,0,0-1.031.142,12,12,0,0,0,.322-3.058c0-6.685-4.895-12.09-10.949-12.09a10.425,10.425,0,0,0-6.441,2.276,8.544,8.544,0,0,0-7.6-4.978,6.487,6.487,0,0,0-1.224.142C65.953,5.121,59.705,0,52.363,0c-9.4,0-17.068,8.463-17.068,18.847a17.74,17.74,0,0,0,.064,1.849h-.064a7.861,7.861,0,0,0-5.732,2.56,11.087,11.087,0,0,0-10.434-8.463c-6.054,0-10.949,5.405-10.949,12.09a12.61,12.61,0,0,0,.966,4.978H3.414A3.629,3.629,0,0,0,0,35.631H0A3.629,3.629,0,0,0,3.414,39.4h100.8a3.629,3.629,0,0,0,3.414-3.769h0A3.629,3.629,0,0,0,104.21,31.861Z" fill="#11d1ed" opacity="0.2"/>
</svg>
