<svg xmlns="http://www.w3.org/2000/svg" xmlns:xlink="http://www.w3.org/1999/xlink" width="2179" height="1407.897" viewBox="0 0 2179 1407.897">
  <defs>
    <linearGradient id="linear-gradient" x1="0.5" x2="0.5" y2="1" gradientUnits="objectBoundingBox">
      <stop offset="0" stop-color="#fafafa"/>
      <stop offset="0.467" stop-color="#eaeaea"/>
      <stop offset="1" stop-color="#dbf4ff"/>
    </linearGradient>
  </defs>
  <path id="Path_10653" data-name="Path 10653" d="M2179,248.086a32.637,32.637,0,0,0-32.638-32.638,28.575,28.575,0,0,0-4.551.359,70.387,70.387,0,0,0-70.126-65.156,69.607,69.607,0,0,0-31.68,7.546,99.061,99.061,0,0,0-177.561-37.968,69.314,69.314,0,0,0-27.547-8.264v-.3a99.051,99.051,0,1,0-198.1,0c0,3.174.18,6.348.479,9.4a72.482,72.482,0,0,0-7.246-.359,71.03,71.03,0,0,0-17.966,2.336,98.976,98.976,0,0,0-106.716-3.833,99.162,99.162,0,0,0-56.472-34.195,70.369,70.369,0,0,0-133.246,44.256A99.061,99.061,0,0,0,1186.215,177.9a79.423,79.423,0,0,0-90.727-13.594,111.955,111.955,0,0,0-200.677-42.878,79.578,79.578,0,0,0-31.141-9.342v-.3a111.986,111.986,0,1,0-223.972,0,105,105,0,0,0,.539,10.66,74.523,74.523,0,0,0-8.2-.419,78.3,78.3,0,0,0-20.3,2.635,112.067,112.067,0,0,0-120.61-4.372,112.018,112.018,0,0,0-63.838-38.626,79.469,79.469,0,0,0-153.008,30.242,77.519,77.519,0,0,0,2.515,19.822A111.936,111.936,0,0,0,119.951,234.312c0,2.575.12,5.15.3,7.725-2.755-.18-5.509-.359-8.324-.359a112.251,112.251,0,0,0-12.756.719,36.869,36.869,0,0,0-70.9,14.193,36.406,36.406,0,0,0,4.611,17.786A112.011,112.011,0,0,0,28.326,428.1v979.6H2178.94V248.086Z" transform="translate(0 0.2)" fill="url(#linear-gradient)"/>
</svg>
