<svg xmlns="http://www.w3.org/2000/svg" xmlns:xlink="http://www.w3.org/1999/xlink" width="62" height="120" viewBox="34 28 62 120">
  <g id="Component_51_5" data-name="Component 51 – 5" transform="translate(30 27.644)">
    <path id="Rectangle_2964" data-name="Rectangle 2964" d="M12,0H60a0,0,0,0,1,0,0V120a0,0,0,0,1,0,0H12A12,12,0,0,1,0,108V12A12,12,0,0,1,12,0Z" transform="translate(5)" fill="#0fa7e9"/>
    <g id="Group_5339" data-name="Group 5339" transform="translate(18 67.993)">
      <path id="Path_11409" data-name="Path 11409" d="M737.2,314H721v-5.4a3.6,3.6,0,0,1,3.6-3.6h21.6a3.6,3.6,0,0,1,3.6,3.6v25.2l-7.2-7.2v-7.2A5.406,5.406,0,0,0,737.2,314Zm5.4-5.4H728.2v2.246h14.4Z" transform="translate(-712.001 -305)" fill="#fff"/>
      <path id="Path_11410" data-name="Path 11410" d="M729.6,311h21.6a3.6,3.6,0,0,1,3.6,3.6V329a3.6,3.6,0,0,1-3.6,3.6h-18l-7.2,7.2V314.6A3.6,3.6,0,0,1,729.6,311Zm19.8,12.6V320h-3.6v3.6Zm-10.8,0h3.6V320h-3.6Zm-7.2,0H735V320h-3.6Z" transform="translate(-726 -300.201)" fill="#fff"/>
    </g>
    <g id="Group_5630" data-name="Group 5630" transform="translate(24.68 17.578)">
      <g id="Group_5007" data-name="Group 5007" transform="translate(0 0)">
        <path id="Path_11167" data-name="Path 11167" d="M474.771,263.592a6.314,6.314,0,0,1,4.1-5.783,3.612,3.612,0,0,1,3.894,1.721,21.732,21.732,0,0,1,1.431,5.98,1.675,1.675,0,0,1-.538,1.354c-.549.589-1.118,1.164-1.716,1.7a1.213,1.213,0,0,0-.361,1.557,22.8,22.8,0,0,0,8.877,9.933,1.056,1.056,0,0,0,1.374-.117c.64-.534,1.284-1.066,1.953-1.564a1.854,1.854,0,0,1,1.65-.361,25.93,25.93,0,0,1,5.167,1.856,3.349,3.349,0,0,1,.971,5.268c-2.1,2.563-4.669,2.972-7.713,2.168-9.481-2.506-15.328-8.68-18.2-17.882A19.665,19.665,0,0,1,474.771,263.592Z" transform="translate(-474.77 -257.698)" fill="#fff"/>
      </g>
    </g>
  </g>
</svg>
