<svg xmlns="http://www.w3.org/2000/svg" xmlns:xlink="http://www.w3.org/1999/xlink" width="39" height="39" style=""><rect id="backgroundrect" width="100%" height="100%" x="0" y="0" fill="none" stroke="none"/>
  <defs>
    <linearGradient id="linear-gradient" y1="0.5" x2="1" y2="0.5" gradientUnits="objectBoundingBox">
      <stop offset="0" stop-color="#00a9ff"/>
      <stop offset="1" stop-color="#b371ff"/>
    </linearGradient>
  </defs>
  
<g class="currentLayer" style=""><title>Layer 1</title><g id="Group_5536" data-name="Group 5536" class="">
    <g id="Group_5535" data-name="Group 5535">
      <path id="Path_11164" data-name="Path 11164" d="M0.8750283813478745,37.58329391479492 a140.694,140.694 0 0 1 0,-28.55 a4.947,4.947 0 0 1 4.424,-4.424 a140.653,140.653 0 0 1 28.55,0 a4.947,4.947 0 0 1 4.424,4.424 a140.7,140.7 0 0 1 0,28.55 a4.947,4.947 0 0 1 -4.424,4.424 a140.653,140.653 0 0 1 -28.55,0 A4.947,4.947 0 0 1 0.8750283813478745,37.58329391479492 z" opacity="0" fill="url(#linear-gradient)"/>
      <path id="Path_11165" data-name="Path 11165" d="M0.726051574707526,33.70029367065399 a140.694,140.694 0 0 1 0,-28.55 a4.947,4.947 0 0 1 4.424,-4.424 a140.65,140.65 0 0 1 28.55,0 a4.946,4.946 0 0 1 4.424,4.424 a140.636,140.636 0 0 1 0,28.55 a4.946,4.946 0 0 1 -4.424,4.424 a140.7,140.7 0 0 1 -28.55,0 A4.947,4.947 0 0 1 0.726051574707526,33.70029367065399 z" fill="#0fa7e9"/>
      <g id="Group_5134" data-name="Group 5134">
        <path id="Path_11095" data-name="Path 11095" d="M10.091059532165673,25.21631389999402 c0.11100000000000007,0.020000000000000018 0.17300000000000001,-0.05400000000000006 0.24500000000000013,-0.1180000000000001 s0.131,-0.18300000000000013 0.257,-0.19300000000000017 h0 c-0.025000000000000026,0.15400000000000014 -0.171,0.21300000000000013 -0.256,0.32000000000000034 c-0.05200000000000005,0.06600000000000007 -0.15600000000000014,0.125 -0.06700000000000009,0.22000000000000014 s0.131,-0.03800000000000001 0.2,-0.06600000000000007 a0.7220000000000005,0.7220000000000005 0 0 1 0.08300000000000009,-0.025000000000000026 h0 c0,0.015000000000000015 0,0.03600000000000001 -0.008000000000000009,0.04300000000000005 c-0.2260000000000002,0.19300000000000017 -0.07100000000000002,0.3380000000000004 0.06300000000000007,0.48100000000000026 a1.827,1.827 0 0 0 1.4,0.6000000000000005 c0.42600000000000027,0 0.8510000000000005,-0.00600000000000001 1.2770000000000001,0 a0.981,0.981 0 0 0 0.549,-0.136 h0 c-0.008000000000000009,0.09100000000000014 0.025000000000000026,0.136 0.126,0.136 q6.421,0 12.843,0 a0.42600000000000027,0.42600000000000027 0 0 0 0.3090000000000003,-0.09200000000000014 a0.6060000000000005,0.6060000000000005 0 0 1 0.548,-0.0870000000000001 h0 c0.012000000000000009,0.11300000000000007 0.10900000000000007,0.11100000000000007 0.16800000000000023,0.0860000000000001 a3.1,3.1 0 0 0 0.6380000000000007,-0.24700000000000014 a0.3160000000000003,0.3160000000000003 0 0 0 0.0890000000000001,-0.41400000000000026 a0.28700000000000025,0.28700000000000025 0 0 0 -0.38700000000000034,-0.15900000000000014 c-0.16300000000000017,0.04900000000000004 -0.253,0.20600000000000004 -0.41700000000000026,0.24100000000000013 h0 a0.5900000000000005,0.5900000000000005 0 0 1 0.6260000000000006,-0.35600000000000026 l0.023000000000000034,0.01700000000000002 l-0.01700000000000002,-0.022000000000000033 a1.1400000000000001,1.1400000000000001 0 0 0 -0.05200000000000005,-0.14300000000000004 c-0.05900000000000005,-0.11400000000000009 0.008000000000000009,-0.125 0.09400000000000014,-0.12400000000000007 a0.992,0.992 0 0 0 0.3410000000000004,0.452 c0.07400000000000002,0.07400000000000002 0.126,0.027000000000000034 0.18500000000000014,-0.032000000000000035 s0.06600000000000007,-0.09400000000000014 0,-0.16000000000000017 c-0.22400000000000017,-0.21800000000000014 -0.20800000000000013,-0.21100000000000013 -0.011000000000000015,-0.44900000000000034 c0.12200000000000007,-0.14800000000000013 0.231,-0.008000000000000009 0.3430000000000004,-0.030000000000000034 a1.6820000000000008,1.6820000000000008 0 0 1 -0.22200000000000017,0.985 a2.873,2.873 0 0 1 -0.4410000000000003,0.6800000000000008 a2.9370000000000003,2.9370000000000003 0 0 1 -0.8540000000000005,0.6300000000000006 a2.293,2.293 0 0 1 -1.139,0.234 c-0.7000000000000005,-0.014000000000000009 -1.4,0 -2.107,-0.00600000000000001 a0.3070000000000003,0.3070000000000003 0 0 0 -0.3410000000000004,0.21800000000000014 a1.338,1.338 0 0 1 -0.5700000000000005,0.6380000000000007 a0.09000000000000012,0.09000000000000012 0 0 0 -0.04300000000000005,0.09400000000000014 a6.8,6.8 0 0 1 -1.85,0.6300000000000006 a6.978,6.978 0 0 1 -1.3,0.15400000000000014 a14.853,14.853 0 0 1 -2.035,-0.045000000000000054 a6.462,6.462 0 0 1 -2.427,-0.6800000000000008 a0.8570000000000005,0.8570000000000005 0 0 0 -0.16900000000000023,-0.05400000000000006 c-0.03400000000000004,-0.17 -0.20600000000000004,-0.2 -0.3120000000000003,-0.30000000000000027 a1.04,1.04 0 0 1 -0.32400000000000034,-0.46900000000000025 a0.234,0.234 0 0 0 -0.268,-0.18100000000000013 c-0.6550000000000007,0.020000000000000018 -1.311,-0.023000000000000034 -1.967,0.031000000000000034 a2.577,2.577 0 0 1 -1.9849999999999999,-0.6830000000000008 a2.436,2.436 0 0 1 -0.8300000000000005,-1.522 A0.39200000000000035,0.39200000000000035 0 0 1 10.091059532165673,25.21631389999402 z" fill="#fff"/>
        <path id="Path_11097" data-name="Path 11097" d="M11.997075157165455,26.475306331634783 c-1.032,0 -1.948,-0.8530000000000005 -1.948,-1.3920000000000001 c0,-1.8900000000000001 -0.04900000000000004,-5.736 0.048000000000000036,-6.584 a11.807,11.807 0 0 1 0.3380000000000004,-1.576 a1.964,1.964 0 0 0 0.15900000000000014,-0.6000000000000005 a2.1,2.1 0 0 0 0.25,-0.5 a9.217,9.217 0 0 1 1.7000000000000002,-2.6910000000000007 a9.362,9.362 0 0 1 2.213,-1.836 a9.264,9.264 0 0 1 4.451,-1.35 a9.545,9.545 0 0 1 8.356,4.129 a9.947,9.947 0 0 1 1.1,2.113 c0.02100000000000002,0.056000000000000036 0.03700000000000001,0.11500000000000009 0.1,0.138 a2.543,2.543 0 0 0 0.171,0.6430000000000007 a8.733,8.733 0 0 1 0.32700000000000035,2.378 a0.8810000000000006,0.8810000000000006 0 0 0 0.010000000000000009,0.134 a14.749,14.749 0 0 1 0.022000000000000033,1.745 c0,0.279 -0.008000000000000009,0.557 -0.012000000000000009,0.8350000000000005 q-0.009000000000000015,1.2650000000000001 -0.019000000000000017,2.529 c0,0.5790000000000005 -0.24400000000000013,1.8800000000000003 -2.476,1.8800000000000003 m0.271,-7.809 a0.14800000000000013,0.14800000000000013 0 0 0 0.045000000000000054,-0.16300000000000017 a9.436,9.436 0 0 0 -0.20900000000000013,-1.159 a7.8,7.8 0 0 0 -1.047,-2.318 a8.354,8.354 0 0 0 -1.381,-1.5630000000000002 a7.317,7.317 0 0 0 -4.437,-1.7510000000000003 a8.337,8.337 0 0 0 -1.5150000000000001,0.08000000000000007 a7.279,7.279 0 0 0 -2.6,0.929 a7.022,7.022 0 0 0 -1.621,1.315 a8.221,8.221 0 0 0 -1.3880000000000001,2.057 a7.4,7.4 0 0 0 -0.6300000000000006,2.057 c-0.033000000000000036,0.21000000000000013 -0.14200000000000004,0.43000000000000027 -0.024000000000000018,0.6500000000000007 l-0.015000000000000015,0.17700000000000013 c-0.05900000000000005,0.015000000000000015 -0.09300000000000014,0.039000000000000035 -0.029000000000000026,0.09200000000000014 c-0.07600000000000007,1.352 -0.020000000000000018,2.706 -0.039000000000000035,4.059 a1.6,1.6 0 0 0 0.5950000000000005,1.2730000000000001 a1.476,1.476 0 0 0 0.9590000000000005,0.29200000000000026 q5.923,-0.00700000000000001 11.846,0 c0.045000000000000054,0 0.09000000000000012,0 0.135,0 a1.529,1.529 0 0 0 1.443,-1.516 c-0.012000000000000009,-1.4 0.04300000000000005,-2.8 -0.03700000000000001,-4.194 c0.06200000000000006,-0.0880000000000001 0.09300000000000014,-0.17 -0.03800000000000001,-0.2260000000000002 z" fill="#fff"/>
        <path id="Path_11098" data-name="Path 11098" d="M29.287011680602518,22.06530266952541 c0,-0.278 0.010000000000000009,-0.557 0.012000000000000009,-0.8350000000000005 a14.724,14.724 0 0 0 -0.022000000000000033,-1.745 a0.8660000000000005,0.8660000000000005 0 0 1 -0.010000000000000009,-0.134 a8.725,8.725 0 0 0 -0.32700000000000035,-2.378 a2.557,2.557 0 0 1 -0.171,-0.6430000000000007 l0.38300000000000034,-0.008000000000000009 l0.7460000000000006,0.275 a4.1,4.1 0 0 1 0.8680000000000005,0.6920000000000008 a2.8440000000000003,2.8440000000000003 0 0 1 0.541,3 a2.67,2.67 0 0 1 -0.8170000000000005,1.171 A2.714,2.714 0 0 1 29.287011680602518,22.06530266952541 z" fill="#fff"/>
        <path id="Path_11099" data-name="Path 11099" d="M10.595052696227867,16.327301204681135 a1.956,1.956 0 0 1 -0.15900000000000014,0.6000000000000005 a11.789,11.789 0 0 0 -0.3380000000000004,1.576 c-0.135,1.182 -0.06600000000000007,2.369 -0.1,3.553 a2.6590000000000007,2.6590000000000007 0 0 1 -1.544,-1 a2.7880000000000003,2.7880000000000003 0 0 1 -0.5910000000000005,-2.318 a3.17,3.17 0 0 1 0.5,-1.206 a2.4,2.4 0 0 1 0.931,-0.8130000000000005 a0.27,0.27 0 0 0 0.127,-0.1170000000000001 c0.21700000000000014,-0.135 0.48600000000000027,-0.14200000000000004 0.7000000000000005,-0.28500000000000025 C10.279052696227154,16.385301204681127 10.438052696228624,16.32130120468173 10.595052696227867,16.327301204681135 z" fill="#fff"/>
        <path id="Path_11100" data-name="Path 11100" d="M10.12400386810259,16.313281917571658 c-0.21400000000000013,0.14300000000000004 -0.48300000000000026,0.15100000000000013 -0.7000000000000005,0.28500000000000025 q0,-3.5 0,-7 a1.6760000000000006,1.6760000000000006 0 0 0 0.7260000000000005,0 c0,0.6780000000000008 0.005000000000000005,1.357 0.005000000000000005,2.035 q0,2.186 0,4.372 A0.8840000000000007,0.8840000000000007 0 0 1 10.12400386810259,16.313281917571658 z" fill="#fff"/>
        <path id="Path_11101" data-name="Path 11101" d="M29.89707222747893,16.601288509368715 l-0.7460000000000006,-0.275 c0.005000000000000005,-0.30600000000000027 0.015000000000000015,-0.6120000000000005 0.014000000000000009,-0.918 q0,-2.274 -0.014000000000000009,-4.549 c0,-0.41800000000000026 0.040000000000000036,-0.8350000000000005 0,-1.2530000000000001 a1,1 0 0 0 0.5,0.027000000000000034 c0.1640000000000002,-0.055000000000000035 0.18900000000000014,0.028000000000000018 0.22100000000000014,0.139 a9.3,9.3 0 0 1 0.018000000000000016,1.05 Q29.896072227478726,13.708288509368685 29.89707222747893,16.601288509368715 z" fill="#fff"/>
        <path id="Path_11102" data-name="Path 11102" d="M29.878045860290513,9.767299861908214 c-0.033000000000000036,-0.11100000000000007 -0.05800000000000005,-0.19400000000000017 -0.22200000000000017,-0.139 a1,1 0 0 1 -0.5,-0.027000000000000034 c-0.16700000000000023,-0.16300000000000017 -0.38500000000000034,-0.257 -0.519,-0.47500000000000026 a0.9630000000000005,0.9630000000000005 0 0 1 -0.126,-0.7000000000000005 a1.061,1.061 0 0 1 1.423,-0.8 a1.081,1.081 0 0 1 0.6060000000000005,0.8270000000000005 a1.3450000000000002,1.3450000000000002 0 0 1 -0.15500000000000014,0.7500000000000006 a0.6220000000000006,0.6220000000000006 0 0 1 -0.279,0.24300000000000013 A0.32700000000000035,0.32700000000000035 0 0 0 29.878045860290513,9.767299861908214 z" fill="#fff"/>
        <path id="Path_11103" data-name="Path 11103" d="M10.143002891540164,9.596301448822487 a1.6750000000000007,1.6750000000000007 0 0 1 -0.7260000000000005,0 a1.331,1.331 0 0 0 -0.20600000000000004,-0.16900000000000023 a1,1 0 0 1 -0.24600000000000014,-1.433 a1.077,1.077 0 0 1 1.1600000000000001,-0.36600000000000027 a1.019,1.019 0 0 1 0.6750000000000008,0.9550000000000005 a0.972,0.972 0 0 1 -0.47500000000000026,0.8800000000000006 C10.266002891539756,9.506301448822342 10.208002891540673,9.552301448821709 10.143002891540164,9.596301448822487 z" fill="#fff"/>
        <path id="Path_11104" data-name="Path 11104" d="M27.06199214935259,18.665300472259332 a10.02,10.02 0 0 0 -0.44500000000000034,-1.565 a7.464,7.464 0 0 0 -3.672,-4 a7.149,7.149 0 0 0 -4.466,-0.6750000000000008 a7.289,7.289 0 0 0 -4.747,2.909 a7.486,7.486 0 0 0 -1.4460000000000002,3.3850000000000002 a0.32600000000000035,0.32600000000000035 0 0 1 -0.03600000000000001,0.08000000000000007 c-0.1170000000000001,-0.22000000000000014 -0.009000000000000015,-0.4390000000000003 0.024000000000000018,-0.6500000000000007 a7.4,7.4 0 0 1 0.6300000000000006,-2.057 a8.215,8.215 0 0 1 1.3880000000000001,-2.057 a7.025,7.025 0 0 1 1.621,-1.315 a7.284,7.284 0 0 1 2.6,-0.929 a8.336,8.336 0 0 1 1.5150000000000001,-0.08000000000000007 a7.318,7.318 0 0 1 4.437,1.7510000000000003 a8.359,8.359 0 0 1 1.381,1.5630000000000002 a7.792,7.792 0 0 1 1.047,2.318 a9.305,9.305 0 0 1 0.21000000000000013,1.159 A0.14800000000000013,0.14800000000000013 0 0 1 27.06199214935259,18.665300472259332 z" fill="#fff"/>
        <path id="Path_11105" data-name="Path 11105" d="M19.68198726654009,20.006301937102762 c0.7000000000000005,0 1.4,0 2.1,0 c0.24800000000000014,0 0.32800000000000035,0.08400000000000009 0.29300000000000026,0.3370000000000004 a2.334,2.334 0 0 1 -1.339,1.863 a2.439,2.439 0 0 1 -3.491,-1.771 c-0.055000000000000035,-0.32700000000000035 0.031000000000000034,-0.4330000000000003 0.35400000000000026,-0.4330000000000003 h2.081 z" fill="#013040"/>
        <path id="Path_11106" data-name="Path 11106" d="M16.350031211852183,18.672290706634158 a0.9,0.9 0 1 1 0.029000000000000026,-1.8 a0.9,0.9 0 1 1 -0.029000000000000026,1.8 z" fill="#013040"/>
        <path id="Path_11107" data-name="Path 11107" d="M23.227064414977576,18.670279964447218 a1.179,1.179 0 1 1 0.011000000000000015,-2.358 a1.179,1.179 0 0 1 -0.011000000000000015,2.358 z" fill="#013040"/>
      </g>
    </g>
    <path id="Path_11566" data-name="Path 11566" d="M31.89770220947321,22.66506771850618 l-3.2,-3.2 a4.716,4.716 0 1 0 -1.866,1.771 l3.25,3.251 zm-11.109,-5.6080000000000005 a3.858,3.858 0 1 1 3.858,3.858 A3.862,3.862 0 0 1 20.787702209472627,17.057067718506005 z" fill="#013040"/>
  </g></g></svg>