<svg xmlns="http://www.w3.org/2000/svg" xmlns:xlink="http://www.w3.org/1999/xlink" width="60" height="60" style=""><rect id="backgroundrect" width="100%" height="100%" x="0" y="0" fill="none" stroke="none"/>
  <defs>
    <linearGradient id="linear-gradient" x1="0.9449999928474426" y1="0.9449999928474426" x2="0.054999999701976776" y2="0.054999999701976776" gradientUnits="objectBoundingBox">
      <stop offset="0" stop-color="#00a9ff"/>
      <stop offset="1" stop-color="#b371ff"/>
    </linearGradient>
  </defs>
  
<g class="currentLayer" style=""><title>Layer 1</title><g id="Group_5037" data-name="Group 5037" class="">
    <path id="Path_11170" data-name="Path 11170" d="M1.3469875793457504,57.82094680786133 a216.471,216.471 0 0 1 0,-43.924 a7.611,7.611 0 0 1 6.806,-6.806 a216.463,216.463 0 0 1 43.924,0 a7.611,7.611 0 0 1 6.806,6.806 a216.471,216.471 0 0 1 0,43.924 a7.611,7.611 0 0 1 -6.806,6.806 a216.463,216.463 0 0 1 -43.924,0 A7.611,7.611 0 0 1 1.3469875793457504,57.82094680786133 z" opacity="0" fill="url(#linear-gradient)"/>
    <path id="Path_11171" data-name="Path 11171" d="M1.1169866027831858,51.845951324462874 a216.457,216.457 0 0 1 0,-43.923 a7.611,7.611 0 0 1 6.806,-6.806 a216.46,216.46 0 0 1 43.923,0 a7.61,7.61 0 0 1 6.806,6.806 a216.387,216.387 0 0 1 0,43.923 a7.609,7.609 0 0 1 -6.806,6.806 a216.387,216.387 0 0 1 -43.923,0 A7.61,7.61 0 0 1 1.1169866027831858,51.845951324462874 z" fill="#0fa7e9"/>
    <g id="Group_5012" data-name="Group 5012">
      <g id="Group_5011" data-name="Group 5011">
        <path id="Path_11172" data-name="Path 11172" d="M10.123011505126897,39.79696029663086 a1.749,1.749 0 0 1 -0.16600000000000015,-1.129 q-0.011000000000000012,-12 -0.005000000000000004,-24 c0,-2.993 1.505,-4.506 4.482,-4.507 q10.458,0 20.917,0 c2.858,0 4.393,1.52 4.4,4.373 q0.015000000000000012,7.5920000000000005 0,15.183 a3.916,3.916 0 0 1 -4.29,4.271 q-9.29,0.013000000000000012 -18.581,-0.012000000000000007 a2.1,2.1 0 0 0 -1.6680000000000001,0.6920000000000007 C13.548011505126965,36.39296029663086 11.8440115051269,38.06996029663088 10.123011505126897,39.79696029663086 z" fill="#fff"/>
        <path id="Path_11173" data-name="Path 11173" d="M49.53602175903325,49.73697152709963 c-1.6480000000000001,-1.657 -3.285,-3.247 -4.851,-4.9 a2.612,2.612 0 0 0 -2.116,-0.8930000000000005 c-6.087,0.04100000000000003 -12.174,0.024000000000000014 -18.262,0.020000000000000014 c-2.831,0 -4.377,-1.5510000000000002 -4.39,-4.388 c0,-0.8500000000000004 0.05900000000000004,-1.7000000000000002 -0.017000000000000015,-2.547 s0.27,-0.983 1.025,-0.978 c4.6720000000000015,0.03200000000000003 9.344,0.017000000000000015 14.015,0.016000000000000014 c4.534,0 6.876,-2.334 6.877,-6.845 c0,-2.725 0.027000000000000027,-5.451 -0.017000000000000015,-8.175 c-0.012000000000000007,-0.7560000000000004 0.2200000000000001,-0.992 0.9550000000000004,-0.935 a14,14 0 0 0 2.334,0 c2.922,-0.266 4.768,1.87 4.663,4.6930000000000005 c-0.14200000000000004,3.782 -0.035,7.572 -0.035,11.359 q0,6.211 -0.005000000000000004,12.422 A1.82,1.82 0 0 1 49.53602175903325,49.73697152709963 z" fill="#fff"/>
      </g>
    </g>
    <g id="Group_5014" data-name="Group 5014">
      <g id="Group_5013" data-name="Group 5013">
        <path id="Path_11174" data-name="Path 11174" d="M17.924018829345755,16.72695602416991 a3.449,3.449 0 0 1 2.238,-3.159 a1.9729999999999999,1.9729999999999999 0 0 1 2.127,0.9410000000000004 a11.861,11.861 0 0 1 0.782,3.266 a0.914,0.914 0 0 1 -0.2940000000000002,0.7400000000000004 c-0.3000000000000002,0.3220000000000003 -0.6110000000000004,0.6360000000000005 -0.937,0.931 a0.6630000000000007,0.6630000000000007 0 0 0 -0.2,0.8510000000000004 a12.45,12.45 0 0 0 4.849,5.425 a0.5770000000000004,0.5770000000000004 0 0 0 0.7500000000000004,-0.06400000000000006 c0.34900000000000037,-0.2920000000000002 0.7000000000000004,-0.5830000000000004 1.067,-0.8540000000000004 a1.014,1.014 0 0 1 0.9,-0.2 a14.166,14.166 0 0 1 2.822,1.014 a1.8290000000000002,1.8290000000000002 0 0 1 0.531,2.878 a3.7,3.7 0 0 1 -4.213,1.184 c-5.179,-1.368 -8.372,-4.741 -9.939,-9.767 A10.731,10.731 0 0 1 17.924018829345755,16.72695602416991 z"/>
      </g>
    </g>
  </g></g></svg>