<svg xmlns="http://www.w3.org/2000/svg" xmlns:xlink="http://www.w3.org/1999/xlink" width="60" height="60"><rect id="backgroundrect" width="100%" height="100%" x="0" y="0" fill="none" stroke="none"/>
  <defs>
    <linearGradient id="linear-gradient" x1="-0.029999999329447746" y1="0.8059999942779541" x2="1.0299999713897705" y2="0.1940000057220459" gradientUnits="objectBoundingBox">
      <stop offset="0" stop-color="#00a9ff"/>
      <stop offset="1" stop-color="#b371ff"/>
    </linearGradient>
  </defs>
  
<g class="currentLayer" style=""><title>Layer 1</title><g id="Group_5042" data-name="Group 5042" class="">
    <path id="Path_11175" data-name="Path 11175" d="M1.347928314208957,57.82037185668946 a216.45,216.45 0 0 1 0,-43.923 a7.61,7.61 0 0 1 6.806,-6.806 a216.386,216.386 0 0 1 43.923,0 a7.609,7.609 0 0 1 6.806,6.806 a216.379,216.379 0 0 1 0,43.923 a7.609,7.609 0 0 1 -6.806,6.806 a216.384,216.384 0 0 1 -43.923,0 A7.61,7.61 0 0 1 1.347928314208957,57.82037185668946 z" opacity="0" fill="url(#linear-gradient)"/>
    <path id="Path_11176" data-name="Path 11176" d="M1.1169273376465298,51.846368194580066 a216.468,216.468 0 0 1 0,-43.923 a7.61,7.61 0 0 1 6.806,-6.806 a216.384,216.384 0 0 1 43.923,0 a7.609,7.609 0 0 1 6.806,6.806 a216.4,216.4 0 0 1 0,43.923 a7.61,7.61 0 0 1 -6.806,6.806 a216.459,216.459 0 0 1 -43.923,0 A7.61,7.61 0 0 1 1.1169273376465298,51.846368194580066 z" fill="#0fa7e9"/>
    <line id="Line_303" data-name="Line 303" y2="45.29737186431885" fill="none" stroke="#fff" stroke-miterlimit="10" stroke-width="3" x2="30.115962982177734" y1="31.761371612548828" x1="30.115962982177734"/>
    <g id="cloud">
      <g id="Group_5015" data-name="Group 5015">
        <path id="Path_11177" data-name="Path 11177" d="M41.28294638061516,22.899377716064464 h-0.17 a4.938,4.938 0 0 0 0.3000000000000002,-1.788 a5.346,5.346 0 0 0 -5.323,-5.368 h-0.04500000000000004 a5.279,5.279 0 0 0 -2.684,0.7240000000000004 a8.015,8.015 0 0 0 -15.55,2.709 v0.018000000000000013 a7.817,7.817 0 0 0 0.34100000000000036,2.258 a6.1370000000000005,6.1370000000000005 0 0 0 -6.135,6.133 v1.063 a6.136,6.136 0 0 0 6.135,6.135 h23.176 a5.909,5.909 0 0 0 5.922,-5.9 v-0.02500000000000002 h0 A5.982,5.982 0 0 0 41.28294638061516,22.899377716064464 z" fill="#fff"/>
      </g>
    </g>
    <g id="Group_5017" data-name="Group 5017">
      <g id="Group_5016" data-name="Group 5016">
        <path id="Path_11178" data-name="Path 11178" d="M22.99389071655264,18.76336087036134 a3.449,3.449 0 0 1 2.238,-3.159 a1.9729999999999999,1.9729999999999999 0 0 1 2.127,0.9410000000000004 a11.863,11.863 0 0 1 0.782,3.266 a0.913,0.913 0 0 1 -0.2940000000000002,0.7390000000000004 c-0.3000000000000002,0.3220000000000003 -0.6110000000000004,0.6360000000000005 -0.937,0.931 a0.6630000000000007,0.6630000000000007 0 0 0 -0.2,0.8510000000000004 a12.45,12.45 0 0 0 4.849,5.425 a0.5770000000000004,0.5770000000000004 0 0 0 0.7500000000000004,-0.06400000000000006 c0.34900000000000037,-0.2920000000000002 0.7000000000000004,-0.5830000000000004 1.067,-0.8540000000000004 a1.014,1.014 0 0 1 0.9,-0.2 a14.17,14.17 0 0 1 2.822,1.014 a1.8290000000000002,1.8290000000000002 0 0 1 0.53,2.878 a3.7,3.7 0 0 1 -4.213,1.184 c-5.178,-1.368 -8.372,-4.741 -9.938,-9.767 A10.731,10.731 0 0 1 22.99389071655264,18.76336087036134 z"/>
      </g>
    </g>
    <circle id="Ellipse_260" data-name="Ellipse 260" cx="30.115944385528564" cy="46.14236497879028" r="2.36899995803833" fill="#fff"/>
    <line id="Line_304" data-name="Line 304" x1="45.00587272644043" fill="none" stroke="#fff" stroke-miterlimit="10" stroke-width="3" y2="45.96236038208008" x2="13.098873138427734" y1="45.96236038208008"/>
  </g></g></svg>