<svg xmlns="http://www.w3.org/2000/svg" width="60" height="60" style=""><rect id="backgroundrect" width="100%" height="100%" x="0" y="0" fill="none" stroke="none" class="" style=""/>
  
<g class="currentLayer" style=""><title>Layer 1</title><g id="Group_5034" data-name="Group 5034" class="">
    <path id="Path_11164" data-name="Path 11164" d="M1.3449653625488054,57.82135209655763 a216.457,216.457 0 0 1 0,-43.923 a7.61,7.61 0 0 1 6.806,-6.806 a216.4,216.4 0 0 1 43.924,0 a7.61,7.61 0 0 1 6.806,6.806 a216.475,216.475 0 0 1 0,43.923 a7.61,7.61 0 0 1 -6.806,6.806 a216.387,216.387 0 0 1 -43.924,0 A7.61,7.61 0 0 1 1.3449653625488054,57.82135209655763 z" fill="none"/>
    <path id="Path_11165" data-name="Path 11165" d="M1.1169714660644559,51.84635661315917 a216.457,216.457 0 0 1 0,-43.923 a7.61,7.61 0 0 1 6.806,-6.806 a216.382,216.382 0 0 1 43.923,0 a7.609,7.609 0 0 1 6.806,6.806 a216.378,216.378 0 0 1 0,43.923 a7.61,7.61 0 0 1 -6.806,6.806 a216.462,216.462 0 0 1 -43.923,0 A7.611,7.611 0 0 1 1.1169714660644559,51.84635661315917 z" fill="#0fa7e9"/>
    <g id="cloud">
      <g id="Group_5006" data-name="Group 5006">
        <path id="Path_11166" data-name="Path 11166" d="M44.34298538208009,33.93733482360841 h-0.2 a5.9,5.9 0 0 0 0.3570000000000002,-2.134 a6.382,6.382 0 0 0 -6.355,-6.408 h-0.05400000000000005 a6.3,6.3 0 0 0 -3.2,0.8650000000000004 a9.568,9.568 0 0 0 -18.564,3.233 V29.5123348236084 a9.351,9.351 0 0 0 0.4070000000000002,2.7 a7.3260000000000005,7.3260000000000005 0 0 0 -7.324,7.322 v1.2690000000000001 a7.325,7.325 0 0 0 7.324,7.324 h27.667 a7.054,7.054 0 0 0 7.069,-7.039 v-0.030000000000000027 h0 A7.141,7.141 0 0 0 44.34298538208009,33.93733482360841 z" fill="#fff"/>
      </g>
    </g>
    <g id="Group_5008" data-name="Group 5008">
      <g id="Group_5007" data-name="Group 5007">
        <path id="Path_11167" data-name="Path 11167" d="M16.405998321533218,19.75735801696777 a6.151,6.151 0 0 1 3.992,-5.634 a3.519,3.519 0 0 1 3.793,1.677 a21.171,21.171 0 0 1 1.3940000000000001,5.825 a1.6320000000000001,1.6320000000000001 0 0 1 -0.524,1.319 c-0.535,0.5740000000000004 -1.089,1.134 -1.6710000000000007,1.6600000000000001 a1.182,1.182 0 0 0 -0.3520000000000002,1.517 a22.21,22.21 0 0 0 8.648,9.677 a1.029,1.029 0 0 0 1.339,-0.11400000000000007 c0.6240000000000004,-0.52 1.251,-1.038 1.9,-1.5230000000000001 a1.806,1.806 0 0 1 1.608,-0.3510000000000002 a25.261,25.261 0 0 1 5.033,1.808 a3.263,3.263 0 0 1 0.9460000000000004,5.132 c-2.044,2.5 -4.549,2.9 -7.514,2.112 c-9.237,-2.441 -14.933,-8.456 -17.726,-17.421 A19.157,19.157 0 0 1 16.405998321533218,19.75735801696777 z"/>
      </g>
    </g>
  </g></g></svg>