<svg xmlns="http://www.w3.org/2000/svg" width="30" height="30" viewBox="0 0 30 30">
  <g id="Group_5637" data-name="Group 5637" transform="translate(-1839 -457)">
    <circle id="Ellipse_294" data-name="Ellipse 294" cx="15" cy="15" r="15" transform="translate(1839 457)" fill="#9c0"/>
    <g id="Group_5634" data-name="Group 5634" transform="translate(1846.68 463.578)">
      <g id="Group_5007" data-name="Group 5007" transform="translate(0 0)">
        <path id="Path_11167" data-name="Path 11167" d="M474.77,261.048a3.588,3.588,0,0,1,2.329-3.286,2.053,2.053,0,0,1,2.213.978,12.35,12.35,0,0,1,.813,3.4.952.952,0,0,1-.306.77c-.312.335-.635.661-.975.969a.689.689,0,0,0-.205.885,12.957,12.957,0,0,0,5.045,5.645.6.6,0,0,0,.781-.067c.364-.3.73-.606,1.11-.889a1.053,1.053,0,0,1,.938-.205,14.737,14.737,0,0,1,2.936,1.055A1.9,1.9,0,0,1,490,273.3a3.849,3.849,0,0,1-4.383,1.232c-5.388-1.424-8.711-4.933-10.341-10.163A11.176,11.176,0,0,1,474.77,261.048Z" transform="translate(-474.77 -257.698)" fill="#fff"/>
      </g>
    </g>
  </g>
</svg>
