<svg xmlns="http://www.w3.org/2000/svg" width="475.33" height="647.023" viewBox="0 0 475.33 647.023">
  <g id="Group_5026" data-name="Group 5026" transform="translate(218.828 19.95)">
    <path id="Path_10154" data-name="Path 10154" d="M.334,81.063A14.149,14.149,0,0,0,7.9,90.821,25.505,25.505,0,0,0,19.66,93.535c22.8,0,48.695-25.752,57.12-34.8A11.047,11.047,0,1,0,60.6,43.7C48.363,56.835,33.226,67.735,24.134,70.734c.238-.524.476-1.047.762-1.618,3.618-8.187,9.663-22.753,16.85-36.843A188,188,0,0,1,51.552,14.9s13.185,12.9,25.276,9,7.14-5.569,7.14-10.329A11.021,11.021,0,0,0,72.925,2.523,73.262,73.262,0,0,1,65.309,1.9L51.885.1H51.6A9.509,9.509,0,0,0,49.981,0h-.619a8.628,8.628,0,0,0-1.476.238c-.238.048-.428.1-.666.143-.476.143-.857.286-1.285.428-.286.143-.524.238-.762.333-.333.19-.714.428-1.047.666a7.747,7.747,0,0,0-.809.524c-.238.238-.524.476-.809.714-.286.286-.524.571-.809.857a2.073,2.073,0,0,1-.286.333c-5,6.474-9.52,12.614-13.661,18.374-2.951,4.141-5.664,8.14-8.14,11.9-1.19,1.809-2.332,3.522-3.38,5.236a9.474,9.474,0,0,0-.571.9q-2.927,4.641-5.284,8.854c-.857,1.523-1.666,3.046-2.428,4.474-1.523,2.9-2.808,5.617-3.9,8.14a64.587,64.587,0,0,0-2.475,6.854,3.1,3.1,0,0,0-.238.714C1.1,70.544.858,71.4.715,72.21c-.048.1-.1.19-.048.238a19.69,19.69,0,0,0-.428,2.19A17.889,17.889,0,0,0,.334,81.063Z" transform="translate(41.017 89.505) rotate(-11)" fill="#ffaf84"/>
    <g id="Group_4383" data-name="Group 4383" transform="translate(179.065 584.034)">
      <path id="Path_9713" data-name="Path 9713" d="M313.521,261.777l-3.644-28.168-13.247-1.97,6.4,29.448Z" transform="translate(-275.978 -231.64)" fill="#d6ddea"/>
      <path id="Path_9714" data-name="Path 9714" d="M316.929,238.28a4.44,4.44,0,0,0-2.314.985c-4.531,3.743-9.75,8.667-17.876,10.834-7.387,1.97-4.481,5.515,2.807,5.515,10.686,0,14.921-.394,19.7-.3s1.674.3,13.395.3c5.368,0,3.595-10.489.739-16.792a3.756,3.756,0,0,0-4.235-2.265Z" transform="translate(-292.436 -212.575)" fill="#293549"/>
    </g>
    <g id="Group_5028" data-name="Group 5028" transform="translate(84.478 46.001)">
      <rect id="Rectangle_2760" data-name="Rectangle 2760" width="53.001" height="31.92" rx="1" transform="matrix(0.829, -0.56, 0.56, 0.829, 0, 31.242)" fill="#0fa7e9"/>
      <rect id="Rectangle_2761" data-name="Rectangle 2761" width="53.001" height="22.678" rx="1" transform="matrix(0.829, -0.56, 0.56, 0.829, 9.133, 29.659)" fill="#fff"/>
      <ellipse id="Ellipse_261" data-name="Ellipse 261" cx="1.981" cy="3.301" rx="1.981" ry="3.301" transform="matrix(0.819, -0.574, 0.574, 0.819, 9.928, 40.552)" fill="#fff"/>
    </g>
    <g id="Group_4384" data-name="Group 4384" transform="translate(113.678 584.034)">
      <path id="Path_9715" data-name="Path 9715" d="M302.021,261.777l-3.644-28.168-13.247-1.97,6.4,29.448Z" transform="translate(-255.722 -231.64)" fill="#d6ddea"/>
      <path id="Path_9716" data-name="Path 9716" d="M312.407,238.277a4.439,4.439,0,0,0-2.314.985c-4.531,3.742-18.319,10.489-25.41,11.523-7.584,1.083-7.978,4.826,2.708,4.826s18.516-.936,23.243-.837c4.777.1,3.5.837,15.216.837,8.963,0,6.156-11.474,2.955-16.792-.985-1.625-2.314-2.561-4.235-2.265Z" transform="translate(-279.158 -212.571)" fill="#293549"/>
    </g>
    <path id="Path_9717" data-name="Path 9717" d="M294.79,119.175C280.066,111.3,277.8,140.1,282.529,149.509c5.121,10.144,20.141,18.959,24.277,10.735C312.223,149.559,314.636,129.812,294.79,119.175Z" transform="translate(-160.962 -94.261)" fill="#013040"/>
    <path id="Path_9718" data-name="Path 9718" d="M323.677,153.186c.049,9.652-1.182,21.618-6.549,30.137-6.7,10.686-8.027,12.8-8.125,13a12.97,12.97,0,0,1-11.178,6.3,13.314,13.314,0,0,1-6.7-1.822,13.041,13.041,0,0,1-4.481-17.826s1.083-1.822,8.47-13.542c1.33-2.167,2.118-6.353,2.364-11.228a83.516,83.516,0,0,0-.739-16.5,13.02,13.02,0,0,1,25.755-3.841A107.365,107.365,0,0,1,323.677,153.186Z" transform="translate(-143.264 -59.084)" fill="#ffaf84"/>
    <path id="Path_9719" data-name="Path 9719" d="M386.028,144.785c-6.451,36.933-19.008,129.759-16.3,167.086H277.05s5.565-137.49,14.379-171.026a9.121,9.121,0,0,1,8.864-6.8h76.723A9.157,9.157,0,0,1,386.028,144.785Z" transform="translate(-173.754 -30.591)" fill="#0fa7e9"/>
    <path id="Path_9720" data-name="Path 9720" d="M366.018,230.484S377.3,209.8,370.056,170.16H277.378s-1.33,30.187.788,60.324Z" transform="translate(-174.082 111.12)" fill="#006ca2"/>
    <g id="Group_4385" data-name="Group 4385" transform="translate(103.923 317.473)">
      <path id="Path_9721" data-name="Path 9721" d="M337.225,330.858c-5.121-33.979-7.879-144.581-7.928-145.566-.394-10.243-12.607-8.175-22.5-6.008-11.819,2.511-19.895,8.125-19.5,18.319.148,4.087,7.879,102.822,13.3,138.77,3.89,25.9,18.959,91.3,33.437,129.463l17.826-2.118C347.123,433.335,341.164,356.76,337.225,330.858Z" transform="translate(-237.54 -177.51)" fill="#006ca2"/>
      <path id="Path_9722" data-name="Path 9722" d="M320.772,193.6c-.394-10.243-15.611-15.955-25.8-15.512a18.54,18.54,0,0,0-17.777,19.255c.148,4.087,4.137,100.9,9.553,136.9,3.89,25.9,22.308,100.064,30.925,131.482l16.94-2.118c-3.989-44.074-11.129-107.845-14.182-135.816C316.784,293.616,320.822,194.586,320.772,193.6Z" transform="translate(-277.177 -175.33)" fill="#006ca2"/>
    </g>
    <path id="Path_9723" data-name="Path 9723" d="M314.286,153.186a40.974,40.974,0,0,1-20.436,5.417,44.088,44.088,0,0,1-5.762-.394,83.514,83.514,0,0,0-.739-16.5,13.02,13.02,0,0,1,25.755-3.841A107.283,107.283,0,0,1,314.286,153.186Z" transform="translate(-133.873 -59.084)" fill="#ed8c62"/>
    <path id="Path_9724" data-name="Path 9724" d="M281,156.7c0,22.849,13.838,41.414,33.88,41.414,24.918,0,45.748-18.516,45.748-41.414a41.413,41.413,0,0,0-41.414-41.415C296.364,115.29,281,133.855,281,156.7Z" transform="translate(-158.252 -104.214)" fill="#ffaf84"/>
    <path id="Path_9725" data-name="Path 9725" d="M365.261,227.743c.246-9.159-6.4-32.5-18.91-51.854-8.47-13.148-17.777-26.346-25.115-36.391a11.032,11.032,0,0,0-17.826,13c8.273,11.326,16.94,23.884,24.327,35.308,10.243,15.857,15.512,28.857,16.743,33.929-7.83,9.159-18.417,26.937-47.225,52.593a5.41,5.41,0,0,0-.493.542,10.289,10.289,0,0,0-.985,1.083,3.678,3.678,0,0,0-.345.591,10.866,10.866,0,0,0-.739,1.28l-.3.739a13.135,13.135,0,0,0-.443,1.28,5.318,5.318,0,0,0-.148.936c-.049.394-.148.739-.2,1.133v1.083a7.25,7.25,0,0,0,.049,1.034,9.344,9.344,0,0,0,.246,1.133,5.205,5.205,0,0,0,.246.936,9.312,9.312,0,0,0,.443,1.034,5.493,5.493,0,0,0,1.034,1.822l.591.886c1.428,1.674,3.841,7.042,13.2,10A22.619,22.619,0,0,0,320,299.787c7.337-1.871,5.762-3,7.387-7.534,2.019-5.762-.541-5.023-6.2-7.239-2.216-.886-3.4-4.038-7.387-5.614C361.222,235.376,365.162,231.535,365.261,227.743Z" transform="translate(-108.765 -26.83)" fill="#ffaf84"/>
    <path id="Path_9727" data-name="Path 9727" d="M311.9,119.115c-12.262-11.277-21.667,16.054-19.4,26.3,2.413,11.08,14.773,23.342,20.88,16.448C321.209,152.9,328.448,134.381,311.9,119.115Z" transform="translate(-114.45 -99.716)" fill="#013040"/>
    <path id="Path_9728" data-name="Path 9728" d="M351.989,139.671c-10.095,7.19-64.682,4.593-68.442,0s-5.331-12.908,3.422-27.784c0,0-1.814,21.224,15.038,9.76s35.013-11.425,50.131,1.576C367.206,136.323,351.989,139.671,351.989,139.671Z" transform="translate(-162.811 -113.477)" fill="#013040"/>
    <path id="Path_9729" data-name="Path 9729" d="M310.339,137.385a14.712,14.712,0,0,1-7.288,10.046c-4.284,2.413-9.356-1.527-8.421-6.3l2.561-13.05c.936-4.826,7.141-6.5,10.194-2.708A14.607,14.607,0,0,1,310.339,137.385Z" transform="translate(-105.205 -72.829)" fill="#ffaf84"/>
    <path id="Path_9731" data-name="Path 9731" d="M285.367,134.05c-2.314,8.076,5.318,12.8,18.664,10.932a65.2,65.2,0,0,0,26.986-10.932Z" transform="translate(-142.672 -30.591)" fill="#ffaf84"/>
    <path id="Path_9732" data-name="Path 9732" d="M340.232,175.889l-18.614,11.917c-7.387-11.425-16.054-23.982-24.327-35.308a11.032,11.032,0,0,1,17.826-13C322.455,149.543,331.762,162.741,340.232,175.889Z" transform="translate(-102.647 -26.83)" fill="#ed8c62"/>
    <path id="Path_9733" data-name="Path 9733" d="M297.075,158.167c7.485,10.637,15.118,21.914,22.5,32.944l25.8-16.6c-8.963-13.3-17.285-25.41-23.293-33.929a15.288,15.288,0,1,0-25.016,17.58Z" transform="translate(-106.124 -30.579)" fill="#0fa7e9"/>
    <path id="Path_9734" data-name="Path 9734" d="M318.6,152.849q-15.66,19.8-28.365,32.945L274.18,170.38c8.519-8.815,18.171-19.845,27.134-31.172A11.01,11.01,0,1,1,318.6,152.849Z" transform="translate(-185.017 -26.836)" fill="#ed8c62"/>
    <path id="Path_9735" data-name="Path 9735" d="M324.274,160.394c-9.406,8.962-19.107,18.565-28.463,27.971L273.7,167.091c11.375-11.326,21.914-21.569,29.448-28.759a15.273,15.273,0,1,1,21.126,22.062Z" transform="translate(-186.9 -30.54)" fill="#0fa7e9"/>
    <text id="Logo" transform="translate(153.04 162.074)" fill="#fff" font-size="25" font-family="OpenSans-Bold, Open Sans" letter-spacing="-0.02em" font-weight="700"><tspan x="-29.413" y="0">MCN</tspan><tspan font-size="16" font-family="OpenSans, Open Sans" font-weight="400"><tspan x="-28.946" y="16">telecom</tspan></tspan></text>
  </g>
</svg>
