<svg xmlns="http://www.w3.org/2000/svg" xmlns:xlink="http://www.w3.org/1999/xlink" width="392" height="415"><rect id="backgroundrect" width="100%" height="100%" x="0" y="0" fill="none" stroke="none"/>
  <defs>
    <linearGradient id="linear-gradient" x1="0.5" y1="1" x2="0.5" gradientUnits="objectBoundingBox">
      <stop offset="0" stop-color="#00a9ff"/>
      <stop offset="1" stop-color="#b371ff"/>
    </linearGradient>
  </defs>
  
<g class="currentLayer" style=""><title>Layer 1</title><g id="Group_5452" data-name="Group 5452" class="">
    <g id="Group_4903" data-name="Group 4903">
      <g id="Group_4901" data-name="Group 4901">
        <g id="Group_4900" data-name="Group 4900">
          <g id="Group_4895" data-name="Group 4895" transform="rotate(-20 193.79759216308588,100.39257812500001) ">
            <path id="Path_10951" data-name="Path 10951" d="M333.146576606948,134.31455841493607 l-49.6,144.294 a4.655,4.655 0 0 1 -5.917,2.8890000000000002 l-80.687,-27.739 a4.655,4.655 0 0 1 -2.8890000000000002,-5.917 l49.6,-144.294 a4.668,4.668 0 0 1 5.921,-2.9 l80.68900000000001,27.739 A4.667,4.667 0 0 1 333.146576606948,134.31455841493607 z" fill="#c7d8e2"/>
            <path id="Path_10952" data-name="Path 10952" d="M336.7805936967916,135.55855695009222 L287.1745936967918,279.8585569500923 a4.654,4.654 0 0 1 -5.915,2.8890000000000002 l-80.687,-27.739 a4.6560000000000015,4.6560000000000015 0 0 1 -2.89,-5.917 l49.6,-144.294 a4.6690000000000005,4.6690000000000005 0 0 1 5.923,-2.9 l80.688,27.739 A4.668,4.668 0 0 1 336.7805936967916,135.55855695009222 z" fill="#dce8ef"/>
            <path id="Path_10953" data-name="Path 10953" d="M326.5125678178854,138.89556891298298 l-18.854,54.809 l0,0.017000000000000032 l-15.366,44.742 l0,0.019000000000000024 l-7,20.319 l-1.6440000000000001,4.793 a2.508,2.508 0 0 1 -3.2,1.561 l-38.542,-13.258 L212.0445678178853,241.6395689129829 a2.52,2.52 0 0 1 -1.578,-3.2 l18.3,-53.231 L253.33756781788543,113.73956891298303 a2.511,2.511 0 0 1 3.053,-1.61 a0.4740000000000003,0.4740000000000003 0 0 1 0.16200000000000025,0.05500000000000005 l11.651,4.009 l25.94,8.925 l30.79,10.582 A2.508,2.508 0 0 1 326.5125678178854,138.89556891298298 z" fill="#f0f7f7"/>
            <g id="Group_4893" data-name="Group 4893">
              <path id="Path_10954" data-name="Path 10954" d="M242.2175930559224,265.08957269716257 h0 A4.382,4.382 0 0 1 239.49859305592258,259.5215726971626 h0 a4.381,4.381 0 0 1 5.566,-2.7190000000000003 h0 a4.382,4.382 0 0 1 2.7190000000000003,5.568 h0 A4.38,4.38 0 0 1 242.2175930559224,265.08957269716257 z" fill="#c7d8e2"/>
            </g>
            <g id="Group_4894" data-name="Group 4894">
              <path id="Path_10955" data-name="Path 10955" d="M261.99961707325656,111.37455902910233 h0 a1.782,1.782 0 0 1 -1.1,-2.263 h0 a1.782,1.782 0 0 1 2.263,-1.1 h0 a1.782,1.782 0 0 1 1.1,2.263 h0 A1.782,1.782 0 0 1 261.99961707325656,111.37455902910233 z" fill="#c7d8e2"/>
            </g>
            <path id="Path_10956" data-name="Path 10956" d="M307.65956049366673,193.70256476259237 l0,0.018000000000000023 L292.29256049366677,238.46256476259236 L268.2035604936668,116.1915647625924 l25.94,8.924 z" fill="#fff" opacity="0.3"/>
          </g>
          <circle id="Ellipse_225" data-name="Ellipse 225" cx="23.95258903503418" cy="196.58656311035156" r="13.152999877929688" fill="#c4cbd6"/>
          <g id="Group_4898" data-name="Group 4898">
            <path id="Path_10964" data-name="Path 10964" d="M34.69857618351648,123.61355695009229 l-17.351,33.982 a3.829,3.829 0 0 0 1.669,5.15 l65.455,33.422 a3.8280000000000003,3.8280000000000003 0 0 0 5.148,-1.669 l17.353,-33.982 a3.831,3.831 0 0 0 -1.6710000000000007,-5.15 l-65.455,-33.422 a3.831,3.831 0 0 0 -5.148,1.669 z" fill="#c3c3c3"/>
            <path id="Path_10965" data-name="Path 10965" d="M37.10556592961029,121.66255695009227 l16.382,36.13 a13.343,13.343 0 0 0 14.783,7.546 l38.872,-7.914 a3.8440000000000003,3.8440000000000003 0 0 0 -1.84,-2.057 L39.84256592961026,121.9455569500924 A3.851,3.851 0 0 0 37.10556592961029,121.66255695009227 z" fill="#9d9d9d"/>
          </g>
          <g id="Group_4899" data-name="Group 4899">
            <path id="Path_10966" data-name="Path 10966" d="M79.43256287403779,100.08256374025336 l10.42,24.486 a2.669,2.669 0 0 0 3.5,1.412 L140.52156287403773,105.90856374025338 a2.67,2.67 0 0 0 1.411,-3.5 l-10.42,-24.486 a2.6740000000000004,2.6740000000000004 0 0 0 -3.5,-1.4100000000000001 l-47.165,20.072 a2.668,2.668 0 0 0 -1.411,3.5 z" fill="#bfe2ef"/>
            <path id="Path_10967" data-name="Path 10967" d="M79.46257654591273,97.92156374025353 l26.662,7.4 a9.3,9.3 0 0 0 10.652000000000001,-4.533 L129.9355765459128,76.44456374025344 a2.693,2.693 0 0 0 -1.923,0.0640000000000001 l-47.164,20.072 A2.684,2.684 0 0 0 79.46257654591273,97.92156374025353 z" fill="#89c7e8"/>
          </g>
          <path id="Path_10968" data-name="Path 10968" d="M120.23157843800266,141.66055798769003 H117.8015784380026 v2.4290000000000003 a1.987,1.987 0 1 1 -3.975,0 V141.66055798769003 H111.40157843800262 a1.988,1.988 0 0 1 0,-3.977 h2.431 v-2.427 a1.987,1.987 0 1 1 3.975,0 v2.427 h2.427 a1.988,1.988 0 1 1 0,3.977 z" fill="#b5b5b5"/>
          <g id="Group_5036" data-name="Group 5036">
            <path id="Path_11168" data-name="Path 11168" d="M281.1876001665182,196.4135578351021 a329.225,329.225 0 0 1 0,-66.808 a11.575,11.575 0 0 1 10.353,-10.353 a329.129,329.129 0 0 1 66.809,0 a11.575,11.575 0 0 1 10.353,10.353 a329.242,329.242 0 0 1 0,66.808 a11.576,11.576 0 0 1 -10.353,10.353 a329.134,329.134 0 0 1 -66.809,0 A11.576,11.576 0 0 1 281.1876001665182,196.4135578351021 z" opacity="0" fill="url(#linear-gradient)"/>
            <path id="Path_11169" data-name="Path 11169" d="M280.8385806352683,187.32656283998494 a329.26,329.26 0 0 1 0,-66.808 a11.575,11.575 0 0 1 10.353,-10.353 a329.129,329.129 0 0 1 66.809,0 a11.574,11.574 0 0 1 10.352,10.353 a329.119,329.119 0 0 1 0,66.808 a11.575,11.575 0 0 1 -10.352,10.353 a329.235,329.235 0 0 1 -66.809,0 A11.576,11.576 0 0 1 280.8385806352683,187.32656283998494 z" fill="#0fa7e9"/>
            <g id="Group_5009" data-name="Group 5009">
              <circle id="Ellipse_249" data-name="Ellipse 249" cx="306.006591796875" cy="130.52456665039062" r="6.796999931335449" fill="#fff"/>
              <circle id="Ellipse_250" data-name="Ellipse 250" cx="325.8555908203125" cy="130.52456665039062" r="6.796999931335449" fill="#fff"/>
              <circle id="Ellipse_251" data-name="Ellipse 251" cx="344.79058837890625" cy="130.52456665039062" r="6.796999931335449" fill="#fff"/>
              <circle id="Ellipse_252" data-name="Ellipse 252" cx="306.006591796875" cy="146.22056579589844" r="6.796999931335449" fill="#fff"/>
              <circle id="Ellipse_253" data-name="Ellipse 253" cx="325.8555908203125" cy="146.22056579589844" r="6.796999931335449" fill="#fff"/>
              <circle id="Ellipse_254" data-name="Ellipse 254" cx="344.79058837890625" cy="146.22056579589844" r="6.796999931335449" fill="#fff"/>
              <circle id="Ellipse_255" data-name="Ellipse 255" cx="306.006591796875" cy="161.91555786132812" r="6.796999931335449" fill="#fff"/>
              <circle id="Ellipse_256" data-name="Ellipse 256" cx="325.8555908203125" cy="161.91555786132812" r="6.796999931335449" fill="#fff"/>
              <circle id="Ellipse_257" data-name="Ellipse 257" cx="344.79058837890625" cy="161.91555786132812" r="6.796999931335449" fill="#fff"/>
              <circle id="Ellipse_258" data-name="Ellipse 258" cx="325.6905822753906" cy="177.43556213378906" r="6.796999931335449" fill="#fff"/>
            </g>
          </g>
        </g>
        <path id="Path_10969" data-name="Path 10969" d="M32.064558532912315,388.47256146669383 a32.9,32.9 0 1 1 32.909,-32.9 A32.935,32.935 0 0 1 32.064558532912315,388.47256146669383 zm0,-52.612 a19.708,19.708 0 1 0 19.716,19.708 A19.728,19.728 0 0 0 32.064558532912315,335.8575614666938 z" fill="#f0f6f7"/>
      </g>
      <g id="Group_4902" data-name="Group 4902">
        <path id="Path_10970" data-name="Path 10970" d="M148.3196042177267,281.14156842470175 c33.822,-26.6 33.335,-79.629 -16.386,-79.518 c-15.837,0.03800000000000001 -32.389,9.649000000000001 -41.934,24.773 c-14.679,23.234 -53.387,7.855 -38.728,-25.325 c16.5,-32.449 48.513,-45.413 80.557,-45.486 c87.288,-0.2 122.115,89.591 52.29,157.887 c-26.834,22.895 -45.221,36.2 -71.336,51.724 c16.207,-0.03600000000000001 35.723,-2.289 51.927,-2.325 l42.724,-0.1 c28.359,-0.06400000000000008 32.151,47.44 0.10700000000000008,47.511 l-142.9,0.3240000000000004 c-22.834,0.05100000000000006 -32.093,-22.026 -16.293,-38.634 C81.41160421772679,336.5385684247017 112.6656042177267,313.6335684247017 148.3196042177267,281.14156842470175 z" fill="#bfe2ef"/>
      </g>
      <path id="Path_10973" data-name="Path 10973" d="M223.99056829853726,239.26656946229934 c0,26.031 -11.755,49.124 -29.874,63.492 L161.40356829853727,164.6055694622994 a14.869,14.869 0 0 1 -0.4,-3.407 h0 C196.61656829853723,166.67056946229923 223.99056829853726,199.5385694622994 223.99056829853726,239.26656946229934 z" fill="#89c7e8"/>
    </g>
    <text id="_5" data-name="5" transform="rotate(38.590999603271484 303.0466003417968,317.1124877929687) " fill="#bfe2ef" font-size="58" font-family="SegoeUI, Segoe UI" y="317.1125105023384" x="303.04659320088103"><tspan x="303.04659320088103" y="317.1125105023384" id="svg_1">5</tspan></text>
    <text id="_3" data-name="3" transform="rotate(-33 164.73153686523435,73.16059875488283) " fill="#cee8ef" font-size="93" font-family="SegoeUI, Segoe UI" y="73.16060620546341" x="164.73152972431853"><tspan x="164.73152972431853" y="73.16060620546341" id="svg_2">3</tspan></text>
    <text id="_1" data-name="1" transform="rotate(14.10200023651123 103.7945785522464,261.9795532226562) " fill="#bfe2ef" font-size="53" font-family="SegoeUI, Segoe UI" y="261.9795759320259" x="103.79457904072478"><tspan x="103.79457904072478" y="261.9795759320259" id="svg_3">1</tspan></text>
    <text id="_9" data-name="9" transform="rotate(38.590999603271484 242.98751831054688,35.71651077270507) " fill="#bfe2ef" font-size="49" font-family="SegoeUI, Segoe UI" y="35.71651440858841" x="242.98751116963103"><tspan x="242.98751116963103" y="35.71651440858841" id="svg_4">9</tspan></text>
    <text id="_6" data-name="6" transform="rotate(-33 55.90956878662121,320.1055297851563) " fill="#d6ddea" font-size="67" font-family="SegoeUI, Segoe UI" y="320.1055524945259" x="55.909569275099784"><tspan x="55.909569275099784" y="320.1055524945259" id="svg_5">6</tspan></text>
    <g id="Group_5451" data-name="Group 5451">
      <g id="Group_5450" data-name="Group 5450">
        <path id="Path_10983" data-name="Path 10983" d="M260.30599323887543,169.52616161607762 c-3.7431900000000002,-7.487375 -9.444540000000002,-18.56471 -13.389715,-25.67896 c-2.2079050000000002,-3.98 -4.665555,-3.55016 -7.6435900000000006,-2.4218300000000004 s-3.62777,4.942165 -2.313375,7.495335000000001 c3.622795,7.031665 8.78983,16.289144999999998 12.16089,22.575555 C253.9336032388754,179.4424916160774 264.5760432388754,176.2116816160776 260.30599323887543,169.52616161607762 z" fill="#ffaf84" stroke-width="0"/>
      </g>
      <path id="Path_10592" data-name="Path 10592" d="M252.21806085713115,104.60425723671392 c5.312999999999998,7.545425999999998 -8.521085999999997,22.76475599999999 -1.3862099999999997,27.58992599999999 c9.726653999999996,6.568799999999998 -7.878695999999997,14.962373999999997 -20.890715999999994,12.011243999999996 C203.80298785713126,130.0538352367139 225.60368985713126,100.54688923671392 233.6715398571314,95.89058723671383 S249.1997588571312,96.366741236714 252.21806085713115,104.60425723671392 z" fill="#013040"/>
      <path id="Path_10593" data-name="Path 10593" d="M215.07350921650595,155.97251538515093 c3.985,6.323 4.7,7.519 4.756,7.6 a4.6290000000000004,4.6290000000000004 0 1 0 7.944,-4.756 s-0.6110000000000005,-1.036 -4.862,-7.784 c-1.6740000000000008,-2.657 -1.9929999999999999,-8 -1.807,-12.487 a45.321,45.321 0 0 1 0.452,-5.526 a4.646,4.646 0 0 0 -9.193,-1.355 c-0.08000000000000007,0.47800000000000026 -0.29200000000000026,2.1 -0.452,4.331 C211.53950921650608,141.3875153851509 211.53950921650608,150.39351538515098 215.07350921650595,155.97251538515093 z" fill="#ffaf84"/>
      <path id="Path_10594" data-name="Path 10594" d="M190.5635316774435,406.61557788515097 l5.632,1.435 c4.995,-24.336 18.73,-65.756 21.865,-86.559 c1.275,-8.475 4.623,-22.237 5.128,-36.372 c0.027000000000000034,-0.5 0.027000000000000034,-1.01 0.053000000000000054,-1.514 c0.6640000000000008,-20.112 0.7440000000000005,-39.453 0.7440000000000005,-40.835 c0,-4.3 -6.031,-8.369 -10.362,-8.369 a7.864,7.864 0 0 0 -7.838,7.811 c-0.027000000000000034,0.3450000000000004 -0.10600000000000002,19.953 -0.77,40.091 c-0.027000000000000034,0.452 -0.027000000000000034,0.8770000000000006 -0.053000000000000054,1.3 c-0.452,13.789 -0.6110000000000005,27.737000000000002 -2.391,35.548 C197.04653167744345,343.35657788515095 192.90153167744347,378.0545778851508 190.5635316774435,406.61557788515097 z" fill="#ffaf84"/>
      <path id="Path_10595" data-name="Path 10595" d="M224.05452581806867,406.6155495648384 l6.483,0.3720000000000003 c0.10600000000000002,-0.6380000000000007 10.176,-65.224 13.257,-85.5 c1.222,-8.1 2.311,-21.626 3.188,-35.229 c0.027000000000000034,-0.3450000000000004 0.053000000000000054,-0.6640000000000008 0.08000000000000007,-1.01 c1.328,-20.723 2.179,-41.287 2.232,-42.721000000000004 a7.834,7.834 0 0 0 -7.519,-8.13 c-4.357,-0.15900000000000014 -10.229,2.79 -10.415,7.12 c-0.027000000000000034,0.3450000000000004 -0.558,21.892 -1.8330000000000002,42.509 c-0.027000000000000034,0.7440000000000005 -0.08000000000000007,1.488 -0.133,2.232 c-0.8500000000000005,13.231 0.558,25.372 -1.089,32.891 C223.0715258180685,343.0375495648384 224.5325258180685,361.44954956483843 224.05452581806867,406.6155495648384 z" fill="#ffaf84"/>
      <path id="Path_10597" data-name="Path 10597" d="M211.872534607131,135.99351538515089 A23.808,23.808 0 0 0 221.06153460713108,138.54251538515086 a45.321,45.321 0 0 1 0.452,-5.526 a4.646,4.646 0 0 0 -9.193,-1.355 C212.24453460713107,132.142515385151 212.03253460713108,133.7625153851509 211.872534607131,135.99351538515089 z" fill="#ed8c62"/>
      <path id="Path_10598" data-name="Path 10598" d="M246.08180385713126,118.06386323671336 c-1.6682819999999996,11.881799999999997 -7.878695999999997,24.38183999999999 -18.041981999999994,24.14999999999999 c-14.577905999999995,-0.33327000000000034 -26.203715999999993,-11.369819999999995 -26.203715999999993,-24.14999999999999 A23.15501999999999,23.15501999999999 0 0 1 231.19200585713133,89.2583382367136 C243.97315185713137,92.6851672367136 251.25256385713146,105.8610852367135 246.08180385713126,118.06386323671336 z" fill="#ffaf84"/>
      <path id="Path_10599" data-name="Path 10599" d="M231.39961077900603,241.52154956483832 c-0.027000000000000034,0.3450000000000004 -0.558,21.892 -1.8330000000000002,42.509 l17.535,1.222 c1.328,-20.723 2.179,-41.287 2.232,-42.721000000000004 a7.834,7.834 0 0 0 -7.519,-8.13 C237.45761077900602,234.24154956483835 231.58961077900608,237.19054956483842 231.39961077900603,241.52154956483832 z" fill="#de966b"/>
      <path id="Path_10600" data-name="Path 10600" d="M205.161554138381,282.30357788515084 l18.226,1.3 c0.6640000000000008,-20.112 0.7440000000000005,-39.453 0.7440000000000005,-40.835 c0,-4.3 -6.031,-8.369 -10.362,-8.369 A7.864,7.864 0 0 0 205.931554138381,242.21257788515095 C205.90555413838092,242.55757788515098 205.825554138381,262.191577885151 205.161554138381,282.30357788515084 z" fill="#de966b"/>
      <path id="Path_10601" data-name="Path 10601" d="M196.51362640400612,148.1086042523384 c0.10600000000000002,0.6640000000000008 0.23900000000000013,1.355 0.3720000000000003,2.046 c1.913,10.627 4.6,22.636 6.562,34.618 q0.558,3.348 1.036,6.7 C205.83962640400614,201.0086042523385 206.55562640400603,210.33160425233837 205.9456264040059,218.7536042523384 c-9.511,30.766000000000002 -1.249,59.7 -1.249,59.7 l43.6,1.8330000000000002 c2.179,-9.272 2.9,-61.531 2.9,-61.531 s-1.594,-26.037 -4.251,-48.354 a12.225,12.225 0 0 0 1.939,-6.615 a11.97,11.97 0 0 0 -2.444,-7.306 a14.371,14.371 0 0 1 -2.471,-5.818 c-0.3450000000000004,-1.78 -0.7170000000000005,-3.4 -1.116,-4.809 a5.242,5.242 0 0 0 -5.128,-3.932 H201.74762640400604 A5.306,5.306 0 0 0 196.51362640400612,148.1086042523384 z" fill="#0fa7e9"/>
      <path id="Path_10602" data-name="Path 10602" d="M196.61351898213115,150.152525150776 c1.913,10.627 4.6,22.636 6.562,34.618 c0.42500000000000027,-14.108 0.47800000000000026,-28.428 0.47800000000000026,-35.229 a7.478,7.478 0 0 0 -0.18600000000000014,-1.727 l-2.338,-0.053000000000000054 A5.212,5.212 0 0 0 196.61351898213115,150.152525150776 z" fill="#0fa7e9"/>
      <path id="Path_10609" data-name="Path 10609" d="M226.93678085713123,97.83103723671343 c5.312999999999998,7.545425999999998 -8.521085999999997,22.76475599999999 -1.3862099999999997,27.58992599999999 c9.726653999999996,6.568799999999998 -5.979539999999999,15.809555999999992 -19.659065999999992,8.725877999999996 C182.52200485713115,116.04580723671347 200.3224098571311,93.77366923671343 208.3931578571312,89.1181442367133 S223.91847885713105,89.59352123671351 226.93678085713123,97.83103723671343 z" fill="#013040"/>
      <path id="Path_10610" data-name="Path 10610" d="M217.77590585713187,93.64092323671366 c9.264905999999996,4.9536479999999985 27.127211999999993,10.342961999999996 32.876843999999984,3.798311999999999 c2.720255999999999,-3.1056899999999987 -3.5413560000000004,-14.551823999999996 -20.78831999999999,-14.372147999999996 C215.42320585713196,81.89362123671367 210.70317585713178,86.98157823671363 217.77590585713187,93.64092323671366 z" fill="#013040"/>
      <path id="Path_10611" data-name="Path 10611" d="M206.69751605244346,141.91860425233835 C212.51551605244367,146.5416042523384 218.51951605244358,149.40860425233836 223.11651605244356,149.40860425233836 c4.623,0 6.961,-2.869 6.908,-7.492 z" fill="#ffaf84"/>
      <rect id="Rectangle_2500" data-name="Rectangle 2500" width="2.053999900817871" height="23.93899917602539" transform="rotate(-94.03700256347656 216.8515319824219,169.8135681152344) " fill="#bfe2ef" y="169.8135528564453" x="216.85153198242188"/>
      <path id="Path_10612" data-name="Path 10612" d="M238.32856976338098,172.20556421327592 L238.29756976338103,170.87756421327595 l-20.245,0.42500000000000027 l0.027000000000000034,1.328 z" fill="#bfe2ef"/>
      <path id="Path_10613" data-name="Path 10613" d="M197.51454827900602,404.6756110882759 a2.314,2.314 0 0 1 1.2,0.5 c2.365,1.9660000000000002 9.538,5.473 13.231,6 c3.959,0.558 4.145,2.524 -1.408,2.524 s-8.688,-0.23900000000000013 -11.159,-0.15900000000000014 c-2.471,0.053000000000000054 -1.8330000000000002,0.15900000000000014 -10.468,0.15900000000000014 c-4.676,0 -1.621,-5.978 0.053000000000000054,-8.741 a2.48,2.48 0 0 1 2.524,-1.142 z" fill="#013040"/>
      <path id="Path_10614" data-name="Path 10614" d="M230.70759027119357,404.6756110882759 a2.314,2.314 0 0 1 1.2,0.5 c2.365,1.9660000000000002 9.538,5.473 13.231,6 c3.959,0.558 4.145,2.524 -1.408,2.524 s-8.688,-0.23900000000000013 -11.159,-0.15900000000000014 c-2.471,0.053000000000000054 -1.8330000000000002,0.15900000000000014 -10.468,0.15900000000000014 c-4.676,0 -1.621,-5.978 0.053000000000000054,-8.741 a2.48,2.48 0 0 1 2.524,-1.142 z" fill="#013040"/>
      <path id="Path_11510" data-name="Path 11510" d="M205.26657171650606,146.15055249452598 a5.628,5.628 0 0 0 -6.8260000000000005,-4.111 c-13.6,3.337 -23.042,6.43 -29.625,9.183 c-15.12,6.373 -14.989,11.087 -14.932,13.52 c0.07400000000000002,2.7510000000000003 0.6090000000000005,8.07 33.237,19.963 a21.72,21.72 0 0 1 -1.6820000000000008,5.8740000000000006 c-1.482,2.738 0.05800000000000005,5.359 1.6820000000000008,8.014 a4.191,4.191 0 0 0 3.394,2 c2,0 4.492,-2.534 4.835,-4.65 c1.235,-7.607 1.022,-12.077 0.6470000000000007,-12.969 l-0.00700000000000001,-0.015000000000000015 l-0.010000000000000009,-0.026000000000000034 c-0.03400000000000004,-0.07700000000000007 -0.0850000000000001,-0.14100000000000001 -0.12100000000000002,-0.21700000000000014 a5.7,5.7 0 0 0 -0.40900000000000025,-0.7430000000000005 c-0.1,-0.14500000000000013 -0.21900000000000014,-0.268 -0.32800000000000035,-0.4 a4.863,4.863 0 0 0 -0.3720000000000003,-0.4370000000000003 a5.565,5.565 0 0 0 -0.7000000000000005,-0.5790000000000005 c-0.04200000000000004,-0.030000000000000034 -0.07700000000000007,-0.06800000000000009 -0.12100000000000002,-0.1 a5.755,5.755 0 0 0 -1.233,-0.6260000000000006 c-11.042,-4.5440000000000005 -21.364,-11.892 -25.893,-15.151 a56.1,56.1 0 0 1 6.619,-3.074 a222.735,222.735 0 0 1 27.718,-8.636 A5.654,5.654 0 0 0 205.26657171650606,146.15055249452598 z" fill="#ffaf84"/>
      <rect id="Rectangle_2975" data-name="Rectangle 2975" width="23.02199935913086" height="13.456000328063965" rx="0.35100001096725464" transform="rotate(-77.02799987792969 230.13656616210938,193.78952026367188) " fill="#006ca2" y="193.7895050048828" x="230.13656616210938"/>
      <g id="Group_5449" data-name="Group 5449">
        <path id="Path_10983-2" data-name="Path 10983" d="M272.3948386667318,189.95244403734227 c-1.4726,-6.421729999999999 -6.262530000000001,-14.4275 -9.791794999999999,-21.48205 c-3.7431900000000002,-7.487375 -14.55685,-4.317305 -11.18579,1.9701 c3.847665,7.172955 6.66053,11.058430000000001 9.863435,17.853285 c-4.570035,2.8496799999999998 -8.806745000000001,4.2785 -14.63446,3.4825 c-1.60195,-0.2198950000000002 -3.356135,-3.2924550000000004 -4.940175,-5.194895 a18.06323,18.06323 0 0 0 -3.5929450000000003,-3.957115 c-1.18803,-0.8288350000000005 -4.167059999999999,-1.3860350000000001 -5.590904999999999,0.974105 a8.150045,8.150045 0 0 0 -1.4526999999999999,3.80289 c-0.025870000000000025,3.582 2.35616,4.75212 4.908335,6.1908900000000004 c1.791,1.00893 1.93428,1.8576650000000003 3.7939350000000003,2.13328 c5.60384,1.7392600000000003 11.367875000000002,4.43173 17.22345,4.932215 s10.149000000000001,0.665655000000001 13.631499999999999,-3.923285 C273.0110736667318,194.15218903734217 273.76876366673184,193.9625690373423 272.3948386667318,189.95244403734227 z" fill="#ffaf84" stroke-width="0"/>
      </g>
    </g>
  </g></g></svg>