<svg xmlns="http://www.w3.org/2000/svg" width="183.4" height="71.4" viewBox="0 0 183.4 71.4">
  <path id="Path_2159" data-name="Path 2159" d="M177.4,59.5H168a11.018,11.018,0,0,0,.2-1.8,8.706,8.706,0,0,0-8.7-8.7,9.1,9.1,0,0,0-4.6,1.3,22.751,22.751,0,0,0,.2-2.6,18.617,18.617,0,0,0-36.6-4.8,14.646,14.646,0,0,0-10.8-6.3,30.685,30.685,0,0,0,1-7.4,29.25,29.25,0,0,0-58.5,0c0,1.2.1,2.3.2,3.4A18.55,18.55,0,0,0,25.2,59.4H6a6,6,0,0,0,0,12H177.4a6.018,6.018,0,0,0,6-6A5.933,5.933,0,0,0,177.4,59.5Z" fill="#11d1ed" opacity="0.2"/>
</svg>
