<svg xmlns="http://www.w3.org/2000/svg" width="167.1" height="55.4" viewBox="0 0 167.1 55.4">
  <path id="Path_2160" data-name="Path 2160" d="M5.3,44.8h8.4a6.216,6.216,0,0,1,5.4-2.9,7.772,7.772,0,0,1,1.6.2,15.353,15.353,0,0,1-.5-4.3,16.986,16.986,0,0,1,17-17,17.266,17.266,0,0,1,10,3.2A13.391,13.391,0,0,1,59,17a11.076,11.076,0,0,1,1.9.2,26.551,26.551,0,0,1,51.4,9.3,22.6,22.6,0,0,1-.1,2.6h.1a12.8,12.8,0,0,1,8.9,3.6,16.99,16.99,0,0,1,33.2,5.1,16.285,16.285,0,0,1-1.5,7h8.9a5.335,5.335,0,0,1,5.3,5.3h0a5.335,5.335,0,0,1-5.3,5.3H5.3A5.335,5.335,0,0,1,0,50.1H0A5.335,5.335,0,0,1,5.3,44.8Z" fill="#11d1ed" opacity="0.2"/>
</svg>
