<svg id="Group_4712" data-name="Group 4712" xmlns="http://www.w3.org/2000/svg" width="1920" height="204.704" viewBox="0 0 1920 204.704">
  <path id="Path_10640" data-name="Path 10640" d="M3138.043,1176.107c-3.938-.043-7.874-.124-11.812-.124q-949.23-.009-1898.461-.032c-11,0-9.466,1.763-9.665-9.835-.635-36.932,3.694-73.516,6.655-110.243,1.944-24.107,5.676-47.792,9.323-71.576.653-4.264-2.254-8.76,1.1-12.844,2.094.071,2.811,1.611,2.676,3.425a178.357,178.357,0,0,0,4.431,52.667c4.822,21.152,2.667,42.463,5.852,63.467.337,2.226-1.192,5.775,2.193,6.144,3.771.412,2.521-3.289,2.925-5.454.446-2.4.467-2.622,3.391-1.848,2.266.6,2.338-1.133,2.87-2.2,3.966-7.992,10.928-14.891,9.487-20.7-.784,5.552,5.516,12.7,9.4,20.831,2.158,4.512,3.259.628,4.852-.309,1.857,1.461,1.27,3.586,1.586,5.376.331,1.861-.3,4.415,2.56,4.435s2.611-2.48,2.537-4.388c-.363-9.4,2.353-18.74,1.719-27.94-1.391-20.181,6.106-39.119,6.829-58.919.384-10.523,3.518-20.889,1.777-31.545-.211-1.294.669-2.3,1.854-3.09,2.3.257,2.347,2.9,2.291,3.81-1.088,17.654,4.963,34.372,6.559,51.647,1.76,19.062,3.3,38.144,4.84,57.227.829,10.271,3.249,20.4,2.734,30.8-.068,1.366.109,3.171,1.942,3.514,1.542.286,1.659-1.439,2.461-2.227,2.718-2.678,4.908-5.7,4.254-9.589-.384-2.275-.848-3.741,2.042-4.079,2.281-.266,4.469.5,4.39,2.771-.493,14.052,10.011,13.356,19.09,14.424,16.638,1.955,33.372,2.357,50.1,2.947,5.028.176,7.225-1.747,5.647-6.409-1.057-3.122.495-5.735.391-8.625-.1-2.734,2.942-3.14,4.85-3.774,2.359-.784,2.641,1.48,2.927,3.162.728,4.292,2.882,3.041,4.968,1.21,1.185-1.04,2.272-2.075,3.746-.866,1.1.906.359,2.164.27,3.366-1.078,14.616-1.67,29.232.358,43.836.489,3.524,3.424,3.286,4.9,2.447,3.5-2,9.373-.809,10.066-6.9.049-.44.411-1.205.642-1.211,10.677-.277,5.583-8.043,4.378-11.622-2.4-7.146,4.215-5.469,6.1-6.285,2.3-.993,4.149,2.387,3.706,5.586-.431,3.124-.682,6.274-1.018,9.461,2.893-.053,2.873-2.057,2.868-3.875-.015-6.84,1-13.748-1.021-20.462-.394-1.314-.682-2.6.384-3.322,5.32-3.61,4.043-9.064,4.062-14.1.067-16.49.033-32.982.019-49.474,0-3.427.294-6.875-1.465-10.1a5.423,5.423,0,0,1-.521-3.526c3.22-13.492,3.249-13.485,1.468-22.035,2.848,5.487,5.4,6.177,8.62-.213-.538,6.567-4.062,10.593-1.871,15.347,5.384,11.689.381,23.841,1.3,35.786.956,12.48.208,25.091.217,37.644,0,3.663-.492,7.425,3.267,9.959,2.084,1.4.7,3.306.5,5.226-.8,7.878-1.177,15.812.8,23.55,2.582-3.118,1.164-6.24.578-9.178-.731-3.667,1.019-6.686,3.738-6.3,1.656.238,8.336-.384,5.965,5.843-.761,2,.471,4.379-1.232,6.313-.774.879-1.464,2.958-.366,3.266,7.007,1.961,9.735,10.832,17.858,10.857,2.285.007,3.741-.532,3.93-3.158.263-3.663,1.474-7.4,1.02-10.944-1.434-11.226,2.642-22.507-.871-33.78-.932-2.991,1.911-3.322,4.143-1.207,2.195,2.079,4.187,2.859,5.062-1.111.353-1.605.229-4.063,2.688-3.226,1.842.626,5.069.792,4.836,3.681-.235,2.911,1.815,5.348.6,8.544-2.031,5.345.958,6.77,6.021,6.6,19.434-.638,38.846-1.309,58.142-4.054,5.853-.832,9.851-2.672,9.746-9.377a14.591,14.591,0,0,1,.908-4.322c.733-2.406,2.639-2.645,4.744-2.292,2.391.4,2.445,1.656,1.6,3.673-.82,1.962.177,3.97,1.147,5.609,1.654,2.792,3.444,7.072,6.651,6.591,4.4-.662,2.158-5.375,2-8.07-.357-6.211,2.178-12.77-1.774-18.665-.164-.245.393-1.285.855-1.589,4.592-3.038,3.793-10.593,10.235-12.115,1.5-.356,1.306-1.755,1.031-3.04-1.979-9.256-.434-11.463,9.525-12.51,2.981-.313,3.774-1.508,3.7-4.146-.111-3.874-.538-5.673,5.645-6.369,5.725-.643,14.532.929,18.638-6.872.371-.7,2.78-.427,4.245-.445,4.183-.05,8.437.467,12.541-.106,14.832-2.069,28.469,2.541,42.176,6.964,1.385.447,3.172,1.747,4.065,1.285,5.1-2.65,4.554.926,4.592,3.881.04,3-.385,5.658,4.305,5.844,9.307.368,11.294,3.459,9.061,12.3a10.7,10.7,0,0,0,.045,2.794c7.029-1.066,3.5,9.138,9.631,9.024-.233,2.5,2.052,3.948,1.25,7.448-1.716,7.49-1.608,15.7-.675,23.419a285.056,285.056,0,0,1,1.614,31.569c.072,7.087,8.5,11.488,14.582,7.88,1.9-1.129,1.39-2.973,1.4-4.59.062-7.383-.1-14.771.062-22.151.244-11.184,1.415-22.4.844-33.532-.579-11.286-1.164-22.936.894-33.586,1.316-6.807-1.321-14.333,3.809-21.435,2.88-3.985,2.229-11.977,3.224-18.155a8.844,8.844,0,0,1,1.651-4.167c1.319,7.429,4.98,14.316,3.892,22.124,8.309,4.487.781,12.98,5.1,19.707,3.549,5.529.724,15.151.724,23.033,6.132-2.187,6.088-2.195,7.5-9.674.211-1.125.854-2.729,2.19-2.53.83.123,2.262,2.007,2.053,2.449-3.474,7.3,3.357,7.59,8.008,11.5,0-5.714-.207-10.21.056-14.678.285-4.849-1.932-10.222,2.734-14.324a2.789,2.789,0,0,0,.182-2.682c-3.076-4.57-.372-7.614,1.7-11.723,2.407-4.786.864-10.986,2.72-16.359.765-2.211,1.068-4.582,2.084-6.87,1.292,6.484,4.536,12.485,3.639,19.291a6.823,6.823,0,0,0,2.134,6.025c1.087,1.028,2.96,2.18,2.282,3.437-4.141,7.671,1.818,14.455,1.676,21.921-.334,17.594-1.042,35.242.493,52.867.448,5.128,3.3,4.432,6.46,4.453,33.381.232,66.21-4.651,98.867-10.9a631.293,631.293,0,0,0,66.5-16.579c3-.918,4.466-1.012,3.066-5.143-1.445-4.263.433-8.983,6.3-8.075,4.75.734,10.933-3.74,14.191,3.37.391.854,1.668,1.868,1.462,2.345-3.917,9.068,3.861,7.726,8.112,8.822,66.153,17.041,133.211,26.117,201.649,21.67a701.339,701.339,0,0,0,137.3-22.951c3.185-.858,5.123-.9,3.434-5.509-1.271-3.468.2-8.082,5.975-7.928,2.952.078,5.908.067,8.86,0,5.981-.129,8.045,3.836,6.434,8.351s.894,4.32,3.437,5.1a668.77,668.77,0,0,0,117.506,24.589,486.744,486.744,0,0,0,57.464,2.992c6.074,0,7.361-1.933,7.231-7.531-.484-20.908,6.864-40.707,8.651-61.358,2.768,5.056-.411,12.636,4.656,15.226,4.317,2.207,10.6.569,16.009.642.982.012,2.495-.32,2.859.174,3.056,4.135,6.147,1.6,9.744.852,6.512-1.356,2.685-6.711,4.555-9.776.94-1.54.706-3.8,1.154-6.734,2.721,4.918,2.1,9.559,2.845,13.875,1.654,9.568,3.8,10.068,12.948,11.829,9.536,1.834,12-1.78,10.8-12.3,1.691,2.505,2.075,2.815,2.108,3.159,1.572,16.542,1.568,16.542,18.1,16.542,5.661,0,11.326-.118,16.982.038,3.276.091,5.357-.744,4.908-4.472-2.24-18.608,6.222-35.923,6.769-54.413,2.765,5.7,2.075,12.345,4.892,18.456,3.233-2.26,2.293-5.691,4.763-9.89-.481,11.689,6.621,10.153,13.024,9.955,3.442-.106,6.892-.018,10.337-.019,10.965,0,10.962,0,12.02-11,.242-2.537.5-5.072.913-9.135,8.107,19.458,12.742,37.8,11.963,57.329-.226,5.641,2.281,6.793,7.367,3.973a10.77,10.77,0,0,0,3.52-2.642c4.615-6.279,10.944-7.754,18.182-6.743,4.876.682,6.431-1.356,6.293-6.163-.617-21.651,6.02-42.345,9.281-63.665,1.872,12.318,4.1,24.6,5.428,36.973.479,4.462,3.1,8.188,3.019,12.681-.031,1.585-.75,4.045,1.2,4.562,2.464.651,3.856-1.747,5.1-3.5a26.527,26.527,0,0,0,4.957-16.318c-.273-17.418,4.552-32.6,20.036-42.653,6.762-4.388,1.951-12.081,5.183-17.6,1.383-2.36,1.208-5.632,3.024-8.688,1.3,5.939,3.866,11.961,3.491,17.793-.291,4.525,1.483,6.912,4.118,8.7,14.773,10.03,19.793,24.589,19.479,41.463a30.368,30.368,0,0,0,5.36,17.675c1.027,1.574,2.384,3.627,4.566,3.177,2.271-.47,1.2-2.821,1.471-4.367,2.955-16.789,5.886-33.582,9.073-51.794,1.909,12.126,3.8,22.866,5.244,33.666,1.484,11.07,4.967,21.939,3.534,33.331-.428,3.4,1.112,5.183,4.648,4.685,8.342-1.176,15.355.765,20.835,7.691,1.772,2.239,4.848,4.015,7.915,2.792,3.315-1.322,2.063-4.8,1.811-7.189-1.508-14.247,4.3-27.482,5.4-41.345,6.324-1.922,3.209-8.436,6.355-13.7.821,6.155,1.632,10.85,2.017,15.578.284,3.481,1.876,4.582,5.218,4.48,6.147-.186,12.324-.355,18.453.034,6.439.408,11.747,0,11.733-8.6.8,2.651,1.592,5.3,2.9,9.649,4.079-7.107,2.868-14.024,5.914-21.626,1.073,8.553.969,15.53,2.951,21.855,3.567,11.382,4.1,22.865,3.712,34.545-.1,3.026.87,4.516,4.179,4.475q14.766-.18,29.535.017c3.555.052,4.7-1.654,4.976-4.861.359-4.15,1.026-8.272,1.565-12.445.44.14,1.044.146,1.19.409,1.849,3.285.08,10.167,2.192,10.036,5.266-.328,10.869.083,15.867-1.34,3.266-.929,5.373-5.035,5.938-9.027a78.154,78.154,0,0,1,3.217-15.1c.539,2.734,1.115,5.462,1.608,8.2,1.494,8.291,5.167,9.736,13.264,6.928,3.973-1.378,8.849-.97,13.168-.347,6.96,1,9.092-2.328,9.248-8.406a14.851,14.851,0,0,1,1.949-7.544c.876,5.992,1.109,12.164,2.74,17.942,5.966,21.121,3.521,43.448,9.6,64.513.78,2.7.6,6.3,5.133,5.512Zm-937.421-18.87h162.393c11.99,0,12.046,0,11.958-12.116-.077-10.633,1.133-9.329-9.559-9.332q-163.128-.053-326.26-.022c-13.457,0-13.042.016-13.582,13.6-.267,6.725,1.914,8.042,8.231,8.014C2089.408,1157.132,2145.016,1157.237,2200.622,1157.237Zm275.475,0h64.224c13.49,0,13.066-.016,13.587-13.637.261-6.835-2.147-8-8.352-7.967-44.292.254-88.586.134-132.878.134-14.718,0-14.4.006-14.671,14.777-.106,5.852,1.979,6.859,7.222,6.8C2428.849,1157.094,2452.472,1157.237,2476.1,1157.237Zm-551.435,0h64.852c13.017,0,12.59-.018,13.154-13.222.3-6.959-2.019-8.435-8.587-8.392-43.971.279-87.945.145-131.917.145-15.561,0-15.343,0-15.31,15.465.01,4.958,1.65,6.135,6.323,6.1C1877,1157.128,1900.833,1157.237,1924.662,1157.237Zm442.526-38.794h-.035c0,2.706-.031,5.413.009,8.12.034,2.195-.276,4.607,3.047,4.8,2.759.164,4.063-.468,5.044-3.669a53.783,53.783,0,0,0,2.022-18.9c-.095-1.793,1.422-5.381-2.284-4.8-2.914.458-7.513-.26-7.773,4.85C2367.056,1112.039,2367.188,1115.244,2367.188,1118.443Zm-333.695.613c0-3.437.134-6.881-.031-10.311-.248-5.157-4.927-4.351-7.783-4.726-3.4-.446-2.05,3.09-2.25,4.98-.7,6.674.689,13.105,2.275,19.558.667,2.709,2.2,2.765,4.245,2.824,2.461.071,3.613-1,3.563-3.489C2033.451,1124.949,2033.5,1122,2033.493,1119.056Zm-38.76-.659c0,3.187.037,6.375-.013,9.561-.04,2.521,1.23,3.492,3.629,3.428,2.05-.055,3.558-.165,4.211-2.867,1.558-6.437,3.091-12.836,2.317-19.5-.214-1.851,1.3-5.406-2.186-4.955-2.92.375-7.466-.1-7.891,4.78C1994.524,1112,1994.747,1115.21,1994.733,1118.4Zm411.319-.059c0-2.924-.049-5.849.01-8.772.1-5.132-4.308-4.936-7.234-5.42-4.207-.694-2.522,3.149-2.7,5.124-.564,6.342.414,12.532,1.905,18.734.7,2.91,2.059,3.329,4.511,3.388,3.195.075,3.5-1.911,3.511-4.282Q2406.068,1122.723,2406.051,1118.338Zm-368.128.477h.059c0,3.19-.047,6.382.016,9.572.043,2.1,1.244,3.01,3.329,2.989s3.252-.982,3.269-3.07c.043-5.645.015-11.29.025-16.937.006-3.056-2.23-3.618-4.484-3.686-2.643-.08-2.123,2.18-2.187,3.768C2037.849,1113.9,2037.923,1116.36,2037.923,1118.815Zm372.639.574h.047c0,2.953-.036,5.906.012,8.859.031,2.056,1.063,3.134,3.214,3.125,2.064-.01,3.3-.854,3.307-3.015.01-5.66.1-11.324-.093-16.976-.085-2.458-2.266-3.118-4.283-3.155-2.655-.046-2.1,2.21-2.174,3.78C2410.475,1114.462,2410.562,1116.929,2410.562,1119.39Zm-420.268-.086h.026c0-2.431.093-4.868-.032-7.293-.08-1.517.671-3.8-2.016-3.8-2.347,0-4.432.886-4.49,3.7-.109,5.347-.065,10.7-.075,16.046,0,2.406,1.142,3.531,3.613,3.4,2.18-.114,2.961-1.337,2.97-3.3C1990.3,1125.139,1990.294,1122.222,1990.294,1119.3Zm361.585,1.043h.04a34.307,34.307,0,0,0-.054-5.156c-.285-1.854,1.282-5.031-2.369-4.949-2.576.057-4.555,1.356-4.379,4.664.223,4.169.058,8.36.059,12.539,0,2.183.514,3.864,3.214,3.926,2.592.057,3.483-1.331,3.489-3.647C2351.885,1125.265,2351.879,1122.806,2351.879,1120.347Zm10.89-1.39a50.308,50.308,0,0,0-.069-6.589c-.233-1.749,1.52-4.859-2.529-4.633-3.2.18-3.933,2.093-3.852,4.941.135,4.639-.007,9.284.06,13.926.029,2.1-.476,4.607,2.962,4.72,3.916.129,3.367-2.653,3.415-5.036C2362.805,1123.844,2362.767,1121.4,2362.769,1118.957Zm-307.26,3.2c0-3.037-.13-5.482.032-7.909.206-3.085-1.961-3.8-4.135-3.957-3.338-.245-2.068,2.611-2.23,4.218a21.267,21.267,0,0,0,.044,7.276c.829,3.22-3.109,9.329,3.2,9.194C2058.622,1130.844,2053.935,1124.625,2055.508,1122.153Zm376.894.095c0,1.465-.033,2.93.007,4.394.061,2.2-.148,4.558,3.118,4.716,3.725.18,3.655-2.375,3.654-4.9,0-2.929-.006-5.858-.072-8.784-.053-2.4-1.529-3.4-3.748-3.63-3.059-.318-2.875,1.862-2.942,3.812C2432.368,1119.319,2432.409,1120.784,2432.4,1122.248Zm-453.215-.092a10.517,10.517,0,0,0-.032-2.75c-.944-2.713,2.548-7.852-2.92-7.877-5.159-.024-3.054,5-3.505,8.052a4.829,4.829,0,0,0,.016,2.183c1.1,3.183-2.851,9.324,3.31,9.216C1982.138,1130.875,1977.718,1124.693,1979.187,1122.156Zm442.372-1.427c0,1.96-.025,3.921.007,5.881.037,2.177-.334,4.57,3.032,4.722,3.316.149,3.381-2.032,3.384-4.353,0-3.431-.1-6.865.036-10.29.119-3.124-.77-5.629-4.244-5.475s-1.859,3.248-2.17,5.112A26.846,26.846,0,0,0,2421.56,1120.729Zm-91.6,1.639c-1.221-1.961,2.533-6.846-2.508-7.191-5.967-.411-3.776,4.911-4.178,8.184a30.785,30.785,0,0,0-.01,3.689c-.006,2.424.36,4.446,3.564,4.317,2.738-.111,3.132-1.854,3.132-4C2329.965,1125.89,2329.963,1124.413,2329.963,1122.369Zm-263.486.229h-.035V1116.7c0-2.805-1.687-4.057-4.2-4.012-3.168.059-2.172,2.7-2.263,4.434-.152,2.939-.112,5.895-.021,8.84.069,2.3-.784,5.237,3.113,5.4,3.952.17,3.3-2.713,3.4-5.085C2066.518,1125.055,2066.478,1123.826,2066.478,1122.6Zm274.278-.266a20.74,20.74,0,0,0-.05-4.22c-.468-1.963,1.662-5.443-2.675-5.345-3.293.072-3.815,2.421-3.686,5.131.057,1.218-.308,2.547.063,3.642,1.093,3.233-3.041,9.306,3.048,9.441C2343.958,1131.124,2339.155,1124.772,2340.756,1122.332Zm-383.082,1.44c-1.681-2.065,2.512-6.973-3.273-7-5.045-.022-3.78,4.3-3.593,7.143.177,2.683-2.095,7.267,3.206,7.311C1959.384,1131.272,1956.536,1126.553,1957.674,1123.772Zm10.625-1.094a21.512,21.512,0,0,0-.037-3.626c-.322-1.852,1.213-4.84-2.291-5-3.63-.165-4.231,2.422-4.146,5.394.07,2.419-.041,4.844.036,7.264.066,2.117-.31,4.555,3.044,4.627,3.833.081,3.322-2.648,3.388-5.026C1968.327,1125.1,1968.3,1123.888,1968.3,1122.677Zm102.77.166h-.052c0,1.218-.1,2.446.022,3.654.177,1.808-.542,4.189,2.2,4.7,1.677.316,3.919.39,4.006-1.892.173-4.488,1.622-9.206-.975-13.378-.5-.814-2.719-.786-4.113-.688-.418.03-.948,1.591-1.036,2.487C2070.952,1119.419,2071.069,1121.137,2071.069,1122.843ZM2443,1123.924c2.178,2.05-2.006,6.994,3.52,7.279,5.507.285,3.193-4.409,3.348-7.016.179-3.022,1.616-7.778-3.9-7.428C2441.2,1117.062,2444.833,1121.476,2443,1123.924Zm-343.551,2.393c.228-3.816.538-7.138-3.658-7.333-4.613-.214-2.838,3.633-2.869,5.772-.039,2.517-1.592,6.45,3.27,6.558C2100.585,1131.411,2099.218,1127.887,2099.453,1126.316Zm361.486.146c.394-4.177.217-7.4-3.768-7.516-4.543-.131-2.609,3.756-2.678,5.887-.084,2.52-1.6,6.463,3.309,6.482C2462.18,1131.334,2460.7,1127.77,2460.938,1126.463Zm-141.931-2.113c-1.192-2.344,1.861-6.64-2.632-7.123-5-.536-4.177,3.855-3.91,6.8.242,2.656-2.146,7.259,3.32,7.168C2320.731,1131.109,2317.923,1126.737,2319.007,1124.349Zm-237.255-.555c1.173,2.621-2.038,7.354,3.476,7.4,4.928.041,2.948-4.236,3.024-6.7.089-2.827,1.579-7.254-3.487-7.29C2079.567,1117.167,2083.157,1121.734,2081.752,1123.794Zm226.282,1.013c-.926-1.922,1.748-5.9-2.961-5.784-3.812.093-3.873,3.207-3.551,5.955.275,2.335-1.532,6.01,2.845,6.283C2309.434,1131.576,2307.447,1127.458,2308.035,1124.807Zm-11.07.848c-.67-1.709,1.473-5.211-3.057-4.841-3.316.272-3.85,2.334-3.555,5.039.242,2.214-.923,5.239,2.926,5.494C2297.64,1131.635,2296.747,1128.358,2296.965,1125.655Zm-350.422-1.08c-1.938-1.2,2.339-5.691-2.814-5.618-4.268.061-4,3.548-3.778,6.522.183,2.413-1.193,6.013,3.357,5.8C1947.828,1131.072,1945.74,1127.377,1946.543,1124.575ZM1935.5,1126.1c-.335-2.031.864-5.106-3.261-4.819-3.432.239-3.545,2.61-3.514,5.133.031,2.432-.23,5.041,3.477,4.958C1935.95,1131.287,1935.349,1128.538,1935.5,1126.1Zm168.38-.167c.3,2.366-.757,5.31,3.14,5.4,3.83.09,3.19-2.691,3.332-5.02.173-2.833.03-5.462-3.772-5.5C2102.178,1120.76,2104.7,1124.274,2103.877,1125.933Zm10.865.084c.327,1.891-1,4.9,2.77,5.349,2.781.335,3.978-1,4-3.744.017-2.533.1-4.8-3.4-5.191C2115.318,1122.122,2114.705,1123.459,2114.742,1126.017Zm350.76.083c.269,2.353-.646,5.32,3.312,5.217,3.862-.1,2.986-2.983,3.163-5.277.224-2.858-.666-4.825-3.914-4.747C2464.322,1121.384,2466.092,1124.41,2465.5,1126.1Zm-179.521-.03c-.435-1.249.734-3.782-2.651-3.664-3.345.117-3.923,2-3.815,4.834.1,2.51.5,4.345,3.625,4.112C2286.577,1131.1,2285.792,1128.544,2285.981,1126.07Zm-10.891,1.044c-.028-2.249-.594-3.735-3.424-3.251-2.3.394-3.437,1.334-3.317,3.79.106,2.221.638,3.712,3.274,3.759C2274.769,1131.468,2275.141,1129.52,2275.09,1127.114Zm207.774-.329c.162-2.177-1.268-3.518-3.852-3.675-3.152-.192-2.493,2.233-2.6,4.042-.154,2.459.378,4.313,3.492,4.205C2482.734,1131.26,2482.783,1129.353,2482.864,1126.785Zm-558.586.087c-.3-1.464.781-4.056-2.579-3.743-2.574.241-3.942,1.464-3.814,4.24.1,2.1.254,3.865,2.994,4C1924.1,1131.519,1924.35,1129.468,1924.278,1126.872Zm214.686-2.027c-1.971-.148-2.149,1.509-2.191,3.292-.059,2.475,1.226,3.342,3.589,3.267,2.209-.071,2.879-1.292,2.892-3.218C2143.27,1125.591,2141.452,1125.129,2138.963,1124.845Zm-10.134-.935c-2.566-.625-2.848,1.078-2.886,2.949-.049,2.283-.162,4.558,3.234,4.5,2.744-.049,3.093-1.65,3.177-3.876C2132.453,1124.9,2131.209,1123.93,2128.83,1123.911Zm365.113,4.415c.329-2.549-1.735-2.818-3.608-3.31-2.509-.66-2.856.947-2.923,2.794-.081,2.236.651,3.691,3.273,3.605C2492.676,1131.35,2493.91,1130.681,2493.943,1128.325Zm-584.4,3.133c3.577-.132,4.053-1.795,3.943-3.957-.108-2.122-1.013-3.029-3.226-2.48-2.065.513-3.576,1.332-3.3,3.836C1907.207,1131.068,1908.61,1131.544,1909.539,1131.458Z" transform="translate(-1218.043 -971.403)" fill="#013040"/>
</svg>
