<svg xmlns="http://www.w3.org/2000/svg" xmlns:xlink="http://www.w3.org/1999/xlink" width="464.186" height="390.963" viewBox="0 0 464.186 390.963">
  <defs>
    <linearGradient id="linear-gradient" y1="0.5" x2="1" y2="0.5" gradientUnits="objectBoundingBox">
      <stop offset="0" stop-color="#00a9ff"/>
      <stop offset="1" stop-color="#b371ff"/>
    </linearGradient>
  </defs>
  <g id="Group_4859" data-name="Group 4859" transform="translate(-599.305 -128.436)">
    <path id="Path_11191" data-name="Path 11191" d="M449,150.595H425.209a27.891,27.891,0,0,0,.506-4.556,22.036,22.036,0,0,0-22.02-22.02,23.043,23.043,0,0,0-11.643,3.29,57.576,57.576,0,0,0,.506-6.581,47.12,47.12,0,0,0-92.635-12.149,37.07,37.07,0,0,0-27.335-15.945,77.664,77.664,0,0,0,2.531-18.729,74.032,74.032,0,0,0-148.064,0c0,3.037.253,5.821.506,8.605a46.949,46.949,0,0,0-63.781,67.831h-48.6a15.186,15.186,0,0,0,0,30.372H449a15.231,15.231,0,0,0,15.186-15.186A15.016,15.016,0,0,0,449,150.595Z" transform="translate(599.305 137.934)" fill="#e0fafd"/>
    <g id="Group_4855" data-name="Group 4855" transform="translate(625.876 118.854)">
      <g id="Group_4849" data-name="Group 4849">
        <g id="Group_4610" data-name="Group 4610" transform="translate(100.84 149.195)">
          <g id="Group_4607" data-name="Group 4607" transform="translate(0 40.566)">
            <rect id="Rectangle_2468" data-name="Rectangle 2468" width="88.58" height="203.189" fill="#cecfd0"/>
            <rect id="Rectangle_2469" data-name="Rectangle 2469" width="44.29" height="203.189" fill="#edf0f5"/>
            <path id="Path_10172" data-name="Path 10172" d="M753.678,222.354H683.969a2.332,2.332,0,0,0,0,4.583h69.709a2.136,2.136,0,0,0,1.9-2.291A2.113,2.113,0,0,0,753.678,222.354Z" transform="translate(-674.444 -212.329)" fill="#bdb5ae"/>
            <path id="Path_10173" data-name="Path 10173" d="M753.678,233.557H683.969a2.332,2.332,0,0,0,0,4.583h69.709a2.332,2.332,0,0,0,0-4.583Z" transform="translate(-674.444 -201.907)" fill="#bdb5ae"/>
            <path id="Path_10174" data-name="Path 10174" d="M753.675,244.761H683.966a2.332,2.332,0,0,0,0,4.583h69.709a2.332,2.332,0,0,0,0-4.583Z" transform="translate(-674.441 -191.483)" fill="#bdb5ae"/>
            <path id="Path_10175" data-name="Path 10175" d="M753.675,255.983H683.966a2.332,2.332,0,0,0,0,4.583h69.709a2.332,2.332,0,0,0,0-4.583Z" transform="translate(-674.441 -181.044)" fill="#bdb5ae"/>
            <path id="Path_10176" data-name="Path 10176" d="M753.675,267.2H683.966a2.332,2.332,0,0,0,0,4.583h69.709a2.135,2.135,0,0,0,1.9-2.291A2.113,2.113,0,0,0,753.675,267.2Z" transform="translate(-674.441 -170.605)" fill="#bdb5ae"/>
            <path id="Path_10177" data-name="Path 10177" d="M753.675,278.407H683.966a2.332,2.332,0,0,0,0,4.583h69.709a2.332,2.332,0,0,0,0-4.583Z" transform="translate(-674.441 -160.182)" fill="#bdb5ae"/>
            <path id="Path_10178" data-name="Path 10178" d="M753.675,289.61H683.966a2.333,2.333,0,0,0,0,4.584h69.709a2.333,2.333,0,0,0,0-4.584Z" transform="translate(-674.441 -149.76)" fill="#bdb5ae"/>
            <path id="Path_10179" data-name="Path 10179" d="M753.675,300.833H683.966a2.332,2.332,0,0,0,0,4.583h69.709a2.332,2.332,0,0,0,0-4.583Z" transform="translate(-674.441 -139.319)" fill="#bdb5ae"/>
            <path id="Path_10180" data-name="Path 10180" d="M701.441,222.354H682.6c-.288,0-.537,1.038-.537,2.291s.214,2.291.537,2.291h18.836c.288,0,.5-1.038.5-2.291C701.939,223.356,701.724,222.354,701.441,222.354Z" transform="translate(-674.44 -212.329)" fill="#e2532b"/>
            <path id="Path_10181" data-name="Path 10181" d="M701.441,233.557H682.6c-.288,0-.537,1.039-.537,2.291s.214,2.291.537,2.291h18.836c.288,0,.5-1.038.5-2.291S701.724,233.557,701.441,233.557Z" transform="translate(-674.44 -201.907)" fill="#fff"/>
            <path id="Path_10182" data-name="Path 10182" d="M701.441,244.761H682.6c-.288,0-.537,1.038-.537,2.291s.249,2.326.537,2.326h18.836c.288,0,.5-1.037.5-2.291S701.724,244.761,701.441,244.761Z" transform="translate(-674.44 -191.483)" fill="#fff"/>
            <path id="Path_10183" data-name="Path 10183" d="M701.441,255.983H682.6c-.288,0-.537,1.037-.537,2.291s.214,2.291.537,2.291h18.836c.288,0,.5-1.039.5-2.291S701.724,255.983,701.441,255.983Z" transform="translate(-674.44 -181.044)" fill="#fff"/>
            <path id="Path_10184" data-name="Path 10184" d="M701.441,267.2H682.6c-.288,0-.537,1.038-.537,2.291s.214,2.291.537,2.291h18.836c.288,0,.5-1.039.5-2.291C701.939,268.206,701.724,267.2,701.441,267.2Z" transform="translate(-674.44 -170.605)" fill="#fff"/>
            <path id="Path_10185" data-name="Path 10185" d="M701.441,278.407H682.6c-.288,0-.537,1.039-.537,2.291s.214,2.291.537,2.291h18.836c.288,0,.5-1.037.5-2.291S701.724,278.407,701.441,278.407Z" transform="translate(-674.44 -160.182)" fill="#fff"/>
            <path id="Path_10186" data-name="Path 10186" d="M701.441,289.61H682.6c-.288,0-.537,1.039-.537,2.293s.214,2.291.537,2.291h18.836c.288,0,.5-1.038.5-2.291S701.724,289.61,701.441,289.61Z" transform="translate(-674.44 -149.76)" fill="#fff"/>
            <path id="Path_10187" data-name="Path 10187" d="M701.441,300.833H682.6c-.288,0-.537,1.038-.537,2.291s.214,2.291.537,2.291h18.836c.288,0,.5-1.039.5-2.291S701.724,300.833,701.441,300.833Z" transform="translate(-674.44 -139.319)" fill="#fff"/>
            <path id="Path_10189" data-name="Path 10189" d="M706.908,273.028a2.4,2.4,0,0,0,0,4.727,2.214,2.214,0,0,0,1.969-2.363A2.188,2.188,0,0,0,706.908,273.028Z" transform="translate(-653.166 -165.186)" fill="#e2532b"/>
            <path id="Path_10190" data-name="Path 10190" d="M711.637,273.028a2.4,2.4,0,0,0,0,4.727,2.213,2.213,0,0,0,1.969-2.363A2.188,2.188,0,0,0,711.637,273.028Z" transform="translate(-648.766 -165.186)" fill="#a1bfec"/>
            <path id="Path_10191" data-name="Path 10191" d="M716.406,273.028a2.4,2.4,0,1,0,1.932,1.934A2.4,2.4,0,0,0,716.406,273.028Z" transform="translate(-644.331 -165.186)" fill="#e2532b"/>
            <path id="Path_10192" data-name="Path 10192" d="M706.889,239.307a2.4,2.4,0,0,0,0,4.727,2.4,2.4,0,0,0,0-4.727Z" transform="translate(-653.183 -196.557)" fill="#e2532b"/>
            <path id="Path_10193" data-name="Path 10193" d="M711.619,239.307a2.4,2.4,0,0,0,0,4.727,2.214,2.214,0,0,0,1.969-2.363A2.188,2.188,0,0,0,711.619,239.307Z" transform="translate(-648.783 -196.557)" fill="#e2532b"/>
            <path id="Path_10194" data-name="Path 10194" d="M716.386,239.307a2.4,2.4,0,1,0,1.932,1.934A2.4,2.4,0,0,0,716.386,239.307Z" transform="translate(-644.348 -196.557)" fill="#a1bfec"/>
            <path id="Path_10195" data-name="Path 10195" d="M745.512,322.423h-58.5a2.847,2.847,0,0,0,0,5.584H745.52a2.847,2.847,0,0,0,0-5.584Z" transform="translate(-671.97 -119.234)" fill="#2e333a"/>
            <rect id="Rectangle_2470" data-name="Rectangle 2470" width="38.812" height="16.685" transform="translate(5.478 178.126)" fill="#e9eff4"/>
            <path id="Path_10624" data-name="Path 10624" d="M776.068,306.359H740.289c-4.583,0-8.271,4.476-8.271,9.989s3.725,9.955,8.271,9.955h35.778Z" transform="translate(-627.971 -134.178)" fill="#00a9ff"/>
            <path id="Path_10625" data-name="Path 10625" d="M776.068,306.359H740.289c-4.583,0-8.271,4.476-8.271,9.989s3.725,9.955,8.271,9.955h35.778Z" transform="translate(-627.971 -134.178)" fill="#00a9ff"/>
          </g>
          <g id="Group_4609" data-name="Group 4609" transform="translate(95.024)">
            <rect id="Rectangle_2474" data-name="Rectangle 2474" width="105.802" height="242.682" fill="#cecfd0"/>
            <rect id="Rectangle_2475" data-name="Rectangle 2475" width="52.883" height="242.682" fill="#edf0f5"/>
            <path id="Path_10220" data-name="Path 10220" d="M817.6,202.34H734.351a2.8,2.8,0,0,0,0,5.515H817.6a2.8,2.8,0,0,0,0-5.515Z" transform="translate(-722.966 -190.382)" fill="#bdb5ae"/>
            <path id="Path_10221" data-name="Path 10221" d="M817.6,215.732H734.35a2.543,2.543,0,0,0-2.291,2.72,2.579,2.579,0,0,0,2.291,2.758H817.6a2.783,2.783,0,0,0,0-5.478Z" transform="translate(-722.965 -177.923)" fill="#bdb5ae"/>
            <path id="Path_10222" data-name="Path 10222" d="M817.6,229.124H734.351a2.8,2.8,0,0,0,0,5.515H817.6a2.8,2.8,0,0,0,0-5.515Z" transform="translate(-722.966 -165.464)" fill="#bdb5ae"/>
            <path id="Path_10223" data-name="Path 10223" d="M817.6,242.516H734.351a2.8,2.8,0,0,0,0,5.515H817.6a2.8,2.8,0,0,0,0-5.515Z" transform="translate(-722.966 -153.006)" fill="#bdb5ae"/>
            <path id="Path_10224" data-name="Path 10224" d="M817.594,255.908H734.348a2.8,2.8,0,0,0,0,5.513h83.246a2.8,2.8,0,0,0,0-5.513Z" transform="translate(-722.963 -140.547)" fill="#bdb5ae"/>
            <path id="Path_10225" data-name="Path 10225" d="M817.594,269.3H734.348a2.8,2.8,0,0,0,0,5.515h83.246a2.8,2.8,0,0,0,0-5.515Z" transform="translate(-722.963 -128.088)" fill="#bdb5ae"/>
            <path id="Path_10226" data-name="Path 10226" d="M817.594,282.692H734.348a2.8,2.8,0,0,0,0,5.515h83.246a2.8,2.8,0,0,0,0-5.515Z" transform="translate(-722.963 -115.63)" fill="#bdb5ae"/>
            <path id="Path_10227" data-name="Path 10227" d="M817.6,296.084H734.35a2.543,2.543,0,0,0-2.291,2.72,2.579,2.579,0,0,0,2.291,2.758H817.6a2.783,2.783,0,0,0,0-5.478Z" transform="translate(-722.965 -103.171)" fill="#bdb5ae"/>
            <path id="Path_10228" data-name="Path 10228" d="M755.2,202.34H732.682c-.322,0-.608,1.218-.608,2.758,0,1.5.286,2.757.608,2.757H755.2c.359,0,.61-1.218.61-2.757C755.811,203.593,755.525,202.34,755.2,202.34Z" transform="translate(-722.944 -190.382)" fill="#a8a8a8"/>
            <path id="Path_10229" data-name="Path 10229" d="M755.2,215.732H732.682c-.322,0-.608,1.218-.608,2.72s.286,2.758.608,2.758H755.2c.359,0,.61-1.218.61-2.758C755.811,216.95,755.525,215.732,755.2,215.732Z" transform="translate(-722.944 -177.923)" fill="#a8a8a8"/>
            <path id="Path_10230" data-name="Path 10230" d="M755.2,229.124H732.682c-.322,0-.608,1.218-.608,2.758,0,1.5.286,2.757.608,2.757H755.2c.359,0,.61-1.216.61-2.757S755.525,229.124,755.2,229.124Z" transform="translate(-722.944 -165.464)" fill="#a8a8a8"/>
            <path id="Path_10231" data-name="Path 10231" d="M755.2,242.516H732.682c-.322,0-.608,1.218-.608,2.758,0,1.5.286,2.756.608,2.756H755.2c.359,0,.61-1.218.61-2.756S755.525,242.516,755.2,242.516Z" transform="translate(-722.944 -153.006)" fill="#a8a8a8"/>
            <path id="Path_10232" data-name="Path 10232" d="M755.2,255.908H732.682c-.322,0-.608,1.218-.608,2.758,0,1.5.286,2.756.608,2.756H755.2c.359,0,.61-1.218.61-2.756S755.525,255.908,755.2,255.908Z" transform="translate(-722.944 -140.547)" fill="#a8a8a8"/>
            <path id="Path_10233" data-name="Path 10233" d="M755.2,269.3H732.682c-.322,0-.608,1.218-.608,2.758,0,1.5.286,2.758.608,2.758H755.2c.359,0,.61-1.218.61-2.758S755.525,269.3,755.2,269.3Z" transform="translate(-722.944 -128.088)" fill="#a8a8a8"/>
            <path id="Path_10234" data-name="Path 10234" d="M755.2,282.692H732.682c-.322,0-.608,1.218-.608,2.758,0,1.5.286,2.756.608,2.756H755.2c.359,0,.61-1.216.61-2.756S755.525,282.692,755.2,282.692Z" transform="translate(-722.944 -115.63)" fill="#a8a8a8"/>
            <path id="Path_10235" data-name="Path 10235" d="M755.2,296.084H732.682c-.322,0-.608,1.218-.608,2.72s.286,2.758.608,2.758H755.2c.359,0,.61-1.218.61-2.758C755.811,297.3,755.525,296.084,755.2,296.084Z" transform="translate(-722.944 -103.171)" fill="#a8a8a8"/>
            <path id="Path_10237" data-name="Path 10237" d="M762.234,262.9a2.875,2.875,0,1,0,2.316,3.341,2.833,2.833,0,0,0,.046-.512,2.6,2.6,0,0,0-2.359-2.828Z" transform="translate(-698.037 -134.081)" fill="#e2532b"/>
            <path id="Path_10238" data-name="Path 10238" d="M767.891,262.9a2.875,2.875,0,1,0,2.318,3.341,3.02,3.02,0,0,0,.044-.512A2.629,2.629,0,0,0,767.891,262.9Z" transform="translate(-692.775 -134.081)" fill="#a1bfec"/>
            <path id="Path_10239" data-name="Path 10239" d="M773.567,262.9a2.875,2.875,0,1,0,2.316,3.341,2.822,2.822,0,0,0,.046-.512,2.6,2.6,0,0,0-2.359-2.828Z" transform="translate(-687.494 -134.081)" fill="#e2532b"/>
            <path id="Path_10240" data-name="Path 10240" d="M761.74,222.614a2.628,2.628,0,0,0-2.363,2.828,2.4,2.4,0,1,0,4.725,0A2.63,2.63,0,0,0,761.74,222.614Z" transform="translate(-697.579 -171.521)" fill="#e2532b"/>
            <path id="Path_10241" data-name="Path 10241" d="M767.4,222.614a2.63,2.63,0,0,0-2.363,2.828,2.386,2.386,0,1,0,4.691,0A2.6,2.6,0,0,0,767.4,222.614Z" transform="translate(-692.317 -171.521)" fill="#e2532b"/>
            <path id="Path_10242" data-name="Path 10242" d="M773.074,222.614a2.631,2.631,0,0,0-2.363,2.828,2.387,2.387,0,1,0,4.693,0,2.58,2.58,0,0,0-2.309-2.826Z" transform="translate(-687.037 -171.521)" fill="#a1bfec"/>
            <path id="Path_10243" data-name="Path 10243" d="M807.841,321.867H737.985a3.389,3.389,0,0,0,0,6.66h69.856a3.389,3.389,0,0,0,0-6.66Z" transform="translate(-720.012 -79.185)" fill="#2e333a"/>
            <rect id="Rectangle_2476" data-name="Rectangle 2476" width="43.789" height="22.664" transform="translate(9.13 212.749)" fill="#e9eff4"/>
          </g>
        </g>
        <path id="Path_10845" data-name="Path 10845" d="M716.006,215.767l-10.5,30.808-24.148,70.8-2.374,6.988v-6.988h-4.652v-70.8h4.652V221.749a5.983,5.983,0,0,1,5.965-5.982Z" transform="translate(-580.8 -28.695)" fill="#375e82" opacity="0.3"/>
        <g id="Group_5035" data-name="Group 5035" transform="translate(-693 -264)">
          <path id="Path_11164" data-name="Path 11164" d="M444.483,320.66a329.234,329.234,0,0,1,0-66.808A11.575,11.575,0,0,1,454.836,243.5a329.135,329.135,0,0,1,66.809,0A11.576,11.576,0,0,1,532,253.852a329.26,329.26,0,0,1,0,66.808,11.576,11.576,0,0,1-10.353,10.353,329.135,329.135,0,0,1-66.809,0A11.575,11.575,0,0,1,444.483,320.66Z" transform="translate(379.565 76.782)" opacity="0" fill="url(#linear-gradient)"/>
          <path id="Path_11165" data-name="Path 11165" d="M444.029,308.846a329.234,329.234,0,0,1,0-66.808,11.575,11.575,0,0,1,10.353-10.353,329.124,329.124,0,0,1,66.809,0,11.574,11.574,0,0,1,10.352,10.353,329.1,329.1,0,0,1,0,66.808A11.575,11.575,0,0,1,521.19,319.2a329.243,329.243,0,0,1-66.809,0A11.576,11.576,0,0,1,444.029,308.846Z" transform="translate(379.67 79.508)" fill="#0fa7e9"/>
          <g id="cloud" transform="translate(836.303 339.843)">
            <g id="Group_5006" data-name="Group 5006" transform="translate(0 0)">
              <path id="Path_11166" data-name="Path 11166" d="M514.07,290.711h-.31a8.975,8.975,0,0,0,.542-3.246,9.707,9.707,0,0,0-9.666-9.747h-.081a9.587,9.587,0,0,0-4.874,1.315,14.554,14.554,0,0,0-28.236,4.917v.034a14.217,14.217,0,0,0,.619,4.1,11.143,11.143,0,0,0-11.14,11.136v1.93a11.142,11.142,0,0,0,11.14,11.14h42.083A10.73,10.73,0,0,0,524.9,301.583v-.045h0A10.862,10.862,0,0,0,514.07,290.711Z" transform="translate(-460.925 -269.441)" fill="#fff"/>
            </g>
          </g>
          <g id="Group_5008" data-name="Group 5008" transform="translate(846.953 330.81)">
            <g id="Group_5007" data-name="Group 5007" transform="translate(0 0)">
              <path id="Path_11167" data-name="Path 11167" d="M474.771,266.432a9.356,9.356,0,0,1,6.072-8.569,5.352,5.352,0,0,1,5.77,2.551,32.208,32.208,0,0,1,2.121,8.86,2.482,2.482,0,0,1-.8,2.007c-.814.873-1.657,1.724-2.542,2.525a1.8,1.8,0,0,0-.535,2.308,33.783,33.783,0,0,0,13.153,14.719,1.565,1.565,0,0,0,2.036-.174c.948-.791,1.9-1.579,2.894-2.317a2.747,2.747,0,0,1,2.445-.535,38.42,38.42,0,0,1,7.656,2.751,4.963,4.963,0,0,1,1.438,7.807c-3.109,3.8-6.919,4.4-11.429,3.213-14.049-3.713-22.713-12.862-26.962-26.5A29.137,29.137,0,0,1,474.771,266.432Z" transform="translate(-474.77 -257.698)"/>
            </g>
          </g>
        </g>
      </g>
      <g id="Group_4854" data-name="Group 4854" transform="translate(16.642 87.209)">
        <g id="Group_4853" data-name="Group 4853">
          <g id="Group_4850" data-name="Group 4850" transform="translate(33.03 289.501)">
            <path id="Path_10846" data-name="Path 10846" d="M667.489,328.056q1.682-8.064,3.365-16.126l-6.86-1.029q-.964,8.405-1.932,16.807Z" transform="translate(-643.884 -310.901)" fill="#d6ddea"/>
            <path id="Path_10847" data-name="Path 10847" d="M669.516,319.03a2.217,2.217,0,0,0-1.247.523,36.36,36.36,0,0,1-13.113,5.93c-4.646,1-2.073,2.44,1.482,2.482s8.308-.378,11.856-.405,4.258.743,8.32.307c3.117-.336,3.6-5.712,1.156-8.528-.743-.857-.735-1.334-2.291-1.166S671.35,318.764,669.516,319.03Z" transform="translate(-652.645 -304.167)" fill="#013040"/>
          </g>
          <g id="Group_4851" data-name="Group 4851" transform="translate(78.304 267.762)">
            <path id="Path_10848" data-name="Path 10848" d="M692.885,310.184l-12.657-10.545-4.129,5.573,13.931,9.6Z" transform="translate(-676.099 -299.639)" fill="#d6ddea"/>
            <path id="Path_10849" data-name="Path 10849" d="M682.306,310.215a4.964,4.964,0,0,0,.1,3.191,36.431,36.431,0,0,1,1.2,14.466c-.608,4.778,1.6,2.755,2.839-.55s2.444-7.988,3.6-11.3,2.094-3.878,3.088-7.752c.5-1.946-3.519-5.472-6.609-4.3a2.556,2.556,0,0,0-1.859,1.7C684.128,306.847,682.8,309.09,682.306,310.215Z" transform="translate(-670.544 -295.827)" fill="#013040"/>
          </g>
          <g id="Group_4852" data-name="Group 4852" transform="translate(0 47.869)">
            <path id="Path_10850" data-name="Path 10850" d="M686.01,191.96c-2.924-.226-5.725,1.955-5.928,4.631-.512,6.721-.9,14.979-3.058,20.535s-3.422,6.851-7.15,10.559c-7.2-4.94-16.948-18.544-19.473-27.175-.015-.054-.029-.108-.05-.208a4.06,4.06,0,0,0-.1-.446c-.043-.122-.091-.226-.131-.355a3.7,3.7,0,0,0-.162-.423,3.935,3.935,0,0,0-.2-.376,4.3,4.3,0,0,0-.234-.363c-.087-.118-.182-.255-.255-.376s-.149-.216-.228-.324-.249-.27-.318-.346a1.33,1.33,0,0,0-.2-.185c-1.857-1.2-4.988-2.619-5.49-4.808s-2.793-8.262-5.038-6.127c-3.06,2.907-2.791,6.14-1.689,9.883s4.969,5.806,8.374,7.364c3.722,12.945,13,30.534,26,34.973.288.1.371.3.981-.095,7.5-4.855,11.223-8.152,15.263-17.556,2.351-5.474,3.893-15.807,3.82-23.021C690.7,195.228,688.935,192.186,686.01,191.96Z" transform="translate(-635.534 -185.723)" fill="#ffaf84"/>
          </g>
          <path id="Path_10851" data-name="Path 10851" d="M666.883,166.909c-6.609-3.127-7.966,10.74-5.76,14.765s8.945,10.736,11.974,5.314C677.031,179.945,675.793,171.125,666.883,166.909Z" transform="translate(-612.639 -155.78)" fill="#727272"/>
          <path id="Path_10852" data-name="Path 10852" d="M672.414,195.581a204.611,204.611,0,0,1-6.542,21.689c-3.55-1.187-7.065-2.34-10.619-3.505,2.615-6.88,4.474-13.672,6.546-20.82a5.469,5.469,0,0,1,10.615,2.637Z" transform="translate(-617.187 -134.916)" fill="#ed8c62"/>
          <path id="Path_10853" data-name="Path 10853" d="M675.744,197.73c-2.038,6.25-4.679,12.551-6.725,18.834-4.9-1.625-9.748-3.179-14.626-4.855,2.3-6.021,4.673-13.535,7.077-19.172,1.951-4.573,5.642-5.884,9.81-4.513S677.07,193.661,675.744,197.73Z" transform="translate(-617.989 -136.193)" fill="#0fa7e9"/>
          <path id="Path_10854" data-name="Path 10854" d="M685.4,190.8c.44,3.4-1.762,12.618-3.04,14.692-1.569,2.55-3.971,6.4-4.092,6.58-2.071,3-3.322,3.32-5.862,3.563a4.449,4.449,0,0,1-3.347-.927c-3.015-2.293-4.059-5.164-2.193-8.959,1.039-2.112,2.745-4.2,4.276-6.978a16.4,16.4,0,0,0,1.093-5.154c.012-1.917-.085-5.967-.318-8.52-.311-3.38,1.681-6.92,5.474-7.241s6.347,1.264,7.418,5.631C685.118,184.765,685.081,188.367,685.4,190.8Z" transform="translate(-607.254 -145.206)" fill="#ffaf84"/>
          <path id="Path_10855" data-name="Path 10855" d="M710.455,192.9c-4,26.862-8.644,55.757-7.993,83.5-15.533.033-31,.033-46.517,0,1.336-28.269,2.048-58.062,7.293-85.449.627-3.281,1.867-3.484,4.5-3.544,12.161-.274,26.142-.411,38.156.015C709.453,187.555,711.061,188.827,710.455,192.9Z" transform="translate(-616.545 -136.522)" fill="#0fa7e9"/>
          <path id="Path_10856" data-name="Path 10856" d="M700.515,263.668c4.5-9.391,3.316-20.334,2.021-30.267h-46.5c-.38,10.1-.154,20.179.407,30.267Z" transform="translate(-616.633 -93.499)" fill="#013040"/>
          <path id="Path_10857" data-name="Path 10857" d="M711.386,360.383c-2.241,2.307-4.644,4.474-6.9,6.756a113.859,113.859,0,0,1-15.614-10.5,201.337,201.337,0,0,1-17.6-15.881c-6.845-6.868-14.491-17.713-15.817-25.974-3.005-18.747.857-51.817,2.674-64.837s5.86-7.681,11.061-8.285,9.98,3.409,9.138,10.661c-2.027,17.462-6.5,40.45-4.725,59.39a5.24,5.24,0,0,0,.544,2.3c4.073,9.426,10.161,16.859,17.2,25.127C697.09,345.882,704.749,353.914,711.386,360.383Z" transform="translate(-618.035 -86.361)" fill="#013040"/>
          <path id="Path_10858" data-name="Path 10858" d="M683.085,303.89q-1.028,8.886-2.181,17.759a184.174,184.174,0,0,1-17.854-16.126c.662-7.235,1.388-14.91,2.307-21.965.265-2.031.392-2.909.627-4.762C669.926,288.249,676.611,296.111,683.085,303.89Z" transform="translate(-609.935 -51.267)" fill="#234063"/>
          <path id="Path_10859" data-name="Path 10859" d="M661.213,384.519c.863-13.414,4.326-53.055,5.687-63.569,2.146-16.608,8.814-67.816,9.088-69.115,3.081-14.609,8.2-11.4,13.655-10.717s8.665.863,7.071,13.746c-.143,1.143-10.233,58.261-12.329,67.167-3.042,24.2-7.484,43.565-12.443,65.743" transform="translate(-611.644 -87.038)" fill="#013040"/>
          <path id="Path_10860" data-name="Path 10860" d="M682.478,190.546a22.14,22.14,0,0,1-11.308,3.409,13.121,13.121,0,0,1-1.859-.1,57.139,57.139,0,0,0-.282-8.688c-.238-3.679,1.689-6.837,5.484-7.293s6.411,1.428,7.4,5.567A57.624,57.624,0,0,1,682.478,190.546Z" transform="translate(-604.39 -145.215)" fill="#ed8c62"/>
          <path id="Path_10861" data-name="Path 10861" d="M660.968,183.56c.108,11.122,5.077,20.417,17.595,20.442,9.864.019,22.083-9.1,22.056-20.442a20.137,20.137,0,0,0-20.4-20.38C668.619,163.2,660.858,172.438,660.968,183.56Z" transform="translate(-611.873 -158.826)" fill="#ffaf84"/>
          <path id="Path_10862" data-name="Path 10862" d="M724.545,237.148c-.293-9.858-7.517-18.4-12.562-27.254-3.127-5.484-8.379-13.321-12.263-18.952a5.406,5.406,0,0,0-7.611-1.492,5.483,5.483,0,0,0-1.5,7.559c3.718,5.831,8.87,13.56,12.028,18.774,4.1,6.772,6.808,10.8,9.8,17.471a164.221,164.221,0,0,1-33.643,7.436,6.731,6.731,0,0,0-3.652,1.89c-.4.469-.031.037-.091.108-2.853,3.453-4.407,7.1-6.133,11.19-.84,1.992-1.955,8.551.766,8.615s4.471-1.519,6.131-2.147c2.612-.984,2.727-.616,3.652-3.3s.147-7.391,1.6-10.244C685.516,246.03,724.788,245.267,724.545,237.148Z" transform="translate(-605.365 -135.271)" fill="#ffaf84"/>
          <path id="Path_10863" data-name="Path 10863" d="M666.232,394.314c-.394.471-.71.409-.956-.151,2.921-17.386,8.055-49.2,11.136-64.364s10.721-67.752,10.953-69.032c3.374-18.734,1.481-16,1.293-27.793.268.336.593.278.959-.079.241,11.7,2.011,9.437-1.312,28.082-.182,1.025-7.885,53.97-10.949,69.018S669.137,377.009,666.232,394.314Z" transform="translate(-607.864 -93.969)" fill="#7095c1"/>
          <path id="Path_10864" data-name="Path 10864" d="M684.683,165.677c-5.625-4.669-10.383,8.424-9.246,12.869s5.994,12.622,10.275,8.127C691.275,180.826,692.269,171.976,684.683,165.677Z" transform="translate(-598.569 -157.426)" fill="#727272"/>
          <path id="Path_10865" data-name="Path 10865" d="M696.265,172.6c-10.549,4.052-26.349,4.683-35.6-2.328a12.12,12.12,0,0,0,5.185-.237,22.038,22.038,0,0,1-6.845-4.4c5.194-.647,6.76.342,12.589-2.388s19-3.7,24.069.749S700.313,170.216,696.265,172.6Z" transform="translate(-613.695 -160.924)" fill="#727272"/>
          <path id="Path_10866" data-name="Path 10866" d="M686.141,180.289a6.708,6.708,0,0,1-3.656,4.988,2.856,2.856,0,0,1-4.113-3.168c.27-1.8.828-4.658,1.255-6.43a2.856,2.856,0,0,1,5-1.39A6.712,6.712,0,0,1,686.141,180.289Z" transform="translate(-595.721 -149.433)" fill="#ffaf84"/>
          <path id="Path_10867" data-name="Path 10867" d="M666.159,187.214c-.141,5.519,4.322,6.075,9.673,5.384a34.812,34.812,0,0,0,13.232-5.38C681.512,187.189,673.849,187.194,666.159,187.214Z" transform="translate(-607.046 -136.482)" fill="#ffaf84"/>
          <path id="Path_10868" data-name="Path 10868" d="M701.69,210.092c-3.117,2.025-6.221,3.992-9.349,6-3.863-6.441-8.181-12.7-12.18-19.041a5.474,5.474,0,0,1,9.113-6.069C693.531,196.932,697.693,203.8,701.69,210.092Z" transform="translate(-594.895 -135.282)" fill="#ed8c62"/>
          <path id="Path_10869" data-name="Path 10869" d="M679.473,199.279c3.532,5.548,7.659,10.989,11.205,16.564,4.337-2.793,8.65-5.505,12.954-8.345-3.724-5.258-7.895-11.949-11.628-16.807-3.029-3.944-6.932-4.291-10.626-1.925S677.176,195.67,679.473,199.279Z" transform="translate(-595.945 -136.4)" fill="#0fa7e9"/>
          <path id="Path_10870" data-name="Path 10870" d="M668.024,264.394h-.965V233.026c.322,0,.643,0,.965,0Z" transform="translate(-606.205 -93.848)" fill="#7095c1"/>
          <path id="Path_10871" data-name="Path 10871" d="M669.868,259.264c-2.986-.681-5.131-1.766-5.241-5.436-.193-6.563.042-14.026-.058-20.788a8.081,8.081,0,0,1,.967,0c.077,6.806-.108,14.167.048,20.8.073,3.038,1.855,3.87,4.283,4.451C669.883,258.586,669.883,258.9,669.868,259.264Z" transform="translate(-608.541 -93.849)" fill="#7095c1"/>
        </g>
      </g>
    </g>
    <g id="Group_4857" data-name="Group 4857" transform="translate(637.485 227.809)">
      <g id="Group_4856" data-name="Group 4856">
        <path id="Path_10872" data-name="Path 10872" d="M658.831,202.007a1.476,1.476,0,0,1-.338,2.031l-10.213,5.64a1.473,1.473,0,0,1-1.9-.793L632.135,183.1a1.477,1.477,0,0,1,.34-2.031l10.211-5.642a1.479,1.479,0,0,1,1.9.793Z" transform="translate(-631.89 -175.298)" fill="#cfebf1"/>
        <rect id="Rectangle_2704" data-name="Rectangle 2704" width="10.941" height="24.399" transform="translate(2.62 8.329) rotate(-28.92)" fill="#1c9cd3"/>
        <path id="Path_10874" data-name="Path 10874" d="M642.028,191.523a1.167,1.167,0,1,1,1.687.707A1.31,1.31,0,0,1,642.028,191.523Z" transform="translate(-622.662 -161.99)" fill="#87cedd"/>
        <path id="Path_10875" data-name="Path 10875" d="M642.232,190.919a.583.583,0,1,1,.844.351A.658.658,0,0,1,642.232,190.919Z" transform="translate(-622.37 -161.66)" fill="#1c9cd3"/>
        <path id="Path_10876" data-name="Path 10876" d="M637.349,177.419a.209.209,0,0,1-.048.29l-2.233,1.235a.212.212,0,0,1-.272-.114h0a.209.209,0,0,1,.048-.29l2.235-1.235a.21.21,0,0,1,.27.114Z" transform="translate(-629.221 -173.449)" fill="#87cedd"/>
      </g>
      <path id="Path_10877" data-name="Path 10877" d="M643.288,185.5c-.558-.4-.957-.5-1.2.017l-.062.137c-.672.353-1.639-.521-1.868-.639-.2-.193-1.282-.807-1.382-1.718l.062-.137c.226-.531-.041-.921-.6-1.326-.5-.359-.859-.747-1.056-.311l-.124.274a1.953,1.953,0,0,0-.156,1.042h0a3.365,3.365,0,0,0,.739,1.733,3.214,3.214,0,0,0,.606.577l1.392,1.01,1.39,1.008a2.68,2.68,0,0,0,.7.371,1.905,1.905,0,0,0,1.556-.068h0a1.41,1.41,0,0,0,.631-.7l.124-.272c.2-.436-.251-.637-.747-1Z" transform="translate(-627.245 -169.689)" fill="#fff"/>
    </g>
  </g>
</svg>
