<svg xmlns="http://www.w3.org/2000/svg" xmlns:xlink="http://www.w3.org/1999/xlink" width="173" height="238" viewBox="43 38 173 238">
  <defs>
    <linearGradient id="linear-gradient" x1="0.5" x2="0.5" y2="1" gradientUnits="objectBoundingBox">
      <stop offset="0" stop-color="#00a9ff"/>
      <stop offset="1" stop-color="#2b74ff"/>
    </linearGradient>
    <linearGradient id="linear-gradient-2" y1="0.5" x2="1" y2="0.5" gradientUnits="objectBoundingBox">
      <stop offset="0" stop-color="#00a9ff"/>
      <stop offset="1" stop-color="#b371ff"/>
    </linearGradient>
  </defs>
  <g id="Group_4386" data-name="Group 4386" transform="translate(25.77 61.584)">
    <g id="Group_4383" data-name="Group 4383" transform="translate(140.469 367.643)">
      <path id="Path_9713" data-name="Path 9713" d="M307.234,250.56l-2.288-17.683-8.316-1.237,4.019,18.487Z" transform="translate(-283.665 -231.64)" fill="#d6ddea"/>
      <path id="Path_9714" data-name="Path 9714" d="M307.813,237.617a2.787,2.787,0,0,0-1.453.618c-2.844,2.349-6.121,5.441-11.222,6.8-4.637,1.237-2.813,3.462,1.762,3.462,6.709,0,9.367-.247,12.366-.186s1.051.186,8.409.186c3.37,0,2.257-6.585.464-10.542a2.358,2.358,0,0,0-2.659-1.422Z" transform="translate(-292.436 -221.479)" fill="#293549"/>
    </g>
    <g id="Group_4384" data-name="Group 4384" transform="translate(99.42 367.643)">
      <path id="Path_9715" data-name="Path 9715" d="M295.734,250.56l-2.288-17.683-8.316-1.237,4.019,18.487Z" transform="translate(-266.668 -231.64)" fill="#d6ddea"/>
      <path id="Path_9716" data-name="Path 9716" d="M300.031,237.615a2.787,2.787,0,0,0-1.453.618c-2.844,2.349-11.5,6.585-15.952,7.234-4.761.68-5.008,3.03,1.7,3.03s11.624-.587,14.592-.526c3,.062,2.195.526,9.553.526,5.627,0,3.864-7.2,1.855-10.542a2.512,2.512,0,0,0-2.659-1.422Z" transform="translate(-279.158 -221.478)" fill="#293549"/>
    </g>
    <path id="Path_9717" data-name="Path 9717" d="M289.4,118.673c-9.243-4.946-10.665,13.139-7.7,19.043,3.215,6.368,12.644,11.9,15.241,6.739C300.344,137.747,301.859,125.35,289.4,118.673Z" transform="translate(-177.33 -102.034)" fill="#013040"/>
    <path id="Path_9718" data-name="Path 9718" d="M309.213,143.361c.031,6.059-.742,13.572-4.112,18.92-4.2,6.708-5.039,8.038-5.1,8.161a8.143,8.143,0,0,1-7.018,3.957,8.359,8.359,0,0,1-4.2-1.144,8.187,8.187,0,0,1-2.813-11.191s.68-1.144,5.317-8.5c.835-1.36,1.329-3.988,1.484-7.049a52.426,52.426,0,0,0-.464-10.356,8.174,8.174,0,0,1,16.168-2.411A67.4,67.4,0,0,1,309.213,143.361Z" transform="translate(-167.898 -83.288)" fill="#ffaf84"/>
    <path id="Path_9719" data-name="Path 9719" d="M345.464,140.789c-4.05,23.186-11.933,81.46-10.233,104.893H277.05s3.493-86.314,9.027-107.367a5.726,5.726,0,0,1,5.565-4.266h48.165A5.749,5.749,0,0,1,345.464,140.789Z" transform="translate(-184.147 -68.103)" fill="url(#linear-gradient)"/>
    <path id="Path_9720" data-name="Path 9720" d="M332.871,208.03s7.079-12.984,2.535-37.87H277.225s-.835,18.951.495,37.87Z" transform="translate(-184.322 7.42)" fill="#808495"/>
    <g id="Group_4385" data-name="Group 4385" transform="translate(93.296 200.301)">
      <path id="Path_9721" data-name="Path 9721" d="M318.633,273.779c-3.215-21.331-4.946-90.765-4.977-91.384-.247-6.43-7.914-5.132-14.128-3.772-7.419,1.577-12.49,5.1-12.242,11.5.093,2.566,4.946,64.55,8.347,87.117,2.442,16.261,11.9,57.316,20.991,81.275l11.191-1.329C324.847,338.112,321.106,290.04,318.633,273.779Z" transform="translate(-256.053 -177.51)" fill="#808495"/>
      <path id="Path_9722" data-name="Path 9722" d="M304.545,187.818c-.247-6.43-9.8-10.016-16.2-9.738a11.639,11.639,0,0,0-11.16,12.088c.093,2.566,2.6,63.344,6,85.943,2.442,16.261,14,62.818,19.414,82.542l10.635-1.329c-2.5-27.669-6.987-67.7-8.9-85.263C302.041,250.606,304.576,188.437,304.545,187.818Z" transform="translate(-277.177 -176.348)" fill="#808495"/>
    </g>
    <path id="Path_9723" data-name="Path 9723" d="M304.208,143.361a25.722,25.722,0,0,1-12.83,3.4,27.68,27.68,0,0,1-3.617-.247,52.431,52.431,0,0,0-.464-10.356,8.174,8.174,0,0,1,16.168-2.411A67.352,67.352,0,0,1,304.208,143.361Z" transform="translate(-162.893 -83.288)" fill="#ed8c62"/>
    <path id="Path_9724" data-name="Path 9724" d="M281,141.289c0,14.344,8.687,26,21.269,26,15.643,0,28.72-11.624,28.72-26a26,26,0,0,0-26-26C290.645,115.29,281,126.945,281,141.289Z" transform="translate(-175.886 -107.339)" fill="#ffaf84"/>
    <path id="Path_9725" data-name="Path 9725" d="M338.591,193.225c.155-5.75-4.019-20.4-11.871-32.553-5.317-8.254-11.16-16.539-15.767-22.846a6.926,6.926,0,0,0-11.191,8.161c5.194,7.11,10.635,14.994,15.272,22.166,6.43,9.955,9.738,18.116,10.511,21.3-4.915,5.75-11.562,16.91-29.647,33.017a3.4,3.4,0,0,0-.309.34,6.463,6.463,0,0,0-.618.68,2.313,2.313,0,0,0-.216.371,6.807,6.807,0,0,0-.464.8l-.185.464a8.243,8.243,0,0,0-.278.8,3.338,3.338,0,0,0-.093.587c-.031.247-.093.464-.124.711v.68a4.558,4.558,0,0,0,.031.649,5.862,5.862,0,0,0,.155.711,3.263,3.263,0,0,0,.155.587,5.839,5.839,0,0,0,.278.649,3.449,3.449,0,0,0,.649,1.144l.371.556a13.321,13.321,0,0,0,14.932,6.245c4.606-1.175,3.617-1.886,4.637-4.73,1.268-3.617-.34-3.153-3.9-4.544-1.391-.556-2.133-2.535-4.637-3.524C336.056,198.017,338.529,195.606,338.591,193.225Z" transform="translate(-149.512 -66.098)" fill="#ffaf84"/>
    <path id="Path_9726" data-name="Path 9726" d="M333.939,161.828a6.934,6.934,0,0,0-9.738,1.144c-5.627,7.11-11.686,14.035-17.034,19.569-5.874,6.121-9.862,7.11-12.459,8.316-5.1-4.05-8.872-30.265-6.677-59.078v-.958c-.031-.278-.062-.587-.093-.866a3.838,3.838,0,0,0-.124-.495,7.961,7.961,0,0,0-.247-.8,3.119,3.119,0,0,0-.216-.464,4.9,4.9,0,0,0-.4-.68c-.093-.155-.216-.309-.309-.464a4.238,4.238,0,0,0-.495-.556,2.67,2.67,0,0,0-.433-.4l-.556-.464c-.155-.124-.34-.216-.526-.34a6.546,6.546,0,0,0-.649-.34,4.123,4.123,0,0,0-.556-.216,5.639,5.639,0,0,0-.773-.216l-.278-.093a42.384,42.384,0,0,0-12.891-.062c-4.019.526-12.057-3.586-10.975.062,1.546,5.317,4.915,8.378,8.594,9.367,2.442.649,8.9-1.175,12.088,1.113-1.638,27.947-6.09,70.547,12.861,73.3a7.231,7.231,0,0,0,1.175.093c5.626,0,13.664-5.41,24.052-16.107q7.976-8.254,17.807-20.682A6.887,6.887,0,0,0,333.939,161.828Z" transform="translate(-223.136 -91.43)" fill="#ffaf84"/>
    <path id="Path_9727" data-name="Path 9727" d="M304.554,118.118c-7.7-7.079-13.6,10.078-12.18,16.508,1.515,6.956,9.274,14.654,13.108,10.325C310.4,139.325,314.941,127.7,304.554,118.118Z" transform="translate(-152.542 -104.942)" fill="#013040"/>
    <path id="Path_9728" data-name="Path 9728" d="M325.394,129.33c-6.337,4.514-40.606,2.883-42.967,0s-3.347-8.1,2.148-17.442c0,0-1.139,13.324,9.44,6.127s21.98-7.172,31.471.989C334.947,127.228,325.394,129.33,325.394,129.33Z" transform="translate(-178.576 -111.888)" fill="#013040"/>
    <path id="Path_9729" data-name="Path 9729" d="M304.45,132.137a9.236,9.236,0,0,1-4.575,6.307,3.652,3.652,0,0,1-5.286-3.957l1.608-8.192a3.668,3.668,0,0,1,6.4-1.7A9.17,9.17,0,0,1,304.45,132.137Z" transform="translate(-147.615 -90.613)" fill="#ffaf84"/>
    <path id="Path_9731" data-name="Path 9731" d="M285.215,134.05c-1.453,5.07,3.339,8.038,11.717,6.863a40.93,40.93,0,0,0,16.941-6.863Z" transform="translate(-167.611 -68.103)" fill="#ffaf84"/>
    <path id="Path_9732" data-name="Path 9732" d="M323.459,160.672l-11.686,7.481c-4.637-7.172-10.078-15.055-15.272-22.166a6.926,6.926,0,0,1,11.191-8.161C312.3,144.133,318.142,152.418,323.459,160.672Z" transform="translate(-146.252 -66.098)" fill="#ed8c62"/>
    <path id="Path_9733" data-name="Path 9733" d="M296.036,149.192c4.7,6.678,9.491,13.757,14.128,20.682l16.2-10.418c-5.627-8.347-10.851-15.952-14.623-21.3a9.6,9.6,0,1,0-15.7,11.036Z" transform="translate(-148.104 -68.096)" fill="#079fff"/>
    <path id="Path_9734" data-name="Path 9734" d="M302.065,146.208q-9.831,12.428-17.807,20.682l-10.078-9.676c5.348-5.534,11.408-12.459,17.034-19.569a6.912,6.912,0,1,1,10.851,8.563Z" transform="translate(-190.149 -66.102)" fill="#ed8c62"/>
    <path id="Path_9735" data-name="Path 9735" d="M305.449,150.593c-5.9,5.626-11.995,11.655-17.869,17.559L273.7,154.8c7.141-7.11,13.757-13.541,18.487-18.054a9.588,9.588,0,1,1,13.262,13.85Z" transform="translate(-191.153 -68.075)" fill="#079fff"/>
    <path id="Path_9736" data-name="Path 9736" d="M220.658,250.386H402.626a5.007,5.007,0,0,0,5.008-5.008h0a5.007,5.007,0,0,0-5.008-5.008H220.658a5.007,5.007,0,0,0-5.008,5.008h0A4.987,4.987,0,0,0,220.658,250.386Z" transform="translate(-215.65 154.262)" fill="#e2e2e2"/>
    <path id="Path_9737" data-name="Path 9737" d="M311.879,374.69c-.093-.526-9.367-53.73-14.221-95-4.854-41.3-4.39-109.16-4.39-109.84h1.546c0,.68-.464,68.445,4.359,109.654,4.854,41.24,14.1,94.382,14.19,94.939Z" transform="translate(-150.252 6.772)" fill="#707070"/>
    <g id="Group_5109" data-name="Group 5109" transform="translate(19.019 -22.07)">
      <path id="Path_11164" data-name="Path 11164" d="M443.81,289.4a198.746,198.746,0,0,1,0-40.33,6.988,6.988,0,0,1,6.249-6.249,198.685,198.685,0,0,1,40.33,0,6.988,6.988,0,0,1,6.25,6.249,198.764,198.764,0,0,1,0,40.33,6.988,6.988,0,0,1-6.25,6.25,198.689,198.689,0,0,1-40.33,0A6.988,6.988,0,0,1,443.81,289.4Z" transform="translate(-442.573 -236.314)" opacity="0" fill="url(#linear-gradient-2)"/>
      <path id="Path_11165" data-name="Path 11165" d="M443.356,277.591a198.746,198.746,0,0,1,0-40.33,6.988,6.988,0,0,1,6.249-6.249,198.681,198.681,0,0,1,40.33,0,6.987,6.987,0,0,1,6.249,6.249,198.667,198.667,0,0,1,0,40.33,6.987,6.987,0,0,1-6.249,6.249,198.751,198.751,0,0,1-40.33,0A6.988,6.988,0,0,1,443.356,277.591Z" transform="translate(-442.33 -229.985)" fill="#0fa7e9"/>
      <g id="cloud" transform="translate(8.634 18.321)">
        <g id="Group_5006" data-name="Group 5006" transform="translate(0 0)">
          <path id="Path_11166" data-name="Path 11166" d="M493.007,282.281h-.187a5.418,5.418,0,0,0,.327-1.96,5.86,5.86,0,0,0-5.835-5.884h-.049a5.787,5.787,0,0,0-2.942.794,8.786,8.786,0,0,0-17.045,2.969v.02a8.582,8.582,0,0,0,.374,2.475,6.726,6.726,0,0,0-6.725,6.723v1.165a6.726,6.726,0,0,0,6.725,6.725h25.4a6.477,6.477,0,0,0,6.491-6.464v-.027h0A6.557,6.557,0,0,0,493.007,282.281Z" transform="translate(-460.925 -269.441)" fill="#fff"/>
        </g>
      </g>
      <g id="Group_5008" data-name="Group 5008" transform="translate(15.063 12.868)">
        <g id="Group_5007" data-name="Group 5007" transform="translate(0 0)">
          <path id="Path_11167" data-name="Path 11167" d="M474.771,262.97a5.648,5.648,0,0,1,3.665-5.173,3.231,3.231,0,0,1,3.483,1.54,19.443,19.443,0,0,1,1.28,5.349,1.5,1.5,0,0,1-.481,1.211c-.491.527-1,1.041-1.535,1.524a1.085,1.085,0,0,0-.323,1.393,20.394,20.394,0,0,0,7.94,8.885.944.944,0,0,0,1.229-.1c.573-.478,1.149-.953,1.747-1.4a1.658,1.658,0,0,1,1.476-.323,23.191,23.191,0,0,1,4.622,1.66,3,3,0,0,1,.868,4.713c-1.877,2.293-4.177,2.659-6.9,1.94-8.481-2.241-13.711-7.765-16.276-16A17.59,17.59,0,0,1,474.771,262.97Z" transform="translate(-474.77 -257.698)"/>
        </g>
      </g>
    </g>
  </g>
</svg>
