<svg xmlns="http://www.w3.org/2000/svg" xmlns:xlink="http://www.w3.org/1999/xlink" width="324" height="375" viewBox="42 33 324 375">
  <defs>
    <linearGradient id="linear-gradient" y1="0.5" x2="1" y2="0.5" gradientUnits="objectBoundingBox">
      <stop offset="0" stop-color="#00a9ff"/>
      <stop offset="1" stop-color="#b371ff"/>
    </linearGradient>
    <linearGradient id="linear-gradient-2" x1="0.5" x2="0.5" y2="1" gradientUnits="objectBoundingBox">
      <stop offset="0" stop-color="#00a9ff"/>
      <stop offset="1" stop-color="#2b74ff"/>
    </linearGradient>
  </defs>
  <g id="Group_5159" data-name="Group 5159" transform="translate(-621.073 -961.8)">
    <g id="Group_5044" data-name="Group 5044" transform="translate(665.677 996.495)">
      <path id="Path_11164" data-name="Path 11164" d="M444.711,331.23a373.354,373.354,0,0,1,0-75.763,13.127,13.127,0,0,1,11.74-11.74,373.253,373.253,0,0,1,75.763,0,13.127,13.127,0,0,1,11.74,11.74,373.39,373.39,0,0,1,0,75.763,13.127,13.127,0,0,1-11.74,11.74,373.248,373.248,0,0,1-75.763,0A13.127,13.127,0,0,1,444.711,331.23Z" transform="translate(-442.388 -231.494)" opacity="0" fill="url(#linear-gradient)"/>
      <path id="Path_11165" data-name="Path 11165" d="M444.257,319.415a373.363,373.363,0,0,1,0-75.763A13.127,13.127,0,0,1,456,231.913a373.234,373.234,0,0,1,75.763,0,13.125,13.125,0,0,1,11.74,11.74,373.213,373.213,0,0,1,0,75.763,13.126,13.126,0,0,1-11.74,11.74,373.373,373.373,0,0,1-75.763,0A13.127,13.127,0,0,1,444.257,319.415Z" transform="translate(-442.33 -229.985)" fill="#0fa7e9"/>
      <g id="cloud" transform="translate(16.22 34.417)">
        <g id="Group_5006" data-name="Group 5006" transform="translate(0 0)">
          <path id="Path_11166" data-name="Path 11166" d="M521.193,293.561h-.352a10.179,10.179,0,0,0,.615-3.681A11.008,11.008,0,0,0,510.5,278.827H510.4a10.871,10.871,0,0,0-5.527,1.492,16.5,16.5,0,0,0-32.02,5.577v.038a16.123,16.123,0,0,0,.7,4.649,12.636,12.636,0,0,0-12.633,12.629V305.4a12.635,12.635,0,0,0,12.633,12.633H521.28a12.168,12.168,0,0,0,12.194-12.142v-.051h0A12.318,12.318,0,0,0,521.193,293.561Z" transform="translate(-460.925 -269.441)" fill="#fff"/>
        </g>
      </g>
      <g id="Group_5008" data-name="Group 5008" transform="translate(28.297 24.174)">
        <g id="Group_5007" data-name="Group 5007" transform="translate(0 0)">
          <path id="Path_11167" data-name="Path 11167" d="M474.771,267.6a10.61,10.61,0,0,1,6.886-9.717c2.118-.725,5.637.754,6.543,2.892a36.524,36.524,0,0,1,2.4,10.048,2.815,2.815,0,0,1-.9,2.276c-.923.99-1.879,1.956-2.883,2.864a2.038,2.038,0,0,0-.606,2.617c3.2,7.152,8.4,12.511,14.916,16.691a1.774,1.774,0,0,0,2.309-.2c1.076-.9,2.158-1.791,3.281-2.627a3.115,3.115,0,0,1,2.773-.606,43.57,43.57,0,0,1,8.682,3.119c3.445,1.764,4.062,5.883,1.631,8.853-3.526,4.307-7.846,4.995-12.96,3.644-15.932-4.211-25.757-14.586-30.575-30.049A33.043,33.043,0,0,1,474.771,267.6Z" transform="translate(-474.77 -257.698)"/>
        </g>
      </g>
    </g>
    <g id="Group_4386" data-name="Group 4386" transform="translate(696.208 1036.077)">
      <path id="Path_9717" data-name="Path 9717" d="M297.387,119.417c-17.364-9.292-20.036,24.682-14.461,35.774,6.04,11.964,23.753,22.359,28.631,12.66C317.946,155.249,320.792,131.961,297.387,119.417Z" transform="translate(-153.115 -88.16)" fill="#013040"/>
      <path id="Path_9718" data-name="Path 9718" d="M330.645,157.92c.058,11.383-1.394,25.5-7.724,35.542-7.9,12.6-9.466,15.1-9.582,15.332a15.3,15.3,0,0,1-13.183,7.434,15.7,15.7,0,0,1-7.9-2.149,15.379,15.379,0,0,1-5.285-21.023s1.278-2.149,9.989-15.971c1.568-2.555,2.5-7.492,2.788-13.241a98.488,98.488,0,0,0-.871-19.455,15.355,15.355,0,0,1,30.374-4.53A126.61,126.61,0,0,1,330.645,157.92Z" transform="translate(-131.434 -45.068)" fill="#ffaf84"/>
      <path id="Path_9719" data-name="Path 9719" d="M405.571,146.71c-7.608,43.557-22.417,153.029-19.223,197.05H277.05s6.563-162.147,16.958-201.7a10.757,10.757,0,0,1,10.453-8.014h90.482A10.8,10.8,0,0,1,405.571,146.71Z" transform="translate(-168.785 -10.163)" fill="url(#linear-gradient-2)"/>
      <path id="Path_9723" data-name="Path 9723" d="M319.141,157.92a48.321,48.321,0,0,1-24.1,6.388,52,52,0,0,1-6.795-.465,98.5,98.5,0,0,0-.871-19.455,15.355,15.355,0,0,1,30.373-4.53A126.524,126.524,0,0,1,319.141,157.92Z" transform="translate(-119.93 -45.068)" fill="#ed8c62"/>
      <path id="Path_9724" data-name="Path 9724" d="M281,164.131c0,26.947,16.319,48.841,39.956,48.841,29.386,0,53.952-21.836,53.952-48.841a48.839,48.839,0,0,0-48.841-48.841C299.119,115.29,281,137.184,281,164.131Z" transform="translate(-149.795 -100.353)" fill="#ffaf84"/>
      <path id="Path_9725" data-name="Path 9725" d="M378.11,244.373c.29-10.8-7.55-38.33-22.3-61.154-9.989-15.506-20.965-31.07-29.619-42.918a13.01,13.01,0,0,0-21.023,15.332c9.757,13.357,19.978,28.167,28.689,41.64,12.079,18.7,18.294,34.032,19.745,40.014-9.234,10.8-21.72,31.767-55.694,62.024a6.374,6.374,0,0,0-.581.639,12.136,12.136,0,0,0-1.162,1.278,4.345,4.345,0,0,0-.406.7,12.793,12.793,0,0,0-.871,1.51l-.348.871a15.467,15.467,0,0,0-.523,1.51,6.273,6.273,0,0,0-.174,1.1c-.058.465-.174.871-.232,1.336v1.278a8.561,8.561,0,0,0,.058,1.22,11.023,11.023,0,0,0,.29,1.336,6.13,6.13,0,0,0,.29,1.1,10.971,10.971,0,0,0,.523,1.22,6.477,6.477,0,0,0,1.219,2.149l.7,1.045c1.684,1.975,4.53,8.3,15.564,11.789,3.6,1.1,9.06.813,12.486-.058,8.653-2.207,6.795-3.543,8.711-8.885,2.381-6.795-.639-5.924-7.318-8.537-2.613-1.045-4.007-4.762-8.711-6.621C373.348,253.375,377.994,248.845,378.11,244.373Z" transform="translate(-89.172 -5.555)" fill="#ffaf84"/>
      <path id="Path_9726" data-name="Path 9726" d="M400.3,196.033A13.025,13.025,0,0,0,382,198.182c-10.57,13.357-21.953,26.366-32,36.762-11.034,11.5-18.526,13.357-23.4,15.622-9.582-7.608-16.668-56.856-12.544-110.982v-1.8c-.058-.523-.116-1.1-.174-1.626a7.209,7.209,0,0,0-.232-.929,14.961,14.961,0,0,0-.465-1.51,5.86,5.86,0,0,0-.407-.871,9.212,9.212,0,0,0-.755-1.278c-.174-.29-.407-.581-.581-.871a7.961,7.961,0,0,0-.929-1.045,5.019,5.019,0,0,0-.813-.755l-1.045-.871c-.29-.232-.639-.407-.987-.639a12.3,12.3,0,0,0-1.219-.639,7.742,7.742,0,0,0-1.045-.406,10.594,10.594,0,0,0-1.452-.407l-.523-.174c-.174,0-9.7-2.033-24.218-.116-7.55.987-22.649-6.737-20.617.116,2.9,9.989,9.234,15.738,16.145,17.6,4.588,1.22,16.726-2.207,22.707,2.091-3.078,52.5-11.441,132.528,24.16,137.7a13.585,13.585,0,0,0,2.207.174c10.57,0,25.669-10.163,45.183-30.257q14.984-15.506,33.452-38.853A12.938,12.938,0,0,0,400.3,196.033Z" transform="translate(-258.408 -63.783)" fill="#ffaf84"/>
      <path id="Path_9727" data-name="Path 9727" d="M315.442,119.6c-14.461-13.3-25.553,18.933-22.882,31.012,2.846,13.067,17.423,27.528,24.624,19.4C326.418,159.435,334.955,137.6,315.442,119.6Z" transform="translate(-96.137 -94.843)" fill="#013040"/>
      <path id="Path_9728" data-name="Path 9728" d="M364.8,144.654c-11.905,8.479-76.281,5.416-80.716,0s-6.287-15.222,4.035-32.766c0,0-2.14,25.03,17.734,11.511s41.292-13.474,59.121,1.858C382.748,140.7,364.8,144.654,364.8,144.654Z" transform="translate(-155.254 -111.888)" fill="#013040"/>
      <path id="Path_9729" data-name="Path 9729" d="M313.176,139.913a17.35,17.35,0,0,1-8.6,11.847c-5.053,2.846-11.034-1.8-9.931-7.434l3.02-15.39c1.1-5.691,8.421-7.666,12.022-3.194A17.226,17.226,0,0,1,313.176,139.913Z" transform="translate(-84.811 -61.906)" fill="#ffaf84"/>
      <path id="Path_9731" data-name="Path 9731" d="M285.441,134.05c-2.73,9.524,6.272,15.1,22.011,12.893a76.89,76.89,0,0,0,31.825-12.893Z" transform="translate(-130.774 -10.163)" fill="#ffaf84"/>
      <path id="Path_9732" data-name="Path 9732" d="M348.313,183.22l-21.952,14.054c-8.711-13.474-18.933-28.283-28.689-41.64A13.01,13.01,0,0,1,318.695,140.3C327.348,152.15,338.324,167.714,348.313,183.22Z" transform="translate(-81.677 -5.555)" fill="#ed8c62"/>
      <path id="Path_9733" data-name="Path 9733" d="M297.575,162.492c8.827,12.544,17.829,25.844,26.54,38.853l30.432-19.571c-10.57-15.68-20.385-29.967-27.47-40.014a18.029,18.029,0,1,0-29.5,20.733Z" transform="translate(-85.936 -10.148)" fill="#079fff"/>
      <path id="Path_9734" data-name="Path 9734" d="M326.564,156.048Q308.1,179.395,293.113,194.9L274.18,176.723c10.047-10.4,21.43-23.4,32-36.762a12.984,12.984,0,1,1,20.385,16.087Z" transform="translate(-182.583 -5.563)" fill="#ed8c62"/>
      <path id="Path_9735" data-name="Path 9735" d="M333.343,165.116c-11.092,10.57-22.533,21.894-33.568,32.987L273.7,173.014c13.415-13.357,25.844-25.437,34.729-33.916a18.012,18.012,0,1,1,24.914,26.018Z" transform="translate(-184.89 -10.1)" fill="#079fff"/>
    </g>
  </g>
</svg>
