<svg xmlns="http://www.w3.org/2000/svg" width="2140.63" height="867.898" viewBox="30 0 2140.63 867.898">
  <path id="Path_11235" data-name="Path 11235" d="M0,248.086c0-18.026,14.355-32.638,32.063-32.638a27.589,27.589,0,0,1,4.471.359c2.647-36.41,32.475-65.156,68.891-65.156a67.4,67.4,0,0,1,31.122,7.546c9-45.214,48.3-79.289,95.365-79.289a96.594,96.594,0,0,1,79.069,41.321,67.218,67.218,0,0,1,27.063-8.264v-.3c0-54.736,43.594-99.051,97.307-99.051s97.307,44.375,97.307,99.051c0,3.174-.177,6.348-.471,9.4a69.964,69.964,0,0,1,7.119-.359,68.622,68.622,0,0,1,17.649,2.336,95.8,95.8,0,0,1,104.837-3.833A97.146,97.146,0,0,1,717.27,85.017c10.354-25.631,35.063-43.657,63.949-43.657,38.181,0,69.127,31.5,69.127,70.366a72,72,0,0,1-2.177,17.547,95.42,95.42,0,0,1,39.005-8.324c38.946,0,72.6,23.3,88.129,56.951a77.195,77.195,0,0,1,54.007-22.1,76.184,76.184,0,0,1,35.122,8.5c10.178-51.142,54.6-89.589,107.779-89.589,36.828,0,69.421,18.445,89.365,46.711a77.169,77.169,0,0,1,30.592-9.342v-.3C1292.168,49.924,1341.409-.2,1402.182-.2S1512.2,49.924,1512.2,111.786c0,3.593-.177,7.126-.53,10.66a71.936,71.936,0,0,1,8.06-.419,75.644,75.644,0,0,1,19.944,2.635,108.466,108.466,0,0,1,118.486-4.372,109.739,109.739,0,0,1,62.714-38.626c11.649-28.925,39.652-49.346,72.245-49.346,43.064.06,78.069,35.632,78.069,79.588a78.829,78.829,0,0,1-2.471,19.822,108.386,108.386,0,0,1,44.065-9.4c60.773,0,110.014,50.124,110.014,111.986,0,2.575-.118,5.15-.294,7.725,2.706-.18,5.412-.359,8.177-.359a108.354,108.354,0,0,1,12.531.719,36.175,36.175,0,0,1,33.416-22.7c20,0,36.24,16.528,36.24,36.89a36.916,36.916,0,0,1-4.53,17.786A113.473,113.473,0,0,1,2112.8,428.1V867.7H.059V248.086Z" transform="translate(0 0.2)" fill="#fff"/>
</svg>
